<?xml version="1.0" standalone="no"?>
<!DOCTYPE svg PUBLIC "-//W3C//DTD SVG 20010904//EN"
 "http://www.w3.org/TR/2001/REC-SVG-20010904/DTD/svg10.dtd">
<svg version="1.0" xmlns="http://www.w3.org/2000/svg"
 width="200.000000pt" height="200.000000pt" viewBox="0 0 200.000000 200.000000"
 preserveAspectRatio="xMidYMid meet">

<g transform="translate(0.000000,200.000000) scale(0.100000,-0.100000)"
fill="currentColor" stroke="none">
<!-- Lungs silhouette for Air Quality Index -->
<!-- Trachea: vertical tube from top center -->
<path d="
M 920 1850 l 0 -350 l -30 0 l 0 -60 l 220 0 l 0 60 l -30 0 l 0 350 l -40 0 l 0 -350 l -80 0 l 0 350 z
"/>
<!-- Left bronchus curving into left lung -->
<path d="
M 920 1500 q -80 -40 -140 -100 q -60 -60 -100 -140 q -40 -80 -60 -170
q -30 -130 -30 -260 q 0 -150 40 -280 q 30 -100 90 -180
q 80 -110 200 -110 q 80 0 130 50 q 40 40 40 100 l 0 90
q 0 40 -30 60 q -20 15 -50 15 q -30 0 -50 -15 q -30 -20 -30 -60
l 0 -50 q 0 -30 -20 -30 q -40 0 -80 60 q -50 70 -70 160
q -25 100 -25 220 q 0 130 30 240 q 20 80 60 140 q 30 50 70 80 l 0 180 z
"/>
<!-- Right bronchus curving into right lung -->
<path d="
M 1080 1500 q 80 -40 140 -100 q 60 -60 100 -140 q 40 -80 60 -170
q 30 -130 30 -260 q 0 -150 -40 -280 q -30 -100 -90 -180
q -80 -110 -200 -110 q -80 0 -130 50 q -40 40 -40 100 l 0 90
q 0 40 30 60 q 20 15 50 15 q 30 0 50 -15 q 30 -20 30 -60
l 0 -50 q 0 -30 20 -30 q 40 0 80 60 q 50 70 70 160
q 25 100 25 220 q 0 130 -30 240 q -20 80 -60 140 q -30 50 -70 80 l 0 180 z
"/>
</g>
</svg>
