<?xml version="1.0" standalone="no"?>
<!DOCTYPE svg PUBLIC "-//W3C//DTD SVG 20010904//EN"
 "http://www.w3.org/TR/2001/REC-SVG-20010904/DTD/svg10.dtd">
<svg version="1.0" xmlns="http://www.w3.org/2000/svg"
 width="200.000000pt" height="200.000000pt" viewBox="0 0 200.000000 200.000000"
 preserveAspectRatio="xMidYMid meet">

<g transform="translate(0.000000,200.000000) scale(0.100000,-0.100000)"
fill="currentColor" stroke="none">
<path d="M929 1888 c-40 -62 -115 -178 -167 -258 -343 -525 -352 -544 -352
-724 0 -172 59 -315 180 -436 82 -82 248 -159 343 -160 l27 0 0 -139 c0 -77 3
-146 6 -155 4 -9 18 -16 34 -16 24 0 28 5 34 38 3 20 6 89 6 153 l0 116 79 17
c119 25 213 76 296 160 186 188 227 453 107 693 -56 113 -495 823 -508 823 -7
0 -45 -51 -85 -112z m29 -554 l-3 -156 -46 58 c-26 33 -76 93 -112 135 l-66
76 94 154 c144 236 130 231 133 47 1 -87 1 -228 0 -314z m166 348 c37 -57 82
-132 101 -167 l36 -63 -48 -59 c-26 -32 -75 -92 -108 -133 l-60 -73 -5 294
c-3 162 -3 300 -1 307 5 18 11 11 85 -106z m240 -395 c30 -51 58 -100 61 -108
5 -13 -21 -44 -288 -347 -85 -96 -92 -101 -100 -80 -5 13 -7 87 -5 166 2 116
6 146 19 155 21 16 239 297 239 309 0 20 21 -6 74 -95z m-561 -46 c59 -70 119
-139 132 -151 25 -23 25 -25 24 -199 l0 -176 -22 29 c-17 23 -220 257 -350
403 -18 20 -19 26 -8 50 19 42 102 173 110 173 3 0 55 -58 114 -129z m-112
-331 c83 -96 179 -206 212 -244 l60 -68 5 -104 c6 -126 5 -127 -111 -90 -215
67 -346 224 -371 447 -8 69 24 244 44 237 4 -2 77 -82 161 -178z m805 129 c36
-117 23 -251 -36 -376 -37 -79 -133 -179 -210 -218 -68 -34 -156 -65 -187 -65
-23 0 -23 2 -23 105 l0 104 39 43 c78 85 373 433 378 446 9 23 26 7 39 -39z"/>
</g>
</svg>
