<svg xmlns="http://www.w3.org/2000/svg" width="100%" height="auto" viewBox="0 0 200 200" version="1.1" preserveAspectRatio="xMidYMid meet" style="max-width: 100%; max-height: 70vh;">
	<path d="M 0 100 L 0 200 48.151 200 L 96.302 200 95.656 190.250 C 95.301 184.888, 95.008 177.912, 95.005 174.750 C 95 169.148, 94.929 169, 92.250 168.988 C 87.847 168.969, 79.104 166.326, 72.196 162.925 C 50.597 152.292, 36.732 124.588, 40.933 100.461 C 42.704 90.296, 46.769 81.733, 58.145 64.214 C 63.757 55.571, 71.569 43.550, 75.505 37.500 C 96.036 5.939, 99 1.293, 99 0.673 C 99 0.303, 76.725 0, 49.500 0 L 0 0 0 100 M 103.655 1.250 C 161.515 94.814, 158.439 88.737, 158.443 109.500 C 158.446 122.313, 158.221 124.068, 155.788 130.197 C 147.504 151.066, 130.153 165.455, 109.546 168.545 C 104.032 169.372, 104.163 168.960, 103.783 186.750 L 103.500 200.001 151.750 200 L 200 200 200 100 L 200 0 151.441 0 C 112.848 0, 103.041 0.257, 103.655 1.250 M 88.263 31.250 C 76.657 50.013, 74 54.503, 74 55.355 C 74 55.804, 77.423 60.070, 81.606 64.836 C 85.789 69.601, 90.402 75.178, 91.856 77.229 C 93.310 79.279, 94.838 80.967, 95.250 80.979 C 95.662 80.990, 96 67.275, 96 50.500 C 96 33.725, 95.825 20, 95.611 20 C 95.397 20, 92.090 25.063, 88.263 31.250 M 104 50.500 C 104 66.725, 104.166 80, 104.368 80 C 104.825 80, 118.585 63.798, 122.283 58.906 C 123.777 56.929, 125 54.719, 125 53.994 C 125 52.360, 105.784 21.083, 104.750 21.035 C 104.338 21.016, 104 34.275, 104 50.500 M 127.379 65.262 C 126.213 67.043, 120.510 74.434, 114.705 81.686 L 104.151 94.871 103.839 103.186 C 103.373 115.576, 103.879 126.211, 104.917 125.833 C 105.689 125.553, 113.243 117.081, 138.858 87.773 C 140.990 85.332, 142.036 83.245, 141.724 82.051 C 141.140 79.819, 130.723 62.024, 130 62.025 C 129.725 62.025, 128.546 63.482, 127.379 65.262 M 62.714 72.363 C 59.571 77.512, 57 82.057, 57 82.462 C 57 82.866, 63.879 90.915, 72.286 100.349 C 80.693 109.782, 89.093 119.412, 90.953 121.750 C 92.813 124.088, 94.740 126, 95.236 126 C 95.747 126, 95.999 119.140, 95.819 110.174 L 95.500 94.349 82.500 78.740 C 75.350 70.156, 69.259 63.102, 68.964 63.066 C 68.669 63.030, 65.856 67.213, 62.714 72.363 M 50.812 96.250 C 48.846 102.851, 49.139 120.430, 51.324 126.913 C 55.118 138.175, 64.662 149.409, 75.215 155.034 C 80.149 157.664, 92.618 162, 95.247 162 C 95.661 162, 96 157.102, 96 151.116 L 96 140.232 77.750 119.337 C 67.713 107.846, 58.292 96.993, 56.815 95.221 C 55.338 93.450, 53.667 92, 53.103 92 C 52.539 92, 51.508 93.912, 50.812 96.250 M 140.500 99.232 C 137.200 103.188, 127.638 114.454, 119.250 124.269 L 104 142.113 104 151.498 C 104 156.659, 104.427 161.146, 104.949 161.468 C 105.470 161.791, 108.058 161.523, 110.699 160.873 C 127.933 156.632, 141.778 144.546, 148.085 128.236 C 150.924 120.894, 151.711 106.928, 149.757 98.562 C 148.994 95.296, 147.949 92.492, 147.435 92.332 C 146.921 92.172, 143.800 95.277, 140.500 99.232" stroke="none" fill="black" fill-rule="evenodd"/>
</svg>