<?xml version="1.0" standalone="no"?>
<!DOCTYPE svg PUBLIC "-//W3C//DTD SVG 20010904//EN"
 "http://www.w3.org/TR/2001/REC-SVG-20010904/DTD/svg10.dtd">
<svg version="1.0" xmlns="http://www.w3.org/2000/svg"
 width="200.000000pt" height="200.000000pt" viewBox="0 0 200.000000 200.000000"
 preserveAspectRatio="xMidYMid meet">
<metadata>
Created by potrace 1.16, written by Peter Selinger 2001-2019
</metadata>
<g transform="translate(0.000000,200.000000) scale(0.100000,-0.100000)"
fill="currentColor" stroke="none">
<path d="M630 1815 l0 -64 -127 -3 -128 -3 -3 -57 -3 -57 -57 -3 -57 -3 -3
-127 -3 -128 -64 0 -65 0 0 -385 0 -385 65 0 65 0 0 -65 0 -65 60 0 60 0 0
-65 0 -65 65 0 64 0 3 -63 3 -62 123 -3 122 -3 0 -59 0 -60 265 0 265 0 0 60
0 59 123 3 122 3 3 63 3 62 64 0 65 0 0 65 0 64 63 3 62 3 3 122 3 123 59 0
60 0 0 265 0 265 -60 0 -59 0 -3 123 -3 122 -62 3 -63 3 0 64 0 65 -65 0 -65
0 0 60 0 60 -65 0 -65 0 0 65 0 65 -385 0 -385 0 0 -65z m760 -270 l0 -65 65
0 65 0 0 -125 0 -125 60 0 60 0 0 -245 0 -245 -55 0 -55 0 0 125 0 125 -135 0
-135 0 0 -60 0 -59 -62 -3 -63 -3 0 -63 0 -62 -120 0 -120 0 3 60 c4 56 3 59
-22 66 -14 3 -44 4 -66 2 l-40 -4 0 63 0 63 -135 0 -135 0 0 -130 0 -130 -50
0 -50 0 0 -55 0 -55 55 0 55 0 0 50 0 50 60 0 60 0 0 -60 0 -60 380 0 380 0 0
-60 0 -60 -65 0 -65 0 0 -60 0 -60 -245 0 -245 0 0 60 0 60 -125 0 -125 0 0
65 0 65 -65 0 -65 0 0 375 0 375 65 0 65 0 0 60 0 60 60 0 60 0 0 65 0 65 375
0 375 0 0 -65z m130 -880 l0 -55 -60 0 -60 0 0 55 0 55 60 0 60 0 0 -55z
M1270 1545 l0 -55 55 0 55 0 0 55 0 55 -55 0 -55 0 0 -55z M630 1235 l0 -136
133 3 132 3 3 133 3 132 -136 0 -135 0 0 -135z M1132 1238 l3 -133 133 -3 132
-3 0 136 0 135 -135 0 -136 0 3 -132z"/>
</g>
</svg>
