<?xml version="1.0" standalone="no"?>
<!DOCTYPE svg PUBLIC "-//W3C//DTD SVG 20010904//EN"
 "http://www.w3.org/TR/2001/REC-SVG-20010904/DTD/svg10.dtd">
<svg version="1.0" xmlns="http://www.w3.org/2000/svg"
 width="200.000000pt" height="200.000000pt" viewBox="0 0 200.000000 200.000000"
 preserveAspectRatio="xMidYMid meet">
<metadata>
Created by potrace 1.16, written by Peter Selinger 2001-2019
</metadata>
<g transform="translate(0.000000,200.000000) scale(0.100000,-0.100000)"
fill="currentColor" stroke="none">
<path d="M847 1794 c-305 -55 -557 -305 -621 -617 -31 -150 -15 -334 41 -475
83 -208 290 -395 503 -456 419 -120 857 129 972 553 31 113 31 317 0 424 -89
311 -340 534 -648 577 -96 13 -150 12 -247 -6z m286 -119 c86 -18 195 -71 269
-130 300 -237 335 -713 73 -994 -262 -282 -686 -291 -956 -22 -129 130 -192
287 -192 481 0 127 18 203 75 320 81 166 259 306 438 344 86 19 209 19 293 1z
M685 1414 c-150 -53 -203 -218 -101 -313 l25 -24 -24 -31 c-32 -43 -55 -98
-55 -136 0 -73 95 -108 145 -54 33 35 32 71 -5 143 l-29 59 36 -10 c148 -41
312 109 274 250 -13 48 -63 97 -120 117 -53 18 -93 18 -146 -1z m179 -235
c-28 -31 -85 -57 -141 -65 -80 -10 -73 11 14 44 110 42 106 40 127 41 19 1 19
1 0 -20z M1168 1420 c-91 -27 -133 -87 -126 -181 9 -127 136 -220 267 -193
l49 10 -22 -35 c-55 -90 -59 -130 -17 -172 57 -56 141 -21 141 59 0 38 -36
121 -65 151 -11 11 -9 17 15 37 38 33 63 97 55 145 -21 125 -173 216 -297 179z
m33 -240 c35 -11 80 -29 99 -39 30 -17 32 -20 17 -27 -42 -16 -197 44 -197 76
0 14 9 13 81 -10z M862 875 c-73 -21 -107 -40 -165 -94 -95 -88 -124 -165 -77
-203 40 -32 55 -24 124 72 38 54 129 104 204 115 114 15 240 -40 303 -134 43
-65 62 -77 95 -62 63 28 48 97 -41 190 -82 86 -168 123 -294 128 -64 2 -114
-2 -149 -12z"/>
</g>
</svg>
