<?xml version="1.0" standalone="no"?>
<!DOCTYPE svg PUBLIC "-//W3C//DTD SVG 20010904//EN"
 "http://www.w3.org/TR/2001/REC-SVG-20010904/DTD/svg10.dtd">
<svg version="1.0" xmlns="http://www.w3.org/2000/svg"
 width="200.000000pt" height="200.000000pt" viewBox="0 0 200.000000 200.000000"
 preserveAspectRatio="xMidYMid meet">
<metadata>
Created by potrace 1.16, written by Peter Selinger 2001-2019
</metadata>
<g transform="translate(0.000000,200.000000) scale(0.100000,-0.100000)"
fill="currentColor" stroke="none">
<path d="M875 1820 c-306 -49 -569 -280 -665 -585 -28 -90 -38 -268 -20 -368
58 -329 295 -586 615 -668 110 -28 280 -28 390 0 100 26 240 96 322 162 377
300 407 875 63 1220 -152 153 -335 234 -549 244 -53 2 -123 0 -156 -5z m305
-124 c30 -9 91 -33 135 -55 183 -91 313 -247 376 -451 30 -95 32 -260 6 -360
-68 -254 -249 -441 -507 -521 -95 -30 -260 -32 -360 -6 -257 67 -458 269 -527
527 -21 80 -23 253 -4 330 30 121 120 279 208 362 95 90 242 165 365 188 70
12 239 4 308 -14z M677 1314 c-67 -67 -23 -184 69 -184 60 0 114 73 98 134
-18 74 -115 103 -167 50z M1204 1325 c-54 -37 -55 -125 -3 -169 35 -30 67 -33
109 -11 37 19 50 43 50 95 0 57 -42 100 -97 100 -21 0 -48 -7 -59 -15z M576
884 c-28 -27 -19 -62 28 -112 168 -180 462 -217 683 -86 125 74 187 165 137
201 -30 22 -52 15 -108 -36 -110 -100 -206 -136 -345 -129 -109 5 -192 41
-280 122 -63 58 -89 67 -115 40z"/>
</g>
</svg>
