<?xml version="1.0" standalone="no"?>
<!DOCTYPE svg PUBLIC "-//W3C//DTD SVG 20010904//EN"
 "http://www.w3.org/TR/2001/REC-SVG-20010904/DTD/svg10.dtd">
<svg version="1.0" xmlns="http://www.w3.org/2000/svg"
 width="200.000000pt" height="200.000000pt" viewBox="0 0 200.000000 200.000000"
 preserveAspectRatio="xMidYMid meet">

<g transform="translate(0.000000,200.000000) scale(0.100000,-0.100000)"
fill="currentColor" stroke="none">
<path d="M862 1810 c-254 -46 -477 -217 -592 -455 -60 -124 -80 -212 -80 -352
0 -317 168 -591 445 -729 129 -64 224 -86 365 -86 138 0 235 22 355 82 170 84
293 205 370 365 59 122 76 188 82 335 4 106 2 139 -16 215 -69 292 -293 525
-581 605 -87 24 -267 34 -348 20z m314 -106 c200 -51 382 -200 475 -389 54
-111 72 -189 72 -315 0 -286 -161 -537 -424 -660 -198 -92 -435 -86 -630 16
-329 173 -481 569 -346 902 41 103 88 172 172 257 154 154 326 221 536 209 48
-2 113 -11 145 -20z"/>
<path d="M720 1333 c-101 -38 -81 -193 25 -193 84 0 124 110 62 168 -24 23
-64 34 -87 25z"/>
<path d="M1225 1326 c-60 -26 -73 -109 -26 -157 38 -38 88 -40 124 -4 51 51
37 134 -27 160 -41 18 -34 17 -71 1z"/>
<path d="M582 878 c-25 -25 -13 -59 41 -111 127 -125 332 -180 507 -138 77 19
183 76 246 133 62 57 73 82 48 109 -27 29 -49 23 -108 -30 -111 -101 -208
-137 -347 -129 -110 7 -191 42 -278 122 -61 56 -87 66 -109 44z"/>
</g>
</svg>
