<svg xmlns="http://www.w3.org/2000/svg" width="100%" height="auto" viewBox="0 0 200 200" version="1.1" preserveAspectRatio="xMidYMid meet" style="max-width: 100%; max-height: 70vh;">
	<path d="M -0 100.005 L -0 200.010 100.250 199.755 L 200.500 199.500 200.755 99.750 L 201.010 0 100.505 0 L 0 0 -0 100.005 M 0.481 100.500 C 0.481 155.500, 0.602 178.147, 0.750 150.826 C 0.898 123.506, 0.898 78.506, 0.750 50.826 C 0.602 23.147, 0.481 45.500, 0.481 100.500 M 92.500 18.615 C 85.758 19.259, 76.658 21.105, 73.500 22.470 C 63.303 26.879, 59.876 28.669, 54.562 32.368 C 44.607 39.295, 35.883 48.738, 29.205 59.816 C 27.442 62.740, 26 65.751, 26 66.507 C 26 67.263, 25.612 68.122, 25.137 68.415 C 24.663 68.709, 23.707 71.098, 23.013 73.724 C 22.320 76.351, 21.133 80.428, 20.376 82.785 C 17.991 90.212, 18.571 108.436, 21.570 120.319 C 22.984 125.918, 24.559 130.928, 25.070 131.450 C 25.582 131.973, 26 133.210, 26 134.200 C 26 135.190, 26.382 136, 26.848 136 C 27.315 136, 28.551 137.912, 29.596 140.250 C 32.388 146.496, 44.548 160.471, 51.627 165.568 C 53.207 166.706, 56.525 168.731, 59 170.068 C 61.475 171.406, 63.725 172.726, 64 173.002 C 68.310 177.325, 94.537 182.699, 105.275 181.459 C 118.954 179.878, 136 175.050, 136 172.756 C 136 172.340, 136.493 172, 137.095 172 C 140.860 172, 160.317 155.697, 165.738 148 C 169.267 142.990, 174 134.728, 174 133.579 C 174 132.930, 174.442 131.958, 174.983 131.417 C 177.365 129.035, 181 110.055, 181 100 C 181 61.373, 153.116 27.098, 116 20.104 C 109.216 18.826, 97.844 18.105, 92.500 18.615 M 82.478 28.838 C 70.910 32.219, 57.259 39.910, 49.762 47.271 C 45.991 50.974, 38 61.456, 38 62.700 C 38 63.415, 37.627 64, 37.171 64 C 36.217 64, 32.675 71.627, 30.902 77.500 C 30.237 79.700, 29.021 83.427, 28.199 85.783 C 25.777 92.718, 27.549 113.336, 31.526 124.500 C 33.456 129.917, 36.446 136, 37.178 136 C 37.630 136, 38 136.567, 38 137.261 C 38 140.869, 53.099 156.680, 60.500 160.821 C 62.150 161.745, 63.725 162.785, 64 163.134 C 64.275 163.483, 66.525 164.690, 69 165.816 C 85.626 173.379, 102.725 174.778, 119.389 169.936 C 126.410 167.896, 135.028 164.367, 136 163.134 C 136.275 162.785, 137.850 161.745, 139.500 160.821 C 146.498 156.906, 157.185 146.118, 161.118 139 C 161.878 137.625, 162.731 136.275, 163.013 136 C 164.042 134.999, 167.894 126.398, 169.060 122.500 C 169.717 120.300, 170.674 117.409, 171.186 116.075 C 171.698 114.742, 172.383 108.347, 172.709 101.864 C 173.171 92.676, 172.966 89.132, 171.780 85.789 C 170.944 83.430, 169.676 79.475, 168.963 77 C 167.562 72.138, 163.965 64.707, 162.750 64.167 C 162.338 63.983, 162 63.196, 162 62.417 C 162 61.637, 161.550 61, 161 61 C 160.450 61, 160 60.545, 160 59.990 C 160 56.930, 143.178 40, 140.138 40 C 139.512 40, 139 39.547, 139 38.992 C 139 37.777, 129.251 32.974, 123 31.109 C 120.525 30.371, 117.150 29.334, 115.500 28.805 C 113.850 28.276, 107.100 27.672, 100.500 27.461 C 91.125 27.162, 87.183 27.463, 82.478 28.838 M 120.728 69.073 C 117.581 71.667, 117 72.756, 117 76.064 C 117 80.894, 121.662 86, 126.072 86 C 129.627 86, 134.607 81.824, 135.299 78.261 C 136.012 74.593, 133.649 69.814, 130.080 67.706 C 126.124 65.369, 125.026 65.530, 120.728 69.073 M 68.174 69.314 C 66.593 70.998, 66 72.882, 66 76.226 C 66 80.168, 66.455 81.205, 69.195 83.510 C 75.344 88.685, 83 84.752, 83 76.418 C 83 73.951, 82.366 71.508, 81.500 70.643 C 80.675 69.818, 80 68.661, 80 68.071 C 80 67.458, 77.939 67, 75.174 67 C 71.423 67, 69.865 67.515, 68.174 69.314 M 58.571 112.571 C 56.070 115.073, 56.720 117.873, 60.750 121.957 C 64.904 126.166, 76.551 134, 78.655 134 C 79.395 134, 80 134.381, 80 134.847 C 80 135.313, 84.518 136.488, 90.040 137.458 C 99.600 139.137, 100.545 139.138, 109.790 137.483 C 115.131 136.526, 119.725 135.464, 120 135.122 C 120.275 134.780, 122.610 133.507, 125.188 132.293 C 127.767 131.079, 130.890 129.279, 132.128 128.293 C 136.046 125.173, 144 117.077, 144 116.210 C 144 114.808, 140.008 111, 138.538 111 C 137.777 111, 135.856 112.237, 134.269 113.750 C 123.086 124.410, 112.231 129.270, 100 129.093 C 93.815 129.004, 81.064 126.370, 80 124.961 C 79.725 124.597, 78.417 123.729, 77.094 123.031 C 74.677 121.757, 72.854 120.257, 66.416 114.250 C 62.526 110.620, 60.876 110.267, 58.571 112.571" stroke="none" fill="black" fill-rule="evenodd"/>
</svg>