<?xml version="1.0" standalone="no"?>
<!DOCTYPE svg PUBLIC "-//W3C//DTD SVG 20010904//EN"
 "http://www.w3.org/TR/2001/REC-SVG-20010904/DTD/svg10.dtd">
<svg version="1.0" xmlns="http://www.w3.org/2000/svg"
 width="200.000000pt" height="200.000000pt" viewBox="0 0 200.000000 200.000000"
 preserveAspectRatio="xMidYMid meet">
<metadata>
Created by potrace 1.16, written by Peter Selinger 2001-2019
</metadata>
<g transform="translate(0.000000,200.000000) scale(0.100000,-0.100000)"
fill="currentColor" stroke="none">
<path d="M830 1785 c-288 -59 -521 -274 -612 -565 -20 -65 -23 -95 -23 -230 1
-149 2 -159 33 -250 46 -133 101 -221 201 -321 101 -101 193 -158 323 -202 87
-29 102 -31 243 -32 130 0 160 3 225 23 295 93 502 311 572 601 27 115 22 310
-12 416 -72 228 -259 432 -472 518 -138 55 -331 72 -478 42z m279 -110 c71 -8
195 -54 266 -100 304 -194 408 -564 250 -890 -173 -360 -636 -498 -983 -293
-86 50 -211 180 -254 263 -64 124 -83 203 -82 345 0 107 4 137 27 205 43 131
109 228 215 317 101 85 238 144 367 158 69 7 88 6 194 -5z M665 1227 c-83 -29
-156 -56 -163 -60 -18 -12 -14 -62 6 -80 27 -25 43 -22 207 33 147 49 175 65
175 102 0 23 -35 58 -57 57 -10 0 -86 -24 -168 -52z M1124 1255 c-12 -18 -14
-32 -7 -52 8 -26 23 -33 163 -80 171 -57 191 -60 214 -37 19 19 21 68 4 81
-17 13 -318 113 -340 113 -10 0 -25 -11 -34 -25z M903 880 c-122 -22 -252 -97
-313 -181 -35 -49 -36 -59 -12 -89 31 -38 66 -29 124 30 32 32 78 65 117 84
62 29 73 31 181 31 109 0 119 -2 183 -32 42 -20 87 -52 118 -84 54 -56 85 -65
119 -34 30 27 24 57 -22 110 -55 62 -145 120 -223 144 -75 23 -202 33 -272 21z"/>
</g>
</svg>
