<?xml version="1.0" standalone="no"?>
<!DOCTYPE svg PUBLIC "-//W3C//DTD SVG 20010904//EN"
 "http://www.w3.org/TR/2001/REC-SVG-20010904/DTD/svg10.dtd">
<svg version="1.0" xmlns="http://www.w3.org/2000/svg"
 width="200.000000pt" height="200.000000pt" viewBox="0 0 200.000000 200.000000"
 preserveAspectRatio="xMidYMid meet">
<metadata>
Created by potrace 1.16, written by Peter Selinger 2001-2019
</metadata>
<g transform="translate(0.000000,200.000000) scale(0.100000,-0.100000)"
fill="currentColor" stroke="none">
<path d="M832 1784 c-318 -69 -564 -348 -600 -680 -48 -439 237 -819 663 -884
367 -56 741 192 845 562 27 97 36 255 20 355 -41 259 -197 473 -424 583 -60
29 -132 55 -178 64 -93 19 -240 19 -326 0z m367 -130 c98 -31 164 -70 241
-140 96 -90 162 -198 196 -324 23 -88 24 -263 1 -350 -50 -191 -184 -359 -349
-439 -188 -91 -383 -94 -563 -7 -238 113 -371 316 -382 581 -6 142 12 230 72
353 142 286 475 425 784 326z M795 1328 c-27 -17 -96 -53 -152 -80 -55 -27
-106 -55 -113 -63 -18 -21 -8 -56 22 -78 l27 -20 86 38 c109 48 213 113 239
148 19 26 19 30 5 55 -21 38 -55 38 -114 0z M1088 1335 c-17 -37 5 -75 63
-114 55 -36 247 -131 265 -131 22 0 64 42 64 65 0 30 -11 38 -148 106 -64 31
-130 67 -147 78 -42 29 -82 28 -97 -4z M581 1049 c-56 -77 -64 -146 -21 -189
48 -48 140 -7 140 63 0 37 -40 125 -70 152 -18 16 -20 15 -49 -26z M1354 1057
c-59 -88 -69 -145 -33 -191 16 -20 29 -26 58 -26 66 0 104 56 82 123 -13 37
-69 127 -79 127 -4 0 -17 -15 -28 -33z M872 874 c-66 -17 -96 -33 -159 -82
-118 -94 -152 -222 -58 -222 30 0 38 6 70 54 77 116 215 167 356 132 80 -20
131 -56 187 -129 47 -62 83 -74 115 -39 22 24 21 44 -2 90 -45 87 -167 177
-272 201 -62 15 -174 12 -237 -5z"/>
</g>
</svg>
