<?xml version="1.0" standalone="no"?>
<!DOCTYPE svg PUBLIC "-//W3C//DTD SVG 20010904//EN"
 "http://www.w3.org/TR/2001/REC-SVG-20010904/DTD/svg10.dtd">
<svg version="1.0" xmlns="http://www.w3.org/2000/svg"
 width="200.000000pt" height="200.000000pt" viewBox="0 0 200.000000 200.000000"
 preserveAspectRatio="xMidYMid meet">
<metadata>
Created by potrace 1.16, written by Peter Selinger 2001-2019
</metadata>
<g transform="translate(0.000000,200.000000) scale(0.100000,-0.100000)"
fill="currentColor" stroke="none">
<path d="M857 1785 c-402 -76 -683 -458 -637 -865 22 -193 89 -336 224 -479
256 -270 680 -317 983 -110 227 155 353 396 353 674 0 306 -156 567 -422 705
-145 76 -341 105 -501 75z m353 -134 c345 -118 536 -487 434 -837 -36 -125
-83 -205 -178 -300 -130 -130 -282 -194 -462 -194 -378 0 -676 301 -676 685 0
314 208 584 508 660 90 22 289 15 374 -14z M681 1240 c-155 -65 -180 -80 -181
-106 0 -18 40 -64 56 -64 27 0 326 130 340 147 28 37 6 94 -34 92 -9 0 -91
-31 -181 -69z M1107 1292 c-20 -22 -21 -51 -3 -75 14 -18 308 -147 337 -147 8
0 26 11 39 25 20 21 22 30 14 51 -8 23 -34 37 -174 95 -91 37 -172 68 -181 68
-9 1 -23 -7 -32 -17z M925 880 c-114 -15 -213 -68 -292 -153 -47 -51 -60 -87
-47 -126 7 -19 17 -27 40 -29 26 -3 37 5 82 57 37 43 71 69 118 92 161 79 372
35 469 -99 44 -61 108 -70 121 -16 10 39 -3 69 -56 127 -101 111 -272 168
-435 147z"/>
</g>
</svg>
