<svg xmlns="http://www.w3.org/2000/svg" width="100%" height="auto" viewBox="0 0 200 200" version="1.1" preserveAspectRatio="xMidYMid meet" style="max-width: 100%; max-height: 70vh;">
	<path d="M -0 100.005 L -0 200.010 100.250 199.755 L 200.500 199.500 200.755 99.750 L 201.010 0 100.505 0 L 0 0 -0 100.005 M 0.481 100.500 C 0.481 155.500, 0.602 178.147, 0.750 150.826 C 0.898 123.506, 0.898 78.506, 0.750 50.826 C 0.602 23.147, 0.481 45.500, 0.481 100.500 M 94.612 8.848 C 80.756 27.723, 79.844 48.850, 92.188 65 C 96.769 70.994, 96.574 69.826, 96.076 88.250 C 95.917 94.162, 95.469 99, 95.082 99 C 94.695 99, 93.783 96.637, 93.057 93.750 C 89.473 79.510, 79.645 68.857, 65.672 64.065 C 58.977 61.769, 51.340 60.641, 50.600 61.838 C 49.629 63.409, 53.678 77.419, 57.010 84.020 C 64.126 98.117, 73.556 104.482, 93.250 108.480 L 96 109.038 96 128.578 C 96 139.325, 95.611 147.877, 95.135 147.583 C 94.659 147.289, 94.039 145.325, 93.756 143.219 C 92.383 132.983, 81.426 118.678, 70.487 112.838 C 65.050 109.936, 55.168 107.628, 50.467 108.163 C 47.698 108.478, 47.505 108.774, 47.577 112.619 C 47.691 118.772, 53.668 130.448, 60.459 137.783 C 67.318 145.191, 78.667 151.275, 89.250 153.217 L 96 154.456 96.009 169.478 C 96.020 189.444, 96.702 195, 99.139 195 C 100.825 195, 101.011 194.035, 101.117 184.750 C 101.182 179.113, 101.520 170.044, 101.867 164.597 L 102.500 154.695 110.407 152.833 C 122.086 150.083, 130.046 145.774, 136.811 138.543 C 143.062 131.860, 149.501 120.082, 150.560 113.395 L 151.209 109.289 147.355 108.674 C 141.824 107.791, 131.647 110.462, 124.878 114.574 C 117.191 119.244, 108.625 128.882, 104.564 137.431 L 101.271 144.362 101.502 126.931 C 101.629 117.344, 101.793 109.162, 101.867 108.750 C 101.940 108.338, 103.247 108, 104.772 108 C 109.181 108, 120.344 104.575, 125.191 101.734 C 136.453 95.134, 144.541 82.069, 147.564 65.593 L 148.281 61.686 141.100 62.288 C 133.012 62.966, 125.337 66.040, 118.891 71.184 C 113.519 75.471, 105.564 86.785, 103.452 93.145 C 102.541 95.887, 101.650 97.984, 101.472 97.805 C 101.293 97.627, 101.406 91.309, 101.722 83.765 L 102.297 70.050 106.080 65.016 C 111.867 57.314, 114 50.558, 114 39.930 C 114 32.293, 113.544 29.770, 110.980 23.218 C 107.953 15.481, 101.490 4.935, 99.368 4.268 C 98.745 4.072, 96.605 6.133, 94.612 8.848" stroke="none" fill="black" fill-rule="evenodd"/>
</svg>