<?xml version="1.0" standalone="no"?>
<!DOCTYPE svg PUBLIC "-//W3C//DTD SVG 20010904//EN"
 "http://www.w3.org/TR/2001/REC-SVG-20010904/DTD/svg10.dtd">
<svg version="1.0" xmlns="http://www.w3.org/2000/svg"
 width="200.000000pt" height="200.000000pt" viewBox="0 0 200.000000 200.000000"
 preserveAspectRatio="xMidYMid meet">

<g transform="translate(0.000000,200.000000) scale(0.100000,-0.100000)"
fill="#000000" stroke="none">
<path d="M961 1925 c-36 -42 -81 -127 -106 -204 -14 -42 -16 -75 -13 -145 6
-112 32 -169 128 -283 7 -8 7 -26 0 -55 -5 -24 -10 -90 -10 -148 0 -59 -4
-100 -9 -95 -4 6 -18 42 -30 81 -49 166 -189 284 -358 301 -52 6 -53 5 -53
-20 0 -86 91 -272 163 -333 47 -40 148 -84 221 -97 63 -11 65 -12 71 -46 4
-20 3 -121 -1 -226 -8 -183 -8 -188 -20 -130 -23 118 -52 175 -128 251 -96 96
-156 126 -265 132 l-84 5 6 -39 c4 -22 25 -77 48 -124 75 -150 187 -237 356
-276 43 -10 80 -19 82 -21 2 -2 6 -90 9 -195 4 -184 11 -223 34 -200 4 4 9 95
10 201 l3 194 90 24 c132 35 189 64 256 133 62 64 131 190 144 264 l6 39 -80
-5 c-63 -4 -93 -11 -143 -36 -113 -56 -207 -159 -253 -277 l-20 -50 -3 179
c-1 99 1 183 5 186 5 4 43 14 86 23 204 44 327 177 365 395 l9 52 -28 0 c-15
0 -52 -5 -81 -11 -157 -33 -257 -131 -346 -339 -8 -19 -10 12 -7 123 4 148 5
149 35 187 86 108 112 253 71 387 -19 63 -99 214 -120 227 -5 3 -23 -10 -40
-29z"/>
</g>
</svg>
