<?xml version="1.0" standalone="no"?>
<!DOCTYPE svg PUBLIC "-//W3C//DTD SVG 20010904//EN"
 "http://www.w3.org/TR/2001/REC-SVG-20010904/DTD/svg10.dtd">
<svg version="1.0" xmlns="http://www.w3.org/2000/svg"
 width="200.000000pt" height="200.000000pt" viewBox="0 0 200.000000 200.000000"
 preserveAspectRatio="xMidYMid meet">

<g transform="translate(0.000000,200.000000) scale(0.100000,-0.100000)"
fill="currentColor" stroke="none">
<path d="M935 1903 c-50 -46 -135 -125 -190 -175 -152 -138 -263 -248 -307
-303 -168 -209 -197 -528 -72 -776 88 -175 210 -286 385 -350 44 -16 104 -32
135 -35 l56 -7 -7 -128 -7 -129 35 0 34 0 5 120 c3 66 7 122 9 125 3 2 36 9
74 15 292 45 496 216 597 500 31 87 36 273 10 376 -43 170 -102 258 -352 524
-80 85 -176 190 -215 234 -38 43 -77 82 -85 86 -12 6 -39 -13 -105 -77z m120
-85 c72 -69 421 -460 452 -507 48 -72 93 -205 100 -295 7 -96 -17 -209 -67
-315 -74 -154 -221 -272 -395 -316 -32 -8 -74 -15 -92 -15 l-33 0 0 65 c0 50
4 69 18 83 75 72 321 303 349 326 57 49 66 88 21 99 -16 5 -58 -30 -194 -156
-96 -89 -179 -164 -186 -166 -8 -3 -9 26 -4 108 8 130 9 132 40 151 13 8 81
70 152 137 126 121 128 122 109 143 -10 11 -22 20 -27 20 -5 0 -61 -48 -124
-107 -63 -60 -120 -109 -127 -111 -9 -2 -11 24 -9 100 3 119 8 148 24 148 13
0 168 149 168 162 0 9 -30 38 -40 38 -5 0 -35 -22 -67 -50 -32 -27 -62 -50
-67 -50 -5 0 -7 61 -4 139 3 78 1 144 -4 149 -5 5 -20 7 -34 4 -24 -4 -24 -4
-25 -136 0 -72 -4 -140 -8 -150 -7 -17 -9 -17 -30 10 -12 16 -38 46 -57 67
-30 32 -38 36 -55 26 -39 -20 -32 -37 49 -126 58 -64 81 -96 83 -118 5 -70 -2
-205 -11 -205 -5 0 -22 15 -37 33 -16 17 -64 70 -109 116 -76 78 -82 83 -102
70 -12 -8 -22 -20 -22 -28 0 -13 120 -150 223 -254 l47 -48 0 -120 c0 -67 -4
-119 -8 -117 -5 2 -81 80 -171 173 -165 173 -194 193 -223 158 -9 -11 -5 -21
19 -46 16 -18 107 -114 202 -215 l172 -182 -2 -66 -2 -66 -36 6 c-309 49 -537
326 -517 626 9 137 52 251 130 351 43 55 484 478 499 479 4 0 19 -10 32 -22z"/>
</g>
</svg>
