<svg xmlns="http://www.w3.org/2000/svg" width="100%" height="auto" viewBox="0 0 200 200" version="1.1" preserveAspectRatio="xMidYMid meet" style="max-width: 100%; max-height: 70vh;">
	<path d="M 0 100 L 0 200 46.500 200 L 93 200 93.167 189.500 C 93.258 183.725, 93.371 178.225, 93.417 177.278 C 93.482 175.927, 91.564 175.069, 84.500 173.292 C 70.046 169.654, 60.004 164.054, 49.870 153.981 C 42.596 146.750, 40.524 143.918, 36.680 135.951 C 30.205 122.531, 28.589 115.765, 28.571 102 C 28.555 88.452, 30.203 81.180, 35.939 69.500 C 41.083 59.024, 48.733 50.112, 65.106 35.522 C 72.473 28.957, 83.956 18.279, 90.624 11.793 L 102.748 0 51.374 0 L 0 0 0 100 M 104 0.526 C 104 0.816, 111.537 9.174, 120.750 19.099 C 157.229 58.403, 161.383 63.595, 166.310 76.045 C 170.212 85.906, 171.236 91.461, 171.280 103 C 171.409 137.072, 148.258 165.664, 114.303 173.367 C 110.344 174.265, 105.732 175, 104.053 175 C 101.069 175, 101 175.109, 101 179.849 C 101 182.516, 100.709 188.141, 100.353 192.349 L 99.707 200 149.853 200 L 200 200 200 100 L 200 0 152 0 C 125.600 0, 104 0.237, 104 0.526 M 84.270 32.692 C 50.403 64.683, 46.677 69.262, 42.254 84.338 C 34.126 112.045, 46.659 142.364, 71.237 154.449 C 77.021 157.293, 90.891 162, 93.487 162 C 93.769 162, 93.991 158.963, 93.980 155.250 C 93.958 147.539, 97.296 151.999, 69.319 122.300 C 61.443 113.939, 55 106.454, 55 105.665 C 55 104.876, 56.104 103.506, 57.454 102.622 C 59.891 101.025, 59.979 101.087, 69.704 111.253 C 75.092 116.884, 82.929 125.054, 87.119 129.408 L 94.739 137.325 95.461 126.737 C 96.211 115.728, 95.795 112.346, 93.623 111.814 C 92.917 111.641, 90.170 109.025, 87.518 106 C 84.865 102.975, 79.389 96.986, 75.348 92.691 C 71.306 88.396, 68 84.458, 68 83.941 C 68 83.423, 68.910 82.090, 70.023 80.977 C 72.802 78.198, 73.743 78.861, 85.469 91.860 C 92.082 99.191, 95.695 102.505, 96.203 101.705 C 96.625 101.042, 96.976 95.918, 96.985 90.318 L 97 80.135 89 71.500 C 81.096 62.969, 79.856 60.544, 82.200 58.200 C 84.423 55.977, 86.389 56.973, 92.160 63.250 L 97.906 69.500 98.070 61 C 98.160 56.325, 98.519 49.575, 98.867 46 C 99.492 39.585, 99.539 39.500, 102.500 39.500 L 105.500 39.500 105.305 53.750 C 105.159 64.357, 105.419 68, 106.322 68 C 106.989 68, 109.849 65.975, 112.679 63.500 C 118.034 58.815, 119.783 58.183, 121.800 60.200 C 123.712 62.112, 123.209 64.257, 120.254 66.796 C 118.743 68.094, 114.581 71.933, 111.004 75.328 L 104.500 81.500 104.159 92.341 C 103.865 101.690, 104.030 103.135, 105.356 102.841 C 106.202 102.653, 110.406 99.147, 114.697 95.049 C 131.174 79.316, 129.682 80.402, 131.975 82.477 C 134.481 84.745, 134.538 86.484, 132.178 88.750 C 121.712 98.804, 107.417 111.679, 105.937 112.384 C 103.626 113.487, 102.771 118.784, 103.189 129.417 L 103.500 137.333 113.253 128.417 C 118.618 123.512, 126.838 115.950, 131.521 111.611 C 139.827 103.915, 140.084 103.766, 142.018 105.516 C 143.108 106.503, 144 108.089, 144 109.041 C 144 109.993, 137.366 117.011, 129.257 124.636 C 99.519 152.600, 102.878 148.647, 102.255 156.413 L 101.708 163.228 107.104 162.519 C 121.017 160.690, 136.670 152.726, 145.040 143.217 C 164.172 121.482, 165.301 88.102, 147.676 65.240 C 143.290 59.550, 104.941 17.700, 103.033 16.520 C 102.487 16.183, 94.044 23.460, 84.270 32.692" stroke="none" fill="black" fill-rule="evenodd"/>
</svg>