<svg xmlns="http://www.w3.org/2000/svg" width="100%" height="auto" viewBox="0 0 200 200" version="1.1" preserveAspectRatio="xMidYMid meet" style="max-width: 100%; max-height: 70vh;">
	<path d="M 0 100 L 0 200 48.250 200.001 L 96.500 200.003 96.202 184.001 L 95.905 168 84.702 167.992 C 63.720 167.978, 53.708 164.802, 41.779 154.375 C 30.395 144.425, 28.734 140.852, 34.262 138.203 C 37.704 136.553, 37.684 135.743, 34.061 130.088 C 29.270 122.610, 24.716 112.042, 24.604 108.140 L 24.500 104.500 30.750 104.674 C 34.187 104.769, 37 104.454, 37 103.973 C 37 103.491, 36.380 100.713, 35.623 97.799 C 34.866 94.884, 33.929 89.323, 33.541 85.441 C 32.542 75.448, 34.432 74.282, 44.617 78.604 C 45.383 78.929, 45.881 75.782, 46.201 68.592 C 46.684 57.734, 47.672 55, 51.115 55 C 52.143 55, 54.176 56.337, 55.633 57.972 C 57.089 59.607, 58.599 60.748, 58.988 60.507 C 59.377 60.267, 59.991 55.906, 60.352 50.816 C 61.202 38.853, 62.024 37.912, 69.070 40.840 L 74.255 42.995 73.498 38.748 C 71.378 26.837, 73.204 23.764, 81.062 26.018 C 87.279 27.801, 87.908 27.010, 93.951 9.830 C 95.628 5.062, 97 0.899, 97 0.580 C 97 0.261, 75.175 0, 48.500 0 L 0 0 0 100 M 103 0.516 C 103 3.024, 110.762 23.006, 112.413 24.749 C 114.326 26.769, 114.870 26.875, 117.736 25.794 C 119.948 24.958, 121.783 24.888, 123.714 25.562 C 126.999 26.710, 127.723 30.367, 126.139 37.799 C 125.590 40.370, 125.284 42.617, 125.458 42.791 C 125.632 42.965, 127.288 42.185, 129.137 41.058 C 133.612 38.329, 136.824 38.400, 137.894 41.250 C 138.358 42.487, 139.068 47.100, 139.472 51.500 C 139.876 55.900, 140.413 59.839, 140.665 60.254 C 140.917 60.668, 142.280 59.632, 143.695 57.950 C 145.574 55.718, 146.974 54.975, 148.884 55.196 C 151.210 55.466, 151.642 56.165, 152.779 61.500 C 153.482 64.800, 153.839 70.295, 153.570 73.710 L 153.083 79.920 156.291 77.964 C 158.056 76.888, 160.963 76.006, 162.750 76.004 L 166 76 166 82.770 C 166 86.511, 165.088 92.832, 163.961 96.898 C 162.840 100.945, 162.105 104.439, 162.329 104.662 C 162.553 104.886, 164.651 104.639, 166.991 104.113 C 171.249 103.157, 173.955 103.544, 175.121 105.278 C 176.689 107.609, 170.558 123.142, 164.941 131.070 C 162.156 135.001, 162.245 136.095, 165.500 137.951 C 167.150 138.892, 168.637 140.370, 168.805 141.236 C 169.241 143.484, 157.559 155.649, 150.675 160.117 C 143.007 165.093, 133.629 167.146, 117.653 167.345 L 105.258 167.500 104.635 175.500 C 104.292 179.900, 104.009 187.213, 104.006 191.750 L 104 200 152 200 L 200 200 200 100 L 200 0 151.500 0 C 124.825 0, 103 0.232, 103 0.516 M 97.517 26.380 C 94.791 31.032, 90.149 34, 85.599 34 C 84.169 34, 82.975 34.337, 82.945 34.750 C 82.914 35.163, 82.710 38.650, 82.491 42.500 C 81.908 52.758, 80.929 55.434, 77.619 55.823 C 76.108 56, 73.791 55.438, 72.471 54.573 C 71.150 53.708, 69.891 53, 69.672 53 C 69.453 53, 69.048 55.813, 68.772 59.251 C 68.218 66.148, 64.433 74.932, 62 74.966 C 61.175 74.978, 59.196 74.307, 57.601 73.476 C 56.007 72.645, 54.583 72.085, 54.437 72.232 C 54.291 72.379, 54.631 76.437, 55.193 81.250 C 55.755 86.062, 55.955 90.675, 55.638 91.500 C 54.903 93.416, 50.956 93.434, 48.441 91.532 C 45.804 89.537, 44 89.635, 44 91.773 C 44 92.748, 45.135 98.022, 46.523 103.492 C 47.911 108.962, 48.825 114.014, 48.554 114.719 C 47.972 116.236, 43.180 116.399, 39.565 115.025 C 37.780 114.346, 37 114.382, 37 115.145 C 37 115.747, 40.150 121.563, 44 128.069 C 51.225 140.278, 52.064 142.654, 49.500 143.638 C 47.312 144.478, 47.666 147.345, 50.250 149.715 C 57.950 156.779, 76.785 160.749, 91.250 158.358 L 95 157.738 95 146.049 L 95 134.360 78.250 128.561 C 60.059 122.264, 56 120.503, 56 118.909 C 56 116.789, 58.123 114, 59.736 114 C 61.062 114, 87.459 122.320, 93.557 124.660 C 94.763 125.123, 95 123.319, 95 113.686 L 95 102.159 91.843 101.466 C 87.867 100.592, 71.812 94.170, 70.577 92.959 C 69.099 91.510, 71.673 87, 73.979 87 C 75.090 87, 80.154 88.336, 85.231 89.969 C 90.309 91.601, 94.798 92.602, 95.207 92.193 C 95.617 91.783, 96.075 83.360, 96.226 73.474 L 96.500 55.500 100 55.500 L 103.500 55.500 104 73.670 C 104.275 83.663, 104.725 92.048, 105 92.302 C 105.275 92.557, 110.225 91.249, 116 89.397 L 126.500 86.028 128.250 88.125 C 129.213 89.278, 130 90.871, 130 91.666 C 130 93.292, 122.985 96.619, 112.368 100.028 L 105.235 102.318 104.529 112.271 C 104.064 118.832, 104.183 122.583, 104.877 123.277 C 105.960 124.360, 105.968 124.358, 130.500 116.669 C 136.550 114.772, 141.838 113.422, 142.250 113.669 C 142.662 113.916, 143 115.611, 143 117.436 C 143 120.443, 142.555 120.944, 138.250 122.781 C 135.637 123.896, 127.090 126.989, 119.256 129.654 L 105.013 134.500 105.006 146.137 L 105 157.773 108.250 158.315 C 113.657 159.216, 133.263 158.283, 137 156.946 C 141.804 155.227, 150.675 149.291, 151.447 147.277 C 151.825 146.293, 151.458 145.276, 150.541 144.763 C 148.110 143.403, 148.723 139.887, 152.334 134.487 C 155.894 129.160, 163 116.677, 163 115.749 C 163 115.441, 160.300 115.434, 157 115.734 C 149.947 116.373, 150.092 116.760, 153.130 105.438 C 155.877 95.204, 156.887 89.991, 156.116 90.035 C 155.777 90.055, 154.375 90.714, 153 91.500 C 149.875 93.286, 145.096 93.415, 144.450 91.730 C 144.182 91.032, 144.327 86.307, 144.773 81.230 C 145.218 76.154, 145.296 72, 144.946 72 C 144.596 72, 143.495 72.900, 142.500 74 C 139.534 77.277, 137.280 76.488, 134.641 71.250 C 131.917 65.842, 129.749 56.818, 130.625 54.535 C 131.424 52.452, 130.316 52.606, 127.273 55 C 125.874 56.100, 123.701 57, 122.443 57 C 119.420 57, 117.687 51.861, 117.566 42.538 C 117.476 35.642, 117.447 35.571, 114.488 34.956 C 107.773 33.560, 102 28.882, 102 24.837 C 102 21.386, 100.051 22.057, 97.517 26.380" stroke="none" fill="black" fill-rule="evenodd"/>
</svg>