<?xml version="1.0" standalone="no"?>
<!DOCTYPE svg PUBLIC "-//W3C//DTD SVG 20010904//EN"
 "http://www.w3.org/TR/2001/REC-SVG-20010904/DTD/svg10.dtd">
<svg version="1.0" xmlns="http://www.w3.org/2000/svg"
 width="200.000000pt" height="200.000000pt" viewBox="0 0 200.000000 200.000000"
 preserveAspectRatio="xMidYMid meet">

<g transform="translate(0.000000,200.000000) scale(0.100000,-0.100000)"
fill="currentColor" stroke="none">
<path d="M972 1983 c-6 -10 -19 -48 -30 -85 -28 -88 -69 -168 -87 -168 -8 0
-15 -4 -15 -10 0 -5 -7 -7 -15 -4 -8 4 -12 10 -9 16 4 5 -12 8 -38 6 -43 -3
-43 -3 -46 -45 -2 -23 1 -58 7 -78 12 -45 1 -51 -51 -24 -28 14 -43 18 -46 10
-2 -6 -7 -9 -12 -6 -12 7 -18 -18 -25 -117 -5 -65 -10 -88 -21 -88 -7 0 -18 9
-24 20 -6 11 -19 24 -30 30 -16 8 -24 6 -42 -12 -20 -20 -22 -32 -22 -120 -1
-94 -2 -99 -21 -93 -11 4 -39 9 -62 12 l-43 6 0 -65 c0 -36 9 -100 20 -143 11
-43 19 -79 17 -81 -1 -1 -24 2 -50 8 -26 5 -54 7 -62 4 -36 -13 -6 -116 70
-242 25 -41 45 -77 45 -82 0 -4 -15 -12 -32 -17 -18 -6 -34 -18 -36 -27 -4
-23 96 -129 168 -178 91 -62 135 -73 315 -79 l160 -6 6 -160 c3 -88 7 -161 7
-162 7 -11 61 0 66 13 3 9 6 83 6 165 l0 149 118 0 c217 0 300 25 419 128 84
73 121 125 103 147 -7 8 -18 15 -24 15 -6 0 -17 4 -25 9 -11 7 -3 27 37 97 57
99 85 171 80 206 -3 21 -8 23 -57 22 -33 0 -56 -5 -59 -12 -2 -7 -7 -10 -12
-7 -5 3 0 36 11 73 25 86 37 212 20 212 -7 0 -9 5 -5 12 12 20 -67 1 -91 -22
-26 -24 -40 -9 -23 24 19 35 -11 203 -38 213 -9 3 -28 -9 -49 -30 -20 -21 -37
-31 -41 -25 -4 5 -9 47 -13 93 -4 49 -12 90 -21 101 -12 14 -12 16 -1 9 10 -5
12 -4 7 3 -11 18 -35 14 -84 -14 l-45 -26 6 33 c19 104 19 118 3 134 -9 9 -16
13 -16 8 0 -4 -4 -2 -9 6 -13 20 -72 5 -64 -16 5 -12 -2 -10 -25 7 -18 13 -38
42 -47 64 -8 23 -27 77 -43 121 -22 62 -33 81 -50 83 -12 2 -25 -4 -30 -15z
m48 -220 c0 -10 9 -33 20 -50 15 -26 32 -36 80 -50 l60 -18 1 -70 c0 -38 6
-86 12 -105 11 -30 17 -35 42 -33 17 1 37 11 47 23 24 29 28 25 28 -24 0 -55
25 -135 54 -170 19 -24 23 -25 46 -13 14 8 24 19 22 26 -1 7 5 11 15 9 10 -2
16 -11 14 -19 -2 -8 -6 -56 -8 -106 -5 -90 -4 -93 16 -93 12 0 38 7 58 15 19
8 37 15 39 15 9 0 2 -42 -17 -101 -11 -35 -23 -86 -26 -112 l-6 -48 39 6 c21
3 49 8 62 11 12 2 22 2 22 -2 0 -8 -69 -134 -91 -165 -10 -14 -19 -31 -21 -39
-2 -7 -11 -22 -20 -32 -22 -22 -24 -58 -4 -58 54 0 -2 -68 -92 -112 -64 -32
-71 -33 -210 -37 -114 -3 -146 0 -153 10 -11 17 -12 220 -1 235 5 8 67 31 67
25 0 -3 259 90 282 101 33 16 44 62 17 72 -9 4 -84 -15 -168 -43 -83 -26 -164
-51 -179 -55 l-28 -7 3 113 3 112 65 24 c129 47 190 74 190 86 0 7 -6 20 -13
31 -16 20 -20 20 -147 -19 -47 -14 -88 -26 -92 -26 -4 0 -9 82 -10 183 l-3
182 -37 3 -38 3 0 -184 c0 -101 -2 -186 -5 -189 -3 -2 -49 10 -102 29 -54 18
-106 33 -116 33 -23 0 -39 -40 -24 -57 10 -10 144 -66 230 -96 15 -6 17 -21
17 -115 0 -60 -3 -111 -6 -115 -4 -3 -18 0 -33 7 -14 7 -95 35 -179 61 -163
52 -171 52 -172 -1 0 -17 12 -26 58 -42 31 -11 111 -39 177 -63 65 -23 125
-42 132 -42 20 0 24 -31 21 -147 l-3 -105 -110 -3 c-168 -5 -274 23 -348 92
-27 25 -28 28 -13 49 9 12 19 27 21 32 3 6 -29 68 -71 138 -42 70 -74 130 -71
134 3 3 20 0 38 -6 18 -6 43 -11 55 -11 32 0 32 30 -1 157 -14 54 -25 101 -25
106 0 12 22 8 40 -8 9 -8 31 -18 50 -21 l33 -7 -6 111 c-4 71 -3 112 3 112 6
0 10 -4 10 -9 0 -5 14 -14 32 -20 35 -12 35 -13 69 52 11 21 23 67 26 102 3
36 8 65 11 65 3 0 10 -7 16 -15 6 -9 27 -18 47 -21 44 -7 48 2 58 126 l6 85
48 12 c57 14 71 25 103 75 26 41 44 49 44 21z"/>
</g>
</svg>
