<?xml version="1.0" standalone="no"?>
<!DOCTYPE svg PUBLIC "-//W3C//DTD SVG 20010904//EN"
 "http://www.w3.org/TR/2001/REC-SVG-20010904/DTD/svg10.dtd">
<svg version="1.0" xmlns="http://www.w3.org/2000/svg"
 width="200.000000pt" height="200.000000pt" viewBox="0 0 200.000000 200.000000"
 preserveAspectRatio="xMidYMid meet">

<g transform="translate(0.000000,200.000000) scale(0.100000,-0.100000)"
fill="currentColor" stroke="none">
<path d="M918 1847 c-99 -105 -154 -178 -186 -247 -22 -45 -26 -70 -26 -141 0
-73 4 -93 27 -140 36 -72 74 -112 166 -174 l76 -51 3 -257 c1 -141 -1 -257 -6
-257 -4 0 -31 30 -59 68 -29 37 -66 80 -82 96 -30 28 -31 33 -31 111 0 98 -19
158 -66 213 -61 72 -152 111 -259 112 -39 0 -302 -29 -312 -35 -7 -4 73 -249
95 -289 100 -184 260 -245 441 -168 68 29 77 30 97 17 32 -21 93 -95 137 -167
33 -55 37 -69 37 -130 l0 -69 -44 36 c-24 20 -47 47 -50 60 -8 32 -52 82 -88
101 -46 24 -118 20 -187 -11 -82 -37 -86 -43 -54 -91 88 -133 178 -163 291
-97 l44 25 35 -33 c54 -52 63 -78 63 -174 0 -78 2 -85 20 -85 19 0 20 7 20
194 0 221 6 246 93 361 69 92 79 95 171 50 95 -45 161 -54 241 -30 49 14 70
28 125 83 61 62 70 77 123 206 31 76 57 142 57 146 0 9 -129 45 -235 65 -128
25 -245 -2 -318 -73 -61 -59 -87 -120 -94 -220 l-6 -86 -71 -87 c-39 -48 -74
-88 -78 -88 -5 -1 -8 111 -8 247 0 278 -5 260 76 300 64 33 137 105 167 166
67 137 46 273 -67 421 -51 67 -180 205 -191 205 -5 0 -45 -38 -87 -83z"/>
</g>
</svg>
