<svg xmlns="http://www.w3.org/2000/svg" width="100%" height="auto" viewBox="0 0 200 200" version="1.1" preserveAspectRatio="xMidYMid meet" style="max-width: 100%; max-height: 70vh;">
	<path d="M -0 100.005 L -0 200.010 100.250 199.755 L 200.500 199.500 200.755 99.750 L 201.010 0 100.505 0 L 0 0 -0 100.005 M 0.481 100.500 C 0.481 155.500, 0.602 178.147, 0.750 150.826 C 0.898 123.506, 0.898 78.506, 0.750 50.826 C 0.602 23.147, 0.481 45.500, 0.481 100.500 M 93.776 12.752 C 74.565 32.043, 69.239 42.073, 70.265 57.032 C 71.119 69.495, 77.012 78.153, 89.970 85.982 L 96.842 90.134 97.458 97.317 C 97.797 101.268, 97.885 108.550, 97.655 113.500 C 97.424 118.450, 97.183 126.955, 97.118 132.400 L 97 142.300 93.881 137.900 C 92.165 135.480, 88.568 131.239, 85.887 128.475 L 81.013 123.450 80.645 114.475 C 79.906 96.433, 72.360 86.627, 55.967 82.404 C 50.344 80.955, 48.261 80.895, 40 81.942 C 19.146 84.586, 16 85.204, 16 86.664 C 16 87.446, 17.814 93.660, 20.031 100.475 C 26.284 119.696, 34.066 129.536, 46.202 133.567 C 53.259 135.911, 62.862 135.127, 69.717 131.648 C 72.586 130.192, 75.849 129, 76.969 129 C 80.414 129, 89.982 140.094, 94.911 149.805 C 96.547 153.026, 97.021 155.499, 96.798 159.631 L 96.500 165.151 92.845 162.326 C 90.831 160.768, 88.268 157.405, 87.135 154.831 C 85.974 152.194, 83.464 148.930, 81.367 147.331 C 78.154 144.880, 76.773 144.502, 71.078 144.517 C 65.529 144.532, 63.522 145.062, 58.250 147.906 C 54.813 149.761, 52 151.841, 52 152.529 C 52 153.217, 54.013 156.514, 56.473 159.856 C 64.016 170.103, 72.470 172.531, 82.657 167.376 L 87.843 164.752 90.924 166.946 C 95.594 170.271, 96.456 172.620, 97 183.500 C 97.458 192.667, 97.667 193.500, 99.500 193.500 C 101.416 193.500, 101.521 192.665, 102.005 173.500 C 102.562 151.479, 102.602 151.311, 110.172 139.884 C 113.851 134.331, 119.547 128.683, 120.835 129.311 C 134.898 136.167, 135.712 136.447, 142.776 136.828 C 153.266 137.395, 160.883 133.730, 168.476 124.464 C 172.179 119.945, 184.584 92.251, 183.425 91.092 C 182.241 89.907, 159.920 84.902, 153.290 84.335 C 138.498 83.068, 127.128 88.989, 120.896 101.203 C 119.598 103.747, 118.612 108.410, 118.108 114.391 L 117.327 123.643 110.414 131.704 C 106.611 136.138, 103.162 139.567, 102.750 139.324 C 101.611 138.653, 101.850 95.728, 103.011 92.399 C 103.728 90.344, 105.657 88.645, 109.639 86.560 C 120.883 80.676, 127.977 71.153, 130.259 58.880 C 131.733 50.955, 129.433 41.946, 123.543 32.580 C 118.839 25.100, 102.651 6.999, 100.668 7.002 C 100.026 7.003, 96.924 9.590, 93.776 12.752" stroke="none" fill="black" fill-rule="evenodd"/>
</svg>