<?xml version="1.0" standalone="no"?>
<!DOCTYPE svg PUBLIC "-//W3C//DTD SVG 20010904//EN"
 "http://www.w3.org/TR/2001/REC-SVG-20010904/DTD/svg10.dtd">
<svg version="1.0" xmlns="http://www.w3.org/2000/svg"
 width="200.000000pt" height="200.000000pt" viewBox="0 0 200.000000 200.000000"
 preserveAspectRatio="xMidYMid meet">

<g transform="translate(0.000000,200.000000) scale(0.100000,-0.100000)"
fill="#000000" stroke="none">
<path d="M968 1750 c-2 -140 -7 -231 -13 -233 -5 -1 -21 18 -34 42 -14 25 -47
68 -75 95 -47 48 -50 49 -54 28 -4 -25 47 -119 126 -232 l46 -65 4 -122 c6
-156 4 -156 -81 -38 -102 140 -178 201 -177 143 1 -28 24 -61 35 -50 5 4 6 2
2 -4 -3 -5 17 -39 45 -75 27 -35 78 -100 111 -144 l62 -80 2 -140 3 -140 -37
44 c-220 258 -280 317 -300 297 -13 -13 31 -78 141 -210 59 -72 127 -153 150
-181 l41 -50 4 -113 c3 -96 1 -113 -11 -106 -7 5 -85 85 -173 177 -87 93 -171
175 -187 183 -27 14 -28 14 -28 -8 0 -13 20 -48 43 -78 48 -60 309 -347 335
-368 13 -10 17 -41 22 -165 5 -138 7 -152 24 -155 10 -2 22 2 27 10 5 7 9 75
9 151 l0 137 43 47 c23 26 105 115 181 197 76 83 147 164 157 181 22 34 25 65
7 65 -7 0 -95 -84 -197 -187 l-184 -188 -7 60 c-3 33 -3 86 1 117 6 52 13 65
66 125 58 67 139 166 219 266 36 46 61 97 47 97 -28 0 -60 -32 -230 -226 l-98
-112 -3 136 c-2 123 -1 137 17 156 11 12 41 51 68 87 26 37 76 103 110 148 61
80 81 117 69 129 -16 16 -77 -46 -233 -235 l-31 -38 2 130 2 130 59 85 c70
101 115 184 115 213 0 18 -10 12 -55 -33 -31 -30 -70 -77 -88 -105 l-32 -50
-5 240 c-3 132 -7 241 -8 243 -1 1 -13 2 -27 2 l-25 0 -2 -230z"/>
</g>
</svg>
