<svg xmlns="http://www.w3.org/2000/svg" width="100%" height="auto" viewBox="0 0 200 200" version="1.1" preserveAspectRatio="xMidYMid meet" style="max-width: 100%; max-height: 70vh;">
	<path d="M 0 100 L 0 200 48.500 200 L 97 200 96.938 191.750 C 96.904 187.213, 96.556 180.311, 96.165 176.414 C 95.361 168.412, 97.364 171.154, 73.183 144.966 C 57.689 128.187, 53.270 121, 58.447 121 C 59.670 121, 80.971 142.113, 90.984 153.250 C 93.333 155.863, 95.647 158, 96.127 158 C 97.155 158, 97.238 152.175, 96.346 142.721 L 95.705 135.941 83.074 120.721 C 66.408 100.639, 63 96.078, 63 93.856 C 63 91.509, 65.824 91.481, 68.500 93.800 C 71.409 96.321, 86.012 112.744, 90.018 118 C 96.083 125.957, 96.754 125.879, 96.498 117.250 C 96.388 113.537, 96.231 107.755, 96.149 104.400 L 96 98.300 85.849 85.400 C 70.366 65.725, 67.218 60, 71.879 60 C 74.181 60, 85.335 71.658, 90.967 79.951 C 93.245 83.306, 95.475 85.824, 95.923 85.547 C 96.371 85.270, 96.509 79.747, 96.230 73.272 L 95.722 61.500 88.518 50.500 C 79.338 36.482, 78.813 35.452, 79.188 32.218 L 79.500 29.535 83.913 33.518 C 86.340 35.708, 89.940 39.975, 91.913 43 L 95.500 48.500 96.136 35.500 C 96.486 28.350, 96.823 17.695, 96.886 11.823 C 96.985 2.553, 97.231 1.086, 98.750 0.689 C 99.713 0.438, 77.888 0.180, 50.250 0.116 L 0 0 0 100 M 101 0.800 C 101 1.240, 101.440 2.040, 101.979 2.579 C 102.548 3.148, 102.992 12.147, 103.041 24.071 C 103.087 35.353, 103.464 45.132, 103.877 45.802 C 104.377 46.610, 107.065 44.159, 111.876 38.510 C 115.861 33.829, 119.748 30, 120.513 30 C 123.219 30, 119.415 38.711, 111.555 50.514 L 103.936 61.954 104.218 73.658 L 104.500 85.363 114.339 73.619 C 123.411 62.791, 128.066 58.733, 129.624 60.291 C 131.141 61.807, 128.202 66.598, 116.309 82 L 103.567 98.500 103.176 110.342 C 102.960 116.855, 103.175 122.575, 103.652 123.052 C 104.143 123.543, 110.295 117.401, 117.809 108.916 C 130.187 94.941, 135.027 90.693, 136.683 92.350 C 137.913 93.579, 134.226 99.676, 127.742 107.139 C 124.224 111.187, 117.331 119.450, 112.423 125.500 L 103.500 136.500 103.159 147.332 L 102.819 158.165 105.396 156.476 C 106.813 155.548, 114.164 148.198, 121.731 140.144 C 140.461 120.208, 143 118.203, 143 123.350 C 143 126.571, 139.254 131.452, 126 145.500 C 119.774 152.100, 112.164 160.193, 109.089 163.484 L 103.500 169.469 103.160 184.734 L 102.821 200 151.410 200 L 200 200 200 100 L 200 0 150.500 0 C 123.275 0, 101 0.360, 101 0.800" stroke="none" fill="black" fill-rule="evenodd"/>
</svg>