<?xml version="1.0" standalone="no"?>
<!DOCTYPE svg PUBLIC "-//W3C//DTD SVG 20010904//EN"
 "http://www.w3.org/TR/2001/REC-SVG-20010904/DTD/svg10.dtd">
<svg version="1.0" xmlns="http://www.w3.org/2000/svg"
 width="200.000000pt" height="200.000000pt" viewBox="0 0 200.000000 200.000000"
 preserveAspectRatio="xMidYMid meet">

<g transform="translate(0.000000,200.000000) scale(0.100000,-0.100000)"
fill="currentColor" stroke="none">
<path d="M925 1959 c-236 -190 -349 -321 -443 -512 -78 -159 -103 -255 -109
-426 -6 -150 3 -210 48 -309 95 -212 271 -346 490 -377 44 -6 47 -8 53 -43 3
-20 6 -94 6 -164 l0 -128 30 0 c29 0 30 1 30 48 1 26 2 99 3 162 l2 115 80 16
c228 46 413 209 483 426 68 207 15 526 -127 767 -55 94 -177 242 -258 312 -90
79 -198 154 -219 154 -10 -1 -41 -19 -69 -41z m35 -250 c0 -93 -2 -169 -6
-169 -3 0 -47 43 -98 96 l-93 96 47 44 c65 61 134 113 143 107 4 -2 7 -80 7
-174z m157 127 c32 -24 71 -58 88 -75 l29 -31 -74 -76 c-41 -41 -87 -84 -102
-95 l-26 -19 -2 170 c0 142 2 170 14 170 8 0 40 -20 73 -44z m-274 -282 l117
-117 2 -123 c1 -68 -1 -126 -3 -128 -3 -3 -82 72 -176 166 -155 154 -171 173
-161 192 16 33 88 126 96 126 4 0 60 -52 125 -116z m492 55 c25 -34 45 -69 45
-79 0 -10 -78 -93 -175 -188 l-175 -170 0 130 0 130 123 119 c67 65 125 119
130 119 4 0 27 -27 52 -61z m-571 -348 l196 -195 0 -128 c0 -117 -9 -158 -24
-110 -3 10 -105 113 -226 231 -155 150 -220 219 -220 235 0 22 67 172 75 165
2 -2 92 -91 199 -198z m709 118 c20 -43 37 -85 37 -92 0 -7 -108 -118 -240
-245 l-239 -233 2 133 2 133 150 145 c82 80 170 166 195 192 25 25 47 47 50
47 3 0 22 -36 43 -80z m-705 -473 l192 -190 0 -129 c0 -71 -3 -127 -7 -125 -5
2 -119 116 -256 254 -161 162 -250 260 -256 280 -4 17 -3 59 5 103 7 41 12 77
12 80 -3 34 24 10 310 -273z m788 176 l7 -103 -256 -257 c-141 -141 -260 -253
-264 -249 -4 5 -8 61 -8 125 l0 117 230 227 c243 240 266 261 277 250 4 -4 10
-53 14 -110z m-44 -344 c-45 -96 -98 -163 -173 -220 -63 -48 -158 -94 -214
-103 -39 -6 -32 2 190 218 251 245 268 254 197 105z m-792 -144 c96 -97 170
-179 163 -181 -22 -8 -158 57 -228 109 -45 35 -85 77 -117 123 -43 64 -88 163
-88 194 0 20 82 -54 270 -245z"/>
</g>
</svg>
