<svg xmlns="http://www.w3.org/2000/svg" width="100%" height="auto" viewBox="0 0 200 200" version="1.1" preserveAspectRatio="xMidYMid meet" style="max-width: 100%; max-height: 70vh;">
	<path d="M 0 100 L 0 200 48.631 200 L 97.262 200 96.642 196.250 C 96.301 194.188, 96.017 186.973, 96.011 180.219 C 96.003 171.250, 95.663 167.845, 94.750 167.595 C 94.063 167.407, 90.575 166.725, 87 166.080 C 60.406 161.278, 38.541 135.791, 36.321 107.006 C 34.782 87.056, 43.159 59.035, 56.292 40.199 C 64.657 28.203, 79.858 13.118, 94.502 2.282 L 97.500 0.063 48.750 0.032 L 0 0 0 100 M 105.425 2.306 C 133.176 23.122, 149.610 44.166, 157.401 68.864 C 168.756 104.861, 162.636 134.065, 139.738 153.145 C 130.933 160.482, 115.346 167, 106.606 167 L 104 167 103.986 181.250 C 103.979 189.088, 103.701 196.513, 103.370 197.750 L 102.767 200 151.383 200 L 200 200 200 100 L 200 0 151.250 0.056 L 102.500 0.111 105.425 2.306 M 86.816 17.827 C 75.186 27.089, 75.280 25.732, 85.558 36.058 C 90.453 40.976, 94.805 45, 95.229 45 C 95.653 45, 96 37.575, 96 28.500 C 96 18.938, 95.607 12, 95.066 12 C 94.552 12, 90.839 14.622, 86.816 17.827 M 104 28.569 L 104 45.137 109.848 40.051 C 113.064 37.254, 117.368 33.061, 119.414 30.733 L 123.132 26.500 118.316 22.171 C 113.443 17.791, 105.616 12, 104.570 12 C 104.256 12, 104 19.456, 104 28.569 M 68.446 36.781 C 66.826 38.786, 64.507 42.017, 63.294 43.963 L 61.088 47.500 78.294 64.247 C 87.757 73.458, 95.612 80.996, 95.750 80.997 C 95.888 80.999, 96 75.581, 96 68.959 L 96 56.918 86.750 47.755 C 81.662 42.716, 76.126 37.366, 74.446 35.865 L 71.391 33.136 68.446 36.781 M 123.835 36.750 C 122.462 38.263, 117.325 43.325, 112.420 48 L 103.500 56.500 103.166 68.250 C 102.937 76.308, 103.177 80, 103.929 80 C 105.285 80, 132.723 54.218, 135.810 50.043 C 137.921 47.188, 137.963 46.828, 136.509 44.017 C 134.420 39.978, 129.081 34, 127.562 34 C 126.885 34, 125.208 35.237, 123.835 36.750 M 52.093 62.430 C 50.392 66.517, 49 70.301, 49 70.839 C 49 71.976, 53.071 76.170, 77.224 99.913 C 91.491 113.938, 95.069 116.983, 95.614 115.564 C 95.986 114.595, 96.025 109.009, 95.702 103.151 L 95.114 92.500 75.807 73.773 C 65.188 63.473, 56.204 55.036, 55.843 55.023 C 55.482 55.010, 53.795 58.344, 52.093 62.430 M 123.250 73.958 L 104 92.914 104 105.041 C 104 112.296, 104.383 117.033, 104.953 116.833 C 105.478 116.650, 116.029 106.463, 128.401 94.196 C 144.852 77.884, 150.742 71.436, 150.326 70.196 C 148.993 66.230, 143.654 55, 143.102 55.001 C 142.771 55.001, 133.838 63.532, 123.250 73.958 M 45.206 88.004 C 42.763 102.251, 40.853 99.114, 69.332 127.633 C 83.264 141.585, 95.001 153, 95.413 153 C 95.826 153, 96.014 147.488, 95.832 140.750 L 95.500 128.500 71.703 105 C 58.614 92.075, 47.569 81.381, 47.159 81.235 C 46.748 81.090, 45.869 84.136, 45.206 88.004 M 127.891 104.750 L 103.903 128.500 104.201 141 L 104.500 153.500 129.747 128.500 C 149.881 108.564, 155.120 102.835, 155.615 100.218 C 156.362 96.261, 154.141 81, 152.817 81 C 152.301 81, 141.084 91.688, 127.891 104.750 M 133.821 134.628 C 122.674 145.558, 112.704 155.533, 111.667 156.796 L 109.782 159.093 112.641 158.438 C 114.213 158.078, 119.325 155.965, 124 153.743 C 137.872 147.150, 148.057 135.428, 153.625 119.647 C 154.393 117.469, 154.812 115.478, 154.555 115.222 C 154.299 114.966, 144.969 123.698, 133.821 134.628 M 45 116.264 C 45 117.651, 49.444 128.082, 51.608 131.775 C 55.100 137.733, 62.209 145.357, 67.972 149.323 C 72.888 152.707, 87.130 159.203, 87.914 158.419 C 88.186 158.148, 78.983 148.492, 67.463 136.963 C 49.455 118.940, 45 114.835, 45 116.264" stroke="none" fill="black" fill-rule="evenodd"/>
</svg>