<svg xmlns="http://www.w3.org/2000/svg" width="100%" height="auto" viewBox="0 0 200 200" version="1.1" preserveAspectRatio="xMidYMid meet" style="max-width: 100%; max-height: 70vh;">
	<path d="M 0 100 L 0 200 26.158 200 L 52.316 200 51.654 181.250 C 51.291 170.938, 50.084 156.425, 48.973 149 C 47.098 136.474, 40.595 108.261, 38.050 101.611 C 36.483 97.517, 37.530 97.179, 39.869 101.024 C 46.894 112.577, 56.286 151.132, 58.499 177.500 C 59.191 185.750, 59.826 191.150, 59.910 189.500 C 61.630 155.729, 63.900 136.267, 69.112 110.586 L 72.140 95.673 70.033 85.204 C 68.874 79.446, 65.646 68.466, 62.859 60.805 C 60.072 53.143, 58.019 46.648, 58.295 46.372 C 59.862 44.805, 70.166 63.906, 73.065 73.750 C 74.343 78.089, 76 79.460, 76 76.177 C 76 73.922, 84.862 55.529, 85.596 56.262 C 85.888 56.555, 85.005 60.553, 83.634 65.147 C 82.263 69.741, 80.392 76.979, 79.475 81.230 L 77.808 88.960 80.857 102.730 C 86.050 126.177, 86.156 127.600, 85.036 158.829 C 84.471 174.598, 84.006 190.313, 84.004 193.750 L 84 200 114.750 199.884 C 131.662 199.820, 144.600 199.552, 143.500 199.287 C 142.400 199.022, 141.199 198.512, 140.832 198.153 C 138.875 196.241, 143.612 141.331, 147.488 121 C 148.274 116.875, 149.830 108.539, 150.946 102.475 C 153.899 86.423, 164.717 54.384, 166.561 56.227 C 166.970 56.636, 166.348 59.280, 162.144 75 C 154.500 103.588, 149.939 139.554, 149.493 174.767 L 149.173 200.033 174.837 199.767 L 200.500 199.500 200.755 99.750 L 201.010 0 100.505 0 L 0 0 0 100 M 0.481 100.500 C 0.481 155.500, 0.602 178.147, 0.750 150.826 C 0.898 123.506, 0.898 78.506, 0.750 50.826 C 0.602 23.147, 0.481 45.500, 0.481 100.500 M 119.694 4.693 C 107.661 23.755, 100.570 48.761, 90.401 108 C 87.351 125.772, 86.932 138.838, 88.771 158.950 C 89.447 166.347, 90 178.209, 90 185.308 L 90 198.217 92.748 197.527 C 94.259 197.148, 95.621 196.712, 95.774 196.559 C 96.192 196.142, 97.822 166.695, 98.989 138.500 C 100.006 113.902, 101.691 95.242, 104.497 77.500 C 111.713 31.867, 112.609 27.859, 119.202 11.685 C 123.480 1.190, 123.678 -1.618, 119.694 4.693 M 138.323 100.007 C 134.376 102.196, 128.858 106.216, 126.060 108.942 L 120.973 113.896 117.568 107.198 C 111.319 94.904, 108.834 93.710, 113.526 105.256 C 117.699 115.526, 117.668 117.366, 113.163 127.068 C 103.753 147.334, 98 170.215, 98 187.376 L 98 197 104.872 197 L 111.743 197 112.425 184.750 C 112.799 178.012, 113.538 168.675, 114.067 164 C 115.163 154.296, 118.861 135.890, 119.951 134.710 C 120.759 133.834, 123.550 148.825, 125.030 162 C 125.555 166.675, 125.988 176.412, 125.992 183.639 L 126 196.777 129.630 197.458 C 131.627 197.833, 133.603 197.771, 134.022 197.320 C 136.166 195.013, 131.598 154.772, 126.968 135.171 C 125.885 130.590, 125 125.699, 125 124.302 C 125 118.765, 135.012 106.091, 145.534 98.306 C 150.455 94.665, 146.105 95.691, 138.323 100.007 M 72.117 128.250 C 70.134 146.905, 69.073 165.608, 69.035 182.582 L 69 198.665 63.500 198.208 C 60.026 197.920, 58 198.140, 58 198.805 C 58 199.464, 61.467 199.875, 67.250 199.903 L 76.500 199.947 77 188.724 C 78.441 156.371, 76.814 117, 74.035 117 C 73.638 117, 72.775 122.063, 72.117 128.250 M 79.269 199.693 C 80.242 199.947, 81.592 199.930, 82.269 199.656 C 82.946 199.382, 82.150 199.175, 80.500 199.195 C 78.850 199.215, 78.296 199.439, 79.269 199.693" stroke="none" fill="black" fill-rule="evenodd"/>
</svg>