<?xml version="1.0" standalone="no"?>
<!DOCTYPE svg PUBLIC "-//W3C//DTD SVG 20010904//EN"
 "http://www.w3.org/TR/2001/REC-SVG-20010904/DTD/svg10.dtd">
<svg version="1.0" xmlns="http://www.w3.org/2000/svg"
 width="200.000000pt" height="200.000000pt" viewBox="0 0 200.000000 200.000000"
 preserveAspectRatio="xMidYMid meet">

<g transform="translate(0.000000,200.000000) scale(0.100000,-0.100000)"
fill="currentColor" stroke="none">
<path d="M1176 1893 c-4 -13 -12 -23 -17 -23 -6 0 -7 -5 -4 -11 9 -13 38 27
32 44 -2 6 -7 2 -11 -10z"/>
<path d="M1147 1833 c5 -12 3 -14 -7 -8 -9 5 -11 4 -6 -3 4 -7 2 -12 -4 -12
-6 0 -8 -4 -5 -10 3 -5 2 -10 -4 -10 -6 0 -15 -19 -22 -42 -6 -24 -17 -57 -25
-73 -7 -17 -17 -49 -22 -70 -6 -22 -22 -84 -36 -137 -15 -54 -33 -131 -40
-170 -98 -531 -108 -616 -89 -803 6 -66 12 -204 13 -307 l1 -188 24 0 c32 0
32 -1 45 285 29 646 35 715 90 1067 34 213 54 319 78 398 9 30 16 57 17 60 0
3 4 10 8 16 4 7 0 14 -8 17 -10 4 -12 1 -8 -10z"/>
<path d="M600 1495 c7 -8 10 -15 7 -15 -3 0 6 -30 20 -67 30 -85 49 -139 58
-178 5 -16 9 -34 11 -40 2 -5 8 -40 15 -78 10 -57 9 -83 -5 -170 -10 -56 -22
-115 -27 -132 -27 -89 -68 -498 -69 -677 l0 -138 34 0 c20 0 36 6 39 14 3 7 6
105 7 217 1 243 28 589 48 625 10 19 39 -179 48 -321 5 -100 -8 -404 -22 -498
l-6 -38 39 3 38 3 7 225 c14 493 13 514 -42 773 -21 97 -22 115 -11 170 12 60
39 181 45 202 2 6 3 13 2 16 0 3 5 13 13 23 8 9 12 19 9 21 -10 10 -98 -183
-98 -215 0 -11 -4 -20 -10 -20 -5 0 -10 8 -10 18 0 10 -5 23 -12 30 -7 7 -9
12 -5 12 4 0 -3 24 -14 53 -34 86 -71 157 -82 157 -6 0 -7 3 -4 7 8 8 -11 33
-25 33 -6 0 -5 -7 2 -15z"/>
<path d="M1640 1382 c0 -12 -4 -22 -8 -22 -5 0 -21 -39 -37 -87 -15 -49 -36
-113 -46 -143 -26 -77 -87 -420 -110 -624 -11 -94 -23 -246 -26 -339 l-6 -167
42 0 41 0 0 223 c0 358 43 685 140 1080 12 49 19 91 16 94 -3 4 -6 -3 -6 -15z"/>
<path d="M1395 1002 c-38 -20 -96 -62 -128 -94 -32 -32 -60 -58 -62 -58 -1 0
-5 10 -9 23 -3 13 -15 34 -27 48 l-22 24 7 -25 c5 -14 10 -37 13 -53 3 -15 8
-29 12 -32 4 -2 -14 -48 -41 -102 -113 -230 -156 -434 -149 -711 1 -22 4 -23
64 -20 l62 3 6 145 c4 80 12 184 18 232 14 110 50 280 60 291 8 8 24 -72 53
-253 6 -41 12 -153 12 -247 l1 -173 31 0 c24 0 33 5 38 23 22 82 -16 409 -76
657 l-20 85 38 65 c36 63 110 144 169 187 43 31 30 28 -50 -15z"/>
<path d="M394 960 c4 -14 8 -32 11 -40 2 -8 13 -51 25 -95 61 -226 89 -435 90
-662 0 -72 3 -138 6 -147 4 -10 18 -16 35 -16 28 0 29 2 29 48 0 104 -22 331
-41 421 -11 53 -22 105 -25 117 -16 83 -59 232 -86 299 -31 80 -57 124 -44 75z"/>
<path d="M1135 960 c3 -5 8 -10 11 -10 2 0 4 5 4 10 0 6 -5 10 -11 10 -5 0 -7
-4 -4 -10z"/>
</g>
</svg>
