<?xml version="1.0" standalone="no"?>
<!DOCTYPE svg PUBLIC "-//W3C//DTD SVG 20010904//EN"
 "http://www.w3.org/TR/2001/REC-SVG-20010904/DTD/svg10.dtd">
<svg version="1.0" xmlns="http://www.w3.org/2000/svg"
 width="200.000000pt" height="200.000000pt" viewBox="0 0 200.000000 200.000000"
 preserveAspectRatio="xMidYMid meet">

<g transform="translate(0.000000,200.000000) scale(0.100000,-0.100000)"
fill="currentColor" stroke="none">
<path d="M921 1979 c-102 -45 -211 -140 -281 -245 -65 -96 -134 -228 -150
-289 -8 -27 -17 -52 -20 -55 -4 -3 -18 -45 -31 -95 -21 -79 -24 -112 -24 -270
0 -214 10 -255 87 -370 77 -116 171 -178 333 -219 l50 -13 6 -129 c7 -128 37
-264 59 -264 6 0 10 -7 10 -15 0 -8 9 -15 20 -15 11 0 20 1 20 3 0 1 -11 51
-24 110 -28 122 -40 344 -17 308 7 -11 28 -13 108 -7 234 16 364 80 461 226
22 32 48 85 57 117 9 32 21 72 27 88 5 17 12 95 15 175 4 131 2 157 -21 265
-15 66 -31 122 -36 123 -6 2 -8 8 -5 12 12 19 -93 259 -131 299 -14 14 -34 42
-44 62 -27 52 -134 145 -209 182 -55 27 -78 32 -142 33 -55 1 -88 -3 -118 -17z
m129 -71 c6 -24 15 -56 20 -73 16 -54 30 -172 30 -250 0 -65 -2 -75 -14 -63
-8 7 -91 63 -184 123 -94 61 -173 116 -176 122 -3 7 -2 12 2 11 4 -1 25 15 47
36 79 75 185 134 242 136 18 0 24 -8 33 -42z m115 -3 c30 -19 55 -33 55 -31 0
9 118 -120 128 -140 10 -19 0 -32 -89 -121 -54 -54 -99 -97 -100 -94 -1 3 0
22 1 42 3 83 -28 292 -55 362 -10 24 -1 22 60 -18z m-445 -204 c0 -12 57 -41
65 -33 5 4 6 2 2 -3 -3 -6 3 -17 15 -24 16 -10 19 -10 12 1 -4 7 7 -2 25 -19
30 -31 43 -38 64 -34 5 1 6 -3 3 -8 -6 -8 8 -18 28 -19 5 0 12 -5 15 -11 4 -6
38 -32 77 -59 67 -47 69 -49 66 -87 -4 -60 -33 -193 -46 -211 -11 -14 -29 -5
-148 69 -74 46 -179 110 -232 141 -54 32 -100 64 -103 71 -3 8 14 50 38 92 64
118 89 152 105 146 8 -3 14 -8 14 -12z m710 -108 c17 -38 40 -86 51 -108 10
-21 15 -42 11 -46 -4 -4 -90 -62 -191 -129 l-184 -122 6 38 c4 22 12 77 18
124 l11 85 116 112 c65 62 120 113 123 113 4 0 21 -30 39 -67z m-797 -240 c29
-17 55 -29 59 -26 5 2 8 0 8 -5 0 -10 302 -202 319 -202 18 0 17 -23 -1 -99
-21 -90 -37 -131 -50 -131 -6 0 -22 8 -36 18 -15 10 -97 58 -182 107 -176 99
-280 164 -280 174 0 4 11 45 25 92 13 46 25 99 25 117 l0 33 31 -23 c17 -13
54 -37 82 -55z m888 30 c0 -5 2 -15 4 -23 1 -8 9 -50 16 -93 15 -92 34 -71
-181 -196 -80 -46 -179 -104 -220 -127 -79 -47 -92 -51 -86 -31 2 6 10 48 17
92 12 82 23 108 48 113 13 3 111 70 236 163 28 20 69 48 92 62 23 15 44 31 48
37 7 12 25 14 26 3z m43 -312 c7 -50 -11 -240 -23 -254 -6 -6 -431 -125 -508
-141 -44 -10 -49 5 -23 74 25 68 23 66 265 205 91 52 189 110 218 129 29 19
55 35 58 35 4 1 9 -21 13 -48z m-991 -25 c26 -15 47 -24 47 -21 0 3 10 -3 22
-15 20 -19 33 -24 51 -21 4 0 7 -3 7 -8 0 -10 225 -141 241 -141 24 0 27 -39
8 -100 -11 -35 -21 -66 -23 -68 -6 -6 -387 166 -422 190 -38 26 -44 49 -44
165 l0 85 33 -20 c17 -10 53 -31 80 -46z m217 -382 c47 -21 91 -44 98 -51 7
-7 19 -13 26 -13 10 0 9 -12 -4 -50 -9 -28 -19 -53 -22 -56 -9 -9 -100 17
-164 47 -99 46 -202 153 -228 236 -8 24 1 21 294 -113z m730 68 c0 -4 -22 -35
-49 -68 -77 -95 -184 -156 -320 -180 -95 -17 -163 -18 -179 -2 -24 24 -9 119
19 123 24 4 319 83 389 104 104 31 140 37 140 23z"/>
</g>
</svg>
