<svg xmlns="http://www.w3.org/2000/svg" width="100%" height="auto" viewBox="0 0 200 200" version="1.1" preserveAspectRatio="xMidYMid meet" style="max-width: 100%; max-height: 70vh;">
	<path d="M 0 100 L 0 200 47.909 200 L 95.819 200 93.995 196.226 C 90.893 189.806, 88.864 180.060, 88.265 168.705 C 87.917 162.102, 87.260 157.711, 86.595 157.545 C 67.014 152.659, 57.508 146.604, 49.159 133.702 C 42.175 122.907, 40.724 116.927, 40.621 98.500 C 40.524 81.326, 41.696 74.427, 47.643 57.161 C 56.234 32.220, 76.522 7.232, 92.953 1.356 C 95.909 0.299, 88.462 0.080, 48.250 0.044 L 0 0 0 100 M 117.058 2.772 C 125.030 6.685, 135.596 15.454, 138.681 20.719 L 141.331 25.241 138.916 27.098 C 135.780 29.509, 135.131 29.463, 134.071 26.750 C 132.451 22.604, 126.007 16.158, 118.722 11.394 C 114.750 8.797, 110.593 5.867, 109.486 4.883 C 107.541 3.156, 107.177 3.197, 98.986 6.059 C 89.810 9.265, 82.698 13.649, 76.695 19.799 L 72.890 23.697 91.195 35.754 L 109.500 47.812 109.796 43.073 C 110.164 37.202, 107.626 19.789, 105.420 13.045 C 103.626 7.560, 104.074 4.671, 106.641 5.176 C 111.486 6.129, 114.495 16.340, 115.639 35.710 L 116.302 46.920 113.148 48.710 C 111.414 49.694, 109.741 51.288, 109.430 52.250 C 109.119 53.212, 108.440 54, 107.921 54 C 107.401 54, 98.544 48.365, 88.238 41.478 L 69.500 28.957 67.255 31.728 C 66.021 33.253, 63.121 38.222, 60.811 42.771 C 58.501 47.320, 55.798 51.778, 54.805 52.676 C 53.812 53.575, 53 55.201, 53 56.290 C 53 58.051, 53.230 57.978, 55.078 55.628 L 57.155 52.987 61.328 55.890 C 63.622 57.487, 69.325 61.036, 74 63.777 C 78.675 66.517, 87.354 71.724, 93.287 75.347 L 104.074 81.935 104.998 79.506 C 106.018 76.823, 108.880 62.076, 109.220 57.750 C 109.339 56.237, 109.542 55, 109.671 55 C 109.800 55, 111.052 55.522, 112.453 56.161 C 115.519 57.557, 115.698 60.174, 113.514 71.592 C 112.696 75.865, 112.211 79.544, 112.435 79.768 C 112.659 79.992, 120.900 74.785, 130.748 68.196 C 147.213 57.180, 148.747 56.365, 149.811 58.069 C 150.447 59.087, 150.718 60.501, 150.413 61.210 C 149.920 62.357, 142.218 67.955, 120.227 83.148 C 108.984 90.915, 108.511 91.535, 107.091 100.338 C 106.396 104.641, 106.075 108.408, 106.375 108.709 C 106.676 109.009, 111.327 106.727, 116.711 103.637 C 154.206 82.117, 153.489 82.574, 153.862 80 C 154.061 78.625, 153.654 73.805, 152.957 69.289 C 151.923 62.589, 151.929 60.791, 152.987 59.515 C 153.701 58.655, 154.108 57.826, 153.893 57.673 C 153.677 57.520, 152.270 56.625, 150.766 55.685 C 149.262 54.744, 147.742 52.743, 147.388 51.237 C 146.511 47.514, 139.961 35, 138.889 35 C 138.414 35, 133.701 39.162, 128.415 44.250 C 117.700 54.562, 116.405 55.533, 115.762 53.742 C 114.527 50.302, 117.348 45.872, 125.473 38.496 C 133.698 31.029, 134.045 30.832, 137.865 31.477 C 140.287 31.886, 142.049 31.730, 142.456 31.071 C 144.074 28.453, 146.244 30.424, 149.424 37.403 C 158.942 58.289, 163.047 75.436, 163.071 94.409 C 163.091 109.860, 161.085 120.146, 156.032 130.500 C 147.255 148.487, 132.266 157.371, 108.557 158.640 C 93.521 159.445, 94.657 158.493, 95.225 169.802 C 95.492 175.136, 96.751 184.113, 98.021 189.750 L 100.331 200 150.165 200 L 200 200 200 100 L 200 0 155.750 0.022 L 111.500 0.045 117.058 2.772 M 52.442 61.679 C 50.549 70.126, 47.645 79.773, 46.409 81.715 C 44.787 84.265, 44.521 89, 46 89 C 46.550 89, 47 87.725, 47 86.167 C 47 82.177, 47.852 81.759, 51.170 84.121 C 52.763 85.256, 63.726 91.739, 75.531 98.529 C 100.195 112.715, 97.669 112.712, 101.398 98.559 C 103.333 91.213, 103.724 90.529, 105.820 90.823 C 108.966 91.265, 111 89.323, 111 85.878 C 111 83.542, 110.567 83, 108.700 83 C 105.942 83, 104 84.736, 104 87.200 C 104 89.718, 102.490 89.457, 97.140 86.015 C 94.588 84.373, 86.113 79.085, 78.306 74.265 C 70.499 69.444, 61.949 64.154, 59.306 62.510 C 56.663 60.865, 54.179 59.370, 53.787 59.188 C 53.395 59.007, 52.789 60.127, 52.442 61.679 M 156 84.327 C 156 87.635, 155.534 88.113, 147.250 93.305 C 142.438 96.320, 132.102 102.412, 124.282 106.840 C 106.667 116.817, 104.280 118.562, 101.900 123.210 C 99.206 128.472, 99.361 132, 102.289 132 C 103.547 132, 114.460 129.308, 126.539 126.017 C 138.617 122.726, 149.239 120.026, 150.143 120.017 C 152.314 119.995, 153.163 122.405, 151.681 124.385 C 150.127 126.462, 100.643 140.515, 98.829 139.394 C 98.373 139.112, 98 138.289, 98 137.563 C 98 135.594, 95.478 133.879, 93.627 134.590 C 92.624 134.975, 92 136.366, 92 138.220 C 92 141.002, 92.228 141.194, 95.043 140.780 C 97.520 140.417, 97.964 140.628, 97.429 141.917 C 95.055 147.644, 95.867 151.550, 99.581 152.260 C 103.318 152.975, 117.635 151.239, 123.500 149.360 C 131.254 146.876, 138.203 142.536, 143.656 136.770 C 151.418 128.563, 154.477 123.357, 154.644 118.072 C 154.724 115.557, 155.127 107.894, 155.540 101.042 C 156.199 90.113, 156.550 88.372, 158.396 86.855 C 160.058 85.488, 160.275 84.757, 159.429 83.372 C 157.492 80.204, 156 80.619, 156 84.327 M 46.719 95.792 C 46.039 102.759, 47.188 110.616, 49.177 112.606 C 50.848 114.277, 89.396 132, 91.359 132 C 92.668 132, 96.024 122.839, 95.970 119.412 C 95.941 117.565, 92.931 115.733, 53.888 93.799 L 47.276 90.085 46.719 95.792 M 45.683 111.650 C 44.314 113.020, 44.982 118.779, 46.582 119.393 C 49.060 120.344, 49.130 120.224, 48.424 116.250 C 47.699 112.169, 46.752 110.581, 45.683 111.650 M 97.500 114 C 96.664 116.635, 97.783 120, 99.496 120 C 101.644 120, 104 117.086, 104 114.429 C 104 112.409, 103.506 112, 101.067 112 C 99.013 112, 97.945 112.599, 97.500 114 M 50 122.845 C 50 124.807, 58.012 135.867, 61.603 138.861 C 67.597 143.859, 79.744 149.385, 84.874 149.447 C 89.160 149.499, 89.274 149.415, 90.503 145.303 L 91.758 141.106 88.129 138.750 C 83.469 135.724, 53.444 122, 51.486 122 C 50.669 122, 50 122.380, 50 122.845 M 89.667 151.667 C 89.300 152.033, 89 153.557, 89 155.053 C 89 157.308, 89.511 157.848, 91.988 158.212 C 94.224 158.540, 95.119 158.200, 95.544 156.863 C 96.707 153.196, 92.159 149.174, 89.667 151.667" stroke="none" fill="black" fill-rule="evenodd"/>
</svg>