<?xml version="1.0" standalone="no"?>
<!DOCTYPE svg PUBLIC "-//W3C//DTD SVG 20010904//EN"
 "http://www.w3.org/TR/2001/REC-SVG-20010904/DTD/svg10.dtd">
<svg version="1.0" xmlns="http://www.w3.org/2000/svg"
 width="200.000000pt" height="200.000000pt" viewBox="0 0 200.000000 200.000000"
 preserveAspectRatio="xMidYMid meet">

<g transform="translate(0.000000,200.000000) scale(0.100000,-0.100000)"
fill="currentColor" stroke="none">
<path d="M919 1897 c-60 -68 -191 -243 -215 -287 -10 -19 -21 -37 -24 -40 -13
-12 -50 -82 -50 -96 0 -8 -4 -14 -10 -14 -5 0 -10 -9 -10 -20 0 -11 -4 -20
-10 -20 -5 0 -10 -11 -10 -25 0 -14 -4 -25 -9 -25 -5 0 -7 -8 -4 -19 2 -10 -2
-25 -11 -33 -11 -12 -12 -18 -3 -28 9 -10 9 -11 -2 -5 -9 5 -12 4 -7 -3 3 -6
0 -17 -8 -25 -8 -8 -12 -17 -9 -21 3 -3 1 -12 -5 -19 -7 -8 -9 -17 -5 -20 3
-4 0 -13 -7 -22 -17 -21 -25 -176 -12 -258 11 -67 96 -267 114 -267 5 0 7 -4
4 -9 -3 -5 14 -30 38 -56 24 -26 45 -50 47 -53 1 -4 47 -58 102 -119 90 -103
117 -127 117 -105 0 23 -110 153 -123 145 -6 -3 -7 -1 -4 4 4 6 -10 26 -31 45
-20 18 -44 43 -52 54 -29 41 -111 149 -125 166 -7 9 -11 19 -8 22 4 3 1 6 -5
6 -7 0 -12 6 -12 13 0 7 -10 33 -22 58 -19 37 -22 61 -23 159 0 99 13 195 33
250 3 8 6 17 7 20 1 3 7 18 14 34 6 16 9 31 6 34 -3 3 2 14 12 24 9 10 12 18
7 18 -5 0 -4 4 3 8 6 4 13 16 15 27 1 11 6 22 10 25 3 3 8 12 10 20 2 8 9 21
16 28 7 8 10 18 7 23 -4 5 -2 9 3 9 5 0 17 17 28 38 10 20 22 39 25 42 13 12
69 99 69 108 0 6 3 12 8 14 13 5 72 85 72 97 0 6 4 11 8 11 4 0 28 25 54 55
l45 54 57 -59 c31 -32 56 -62 56 -66 0 -9 81 -118 92 -122 4 -2 8 -8 8 -13 0
-6 17 -36 38 -69 21 -32 49 -80 63 -107 13 -26 26 -50 29 -53 10 -10 30 -50
30 -60 0 -6 8 -29 19 -53 42 -95 54 -153 59 -274 3 -107 1 -130 -18 -190 -13
-37 -26 -72 -30 -78 -16 -23 -19 -44 -4 -38 7 3 14 13 14 23 0 11 5 22 10 25
6 3 10 17 10 31 0 13 5 24 11 24 6 0 9 6 6 13 -2 6 2 26 10 44 16 39 17 189 2
247 -6 22 -15 59 -21 81 -12 45 -17 60 -48 129 -12 28 -24 58 -26 69 -4 24
-72 149 -87 162 -7 6 -13 16 -15 24 -5 23 -62 101 -74 101 -6 0 -9 3 -5 6 8 8
-50 94 -63 94 -6 0 -10 6 -10 13 0 12 -112 128 -122 126 -2 0 -24 -23 -49 -52z"/>
<path d="M967 1706 c-15 -39 -3 -1421 12 -1412 4 3 3 -30 -1 -72 -9 -109 -9
-180 1 -162 5 8 11 60 14 115 l5 100 130 130 c125 126 237 268 226 286 -9 14
-24 0 -17 -16 3 -8 0 -15 -6 -15 -6 0 -11 -7 -11 -15 0 -8 -4 -14 -9 -12 -4 1
-25 -18 -45 -42 -21 -25 -88 -98 -150 -162 l-113 -118 -7 61 c-3 33 -6 139 -6
233 l0 173 33 20 c34 20 316 284 330 309 20 34 -42 -14 -158 -121 -66 -62
-144 -131 -173 -155 l-53 -44 6 35 c9 46 12 898 4 898 -4 0 -9 -6 -12 -14z
m169 -1284 c-17 -16 -18 -16 -5 5 7 12 15 20 18 17 3 -2 -3 -12 -13 -22z m-26
-22 c0 -5 -5 -10 -11 -10 -5 0 -7 5 -4 10 3 6 8 10 11 10 2 0 4 -4 4 -10z"/>
<path d="M721 1377 c18 -35 61 -77 72 -70 6 3 7 1 4 -4 -8 -13 17 -36 27 -25
4 4 6 3 4 -3 -1 -5 0 -11 4 -13 4 -1 25 -21 46 -44 22 -23 45 -39 53 -36 9 3
-10 29 -60 81 -41 42 -78 74 -83 71 -5 -3 -7 0 -6 8 2 7 -3 12 -10 10 -8 -1
-11 2 -8 7 4 5 -7 16 -24 24 -29 15 -30 15 -19 -6z"/>
<path d="M1139 1314 c-46 -42 -99 -85 -116 -96 -33 -20 -39 -29 -26 -41 3 -4
12 1 20 11 8 9 12 11 8 5 -3 -7 -4 -13 -1 -13 9 0 164 145 187 174 41 52 11
35 -72 -40z"/>
<path d="M627 1097 c-3 -7 23 -39 58 -73 34 -32 98 -93 141 -134 77 -74 114
-100 114 -79 0 10 -111 119 -121 119 -9 0 -77 68 -73 73 4 4 -103 107 -110
107 -2 0 -6 -6 -9 -13z m83 -62 c13 -14 21 -25 18 -25 -2 0 -15 11 -28 25 -13
14 -21 25 -18 25 2 0 15 -11 28 -25z"/>
</g>
</svg>
