<svg xmlns="http://www.w3.org/2000/svg" width="100%" height="auto" viewBox="0 0 200 200" version="1.1" preserveAspectRatio="xMidYMid meet" style="max-width: 100%; max-height: 70vh;">
	<path d="M -0 100.005 L -0 200.010 100.250 199.755 L 200.500 199.500 200.755 99.750 L 201.010 0 100.505 0 L 0 0 -0 100.005 M 0.481 100.500 C 0.481 155.500, 0.602 178.147, 0.750 150.826 C 0.898 123.506, 0.898 78.506, 0.750 50.826 C 0.602 23.147, 0.481 45.500, 0.481 100.500 M 88.273 14.105 C 65.877 40.339, 52.470 67.325, 49.753 91.641 C 48.772 100.416, 48.849 102.930, 50.308 109.669 C 53.406 123.989, 60.511 136.190, 75.539 153 C 87.313 166.170, 91.159 170, 92.609 170 C 95.040 170, 89.627 162.631, 77.151 148.955 C 58.850 128.894, 52.633 116.732, 52.635 101 C 52.638 82.130, 61.720 58.149, 78.072 33.832 C 83.537 25.705, 96.876 9, 97.901 9 C 99.676 9, 112.763 26.084, 121.649 40.002 C 137.269 64.467, 144.815 88.257, 142.344 105.246 C 141.015 114.387, 136.214 126.423, 130.506 134.926 C 128.079 138.542, 121.905 145.775, 116.787 151 C 111.668 156.225, 106.061 162.300, 104.326 164.500 C 102.592 166.700, 100.968 168.275, 100.718 168 C 99.890 167.090, 98.947 124.521, 99.731 123.484 C 100.154 122.926, 104.775 118.799, 110 114.314 C 121.900 104.099, 136.612 89.278, 135.729 88.395 C 134.667 87.333, 131.365 89.950, 117.145 103.126 C 104.805 114.560, 100.698 117.873, 98.750 117.965 C 97.831 118.008, 97.799 110.138, 98.660 95.200 C 99.260 84.794, 99.491 83.806, 101.588 82.700 C 104.671 81.075, 121.757 65.323, 123.042 62.922 C 124.820 59.599, 122.242 60.694, 117.207 65.400 C 114.618 67.820, 109.575 72.072, 106 74.849 L 99.500 79.899 99 53.699 C 98.686 37.233, 98.128 27.500, 97.500 27.500 C 96.006 27.500, 95.293 44.421, 95.167 82.890 C 95.104 101.804, 94.866 117.467, 94.637 117.696 C 94.408 117.926, 87.426 111.338, 79.122 103.056 C 64.912 88.885, 61 85.958, 61 89.494 C 61 91.906, 92.363 121.512, 93.908 120.557 C 95.274 119.713, 95.936 130.027, 96.644 163.210 C 97.017 180.650, 97.645 194.719, 98.041 194.475 C 98.436 194.230, 99.087 189.636, 99.486 184.265 C 99.886 178.894, 100.585 173.798, 101.040 172.939 C 101.495 172.081, 107.410 165.619, 114.184 158.580 C 131.501 140.584, 138.875 129.369, 143.348 114.227 C 148.230 97.700, 144.979 78.054, 133.415 54.199 C 124.963 36.766, 101.622 5, 97.263 5 C 96.594 5, 92.548 9.097, 88.273 14.105 M 71 61.198 C 71 62.761, 91.239 83, 92.802 83 C 95.850 83, 93.213 79.094, 83.986 69.937 C 74.696 60.719, 71 58.231, 71 61.198" stroke="none" fill="black" fill-rule="evenodd"/>
</svg>