<svg xmlns="http://www.w3.org/2000/svg" width="100%" height="auto" viewBox="0 0 200 200" version="1.1" preserveAspectRatio="xMidYMid meet" style="max-width: 100%; max-height: 70vh;">
	<path d="M -0 100.005 L -0 200.010 100.250 199.755 L 200.500 199.500 200.755 99.750 L 201.010 0 100.505 0 L 0 0 -0 100.005 M 0.481 100.500 C 0.481 155.500, 0.602 178.147, 0.750 150.826 C 0.898 123.506, 0.898 78.506, 0.750 50.826 C 0.602 23.147, 0.481 45.500, 0.481 100.500 M 94.607 6.582 C 94.273 7.452, 94 14.797, 94 22.905 L 94 37.647 87.826 38.795 C 81.419 39.987, 68.758 45.472, 64.273 49 L 61.696 51.027 50.426 40.013 C 44.123 33.854, 38.322 29, 37.265 29 C 35.146 29, 30 33.899, 30 35.916 C 30 36.634, 34.935 42.158, 40.968 48.190 L 51.935 59.157 47.224 67.266 C 44.164 72.532, 41.760 78.377, 40.366 83.938 L 38.219 92.500 22.657 93 C 13.585 93.291, 6.648 93.948, 6.023 94.574 C 4.583 96.018, 4.401 102.801, 5.766 104.166 C 6.417 104.817, 13.297 105.464, 22.819 105.767 L 38.779 106.277 39.435 111.223 C 40.359 118.184, 43.503 126.065, 48.031 132.764 L 51.909 138.500 41.640 149 C 27.552 163.406, 28.112 162.463, 31.535 166.036 C 36.249 170.957, 38.069 170.212, 49.954 158.500 C 55.815 152.725, 60.926 148, 61.313 148 C 61.701 148, 63.861 149.335, 66.114 150.968 C 70.939 154.463, 79.131 157.706, 87.500 159.434 L 93.500 160.672 94 177.586 L 94.500 194.500 100 194.500 L 105.500 194.500 106 177.582 L 106.500 160.664 113.325 159.286 C 120.772 157.783, 128.207 154.788, 134.755 150.654 C 137.068 149.194, 139.338 148, 139.799 148 C 140.261 148, 145.369 152.725, 151.151 158.500 C 158.164 165.505, 162.400 169, 163.877 169 C 166.121 169, 171 164.940, 171 163.072 C 171 162.091, 157.809 147.388, 151.883 141.764 C 150.297 140.259, 149 138.767, 149 138.447 C 149 138.128, 150.075 136.434, 151.390 134.683 C 155.595 129.082, 159.930 119.318, 161.211 112.562 L 162.456 106 172.478 105.891 C 177.990 105.832, 185.200 105.494, 188.500 105.141 L 194.500 104.500 194.802 99.250 C 194.969 96.362, 194.969 93.928, 194.802 93.840 C 194.636 93.752, 187.311 93.415, 178.525 93.090 L 162.550 92.500 161.863 88.500 C 160.888 82.828, 157.195 73.382, 153.867 68.050 C 148.150 58.889, 147.626 60.596, 159.925 48.298 C 166.016 42.206, 171 36.476, 171 35.563 C 171 33.238, 165.974 29.070, 163.125 29.032 C 161.414 29.009, 157.821 31.953, 150.287 39.551 L 139.825 50.102 130.650 45.548 C 123.301 41.902, 111.310 38.123, 106.750 38.017 C 106.338 38.008, 106 30.575, 106 21.500 L 106 5 100.607 5 C 96.612 5, 95.057 5.410, 94.607 6.582" stroke="none" fill="black" fill-rule="evenodd"/>
</svg>