<?xml version="1.0" standalone="no"?>
<!DOCTYPE svg PUBLIC "-//W3C//DTD SVG 20010904//EN"
 "http://www.w3.org/TR/2001/REC-SVG-20010904/DTD/svg10.dtd">
<svg version="1.0" xmlns="http://www.w3.org/2000/svg"
 width="200.000000pt" height="200.000000pt" viewBox="0 0 200.000000 200.000000"
 preserveAspectRatio="xMidYMid meet">

<g transform="translate(0.000000,200.000000) scale(0.100000,-0.100000)"
fill="#000000" stroke="none">
<path d="M946 1873 c-3 -42 -6 -116 -6 -164 l0 -88 -37 -6 c-85 -15 -193 -60
-273 -116 -12 -9 -37 11 -128 101 -83 83 -118 111 -134 108 -28 -4 -62 -50
-54 -74 3 -11 51 -64 106 -119 55 -55 100 -103 100 -107 0 -4 -15 -31 -33 -60
-43 -69 -71 -138 -87 -214 l-12 -61 -154 -5 c-172 -5 -184 -10 -184 -68 0 -34
3 -38 31 -44 17 -3 92 -6 165 -6 152 0 144 5 158 -93 9 -61 33 -117 80 -186
20 -29 36 -55 36 -58 0 -3 -48 -54 -107 -115 -68 -68 -108 -117 -108 -130 0
-11 12 -30 27 -41 39 -29 67 -14 182 102 l98 98 49 -33 c58 -39 142 -72 222
-87 l57 -11 0 -147 c0 -185 5 -199 64 -199 l44 0 6 83 c4 45 5 122 4 172 l-3
90 40 9 c101 21 175 48 239 87 l70 42 103 -107 c56 -58 108 -107 115 -107 41
-4 78 22 78 53 0 11 -47 68 -110 132 l-110 113 31 39 c44 54 86 150 101 228
l13 66 146 0 c81 0 154 3 163 6 12 4 16 20 16 53 l0 48 -52 2 c-29 2 -102 6
-162 9 l-108 7 -19 74 c-19 76 -74 188 -112 229 l-21 23 117 117 c64 64 117
122 117 128 0 14 -64 64 -81 64 -7 0 -62 -49 -123 -110 l-112 -110 -34 23
c-55 36 -155 77 -217 89 -32 6 -63 12 -69 13 -12 3 -24 138 -24 262 l0 73 -49
0 -48 0 -7 -77z"/>
</g>
</svg>
