<?xml version="1.0" standalone="no"?>
<!DOCTYPE svg PUBLIC "-//W3C//DTD SVG 20010904//EN"
 "http://www.w3.org/TR/2001/REC-SVG-20010904/DTD/svg10.dtd">
<svg version="1.0" xmlns="http://www.w3.org/2000/svg"
 width="200.000000pt" height="200.000000pt" viewBox="0 0 200.000000 200.000000"
 preserveAspectRatio="xMidYMid meet">

<g transform="translate(0.000000,200.000000) scale(0.100000,-0.100000)"
fill="#000000" stroke="none">
<path d="M928 1973 c-36 -39 -48 -66 -58 -126 -7 -46 -5 -59 22 -117 25 -56
29 -74 26 -132 -2 -37 -6 -70 -10 -73 -13 -13 -88 53 -127 112 -62 93 -83 106
-154 99 -73 -7 -113 -34 -128 -87 -16 -50 0 -105 41 -149 30 -32 32 -33 93
-27 34 4 80 13 102 21 58 22 66 20 129 -25 61 -44 84 -81 130 -208 l26 -73
-62 -121 c-35 -66 -68 -122 -74 -124 -20 -7 -27 30 -31 167 -2 74 -9 147 -15
162 -10 28 -55 64 -65 54 -4 -3 -12 -1 -19 5 -20 16 -89 -7 -109 -37 -26 -40
-29 -86 -10 -125 27 -52 43 -66 92 -81 65 -19 83 -68 30 -82 -36 -10 -167 -7
-187 4 -10 6 -33 37 -51 70 -17 33 -35 57 -39 55 -5 -3 -10 0 -12 7 -7 19 -85
-8 -114 -39 -45 -49 -23 -165 34 -180 13 -3 50 0 81 8 62 15 279 13 320 -3 23
-8 24 -11 18 -86 -5 -66 -13 -91 -53 -170 -26 -51 -52 -91 -58 -89 -10 3 -28
45 -71 162 -10 28 -34 66 -54 85 -35 35 -43 37 -116 31 -22 -2 -75 -80 -75
-111 0 -51 68 -92 138 -83 38 5 41 4 65 -38 14 -24 33 -70 41 -102 13 -50 13
-64 1 -112 -8 -30 -30 -85 -49 -122 -61 -124 -105 -283 -77 -283 5 0 25 31 45
70 43 81 78 125 115 145 15 7 81 21 146 30 164 22 205 33 238 64 56 51 70 106
42 160 -16 32 -33 42 -89 48 -49 5 -69 -12 -108 -95 -26 -54 -37 -66 -72 -81
-48 -21 -136 -36 -136 -24 0 5 22 58 48 119 93 212 121 251 192 273 43 13 67
5 160 -49 21 -12 53 -20 80 -20 40 0 51 5 82 38 71 72 77 135 19 193 -65 66
-124 51 -192 -48 l-31 -45 -59 4 c-32 2 -61 7 -65 11 -11 11 4 49 48 127 l43
75 82 3 c96 3 114 -4 207 -83 35 -29 67 -51 71 -47 4 4 5 2 3 -4 -5 -19 109
-112 151 -124 94 -25 148 57 84 126 -26 28 -30 29 -108 26 -75 -2 -85 0 -126
27 -51 34 -105 88 -97 97 3 3 41 8 84 11 68 5 82 10 106 34 41 40 39 98 -3
133 -54 46 -107 30 -154 -45 -14 -21 -35 -45 -47 -53 -28 -18 -202 -33 -212
-18 -8 13 88 198 134 260 20 26 59 60 89 77 69 38 94 72 94 125 0 77 -44 120
-120 120 -107 0 -160 -101 -116 -223 l17 -48 -33 -62 c-19 -34 -38 -66 -42
-71 -18 -20 -70 139 -88 267 -12 87 -2 120 59 197 56 69 67 107 50 169 -25 94
-108 131 -162 74z m80 -100 c3 -34 -2 -47 -26 -74 -38 -42 -56 -32 -49 27 10
92 69 129 75 47z m-320 -246 c4 -32 -11 -62 -43 -83 -30 -19 -60 -6 -69 32
-10 38 2 64 37 79 40 17 71 5 75 -28z m614 -44 c37 -33 16 -69 -55 -94 -36
-13 -40 -12 -53 6 -19 26 -18 48 7 79 24 31 72 35 101 9z m-544 -336 c15 -18
18 -85 5 -98 -30 -30 -90 63 -63 96 15 18 44 19 58 2z m462 -422 c30 -36 -48
-123 -88 -99 -25 17 -24 28 8 72 32 44 59 53 80 27z"/>
</g>
</svg>
