<svg xmlns="http://www.w3.org/2000/svg" width="100%" height="auto" viewBox="0 0 200 200" version="1.1" preserveAspectRatio="xMidYMid meet" style="max-width: 100%; max-height: 70vh;">
	<path d="M 0 100 L 0 200 23.752 200 L 47.505 200 49.170 192.672 C 50.086 188.642, 53.459 179.529, 56.664 172.422 C 61.852 160.921, 62.493 158.782, 62.495 152.975 C 62.496 147.618, 61.908 145.256, 59.211 139.777 L 55.925 133.103 50.971 133.690 C 46.735 134.192, 45.447 133.900, 42.088 131.677 C 37.227 128.460, 36.398 126.072, 38.560 121.514 C 43.814 110.444, 55.496 110.093, 60.890 120.845 C 61.898 122.855, 63.948 128.213, 65.444 132.750 C 67.201 138.077, 68.682 141, 69.625 141 C 70.483 141, 73.007 137.027, 75.738 131.377 C 79.833 122.907, 80.397 120.941, 80.445 114.961 C 80.475 111.225, 80.211 107.878, 79.857 107.524 C 78.914 106.581, 50.527 106.507, 43.396 107.430 L 37.292 108.219 34.896 104.860 C 33.110 102.355, 32.519 100.253, 32.576 96.600 C 32.641 92.421, 33.113 91.288, 35.782 88.903 C 39.232 85.821, 45.460 84.169, 47.879 85.695 C 48.732 86.234, 50.477 88.660, 51.756 91.087 C 55.433 98.064, 56.992 99.151, 64.134 99.711 C 73.003 100.407, 77.412 99.129, 77.811 95.747 C 78.084 93.433, 77.640 92.980, 74.192 92.052 C 64.306 89.390, 59.329 80.065, 63.494 72.011 C 67.507 64.251, 77.837 63.825, 83.308 71.195 C 85.050 73.542, 85.342 75.697, 85.563 87.840 C 85.713 96.063, 86.296 102.685, 86.984 103.971 C 88.110 106.074, 88.256 105.988, 91.055 101.574 C 94.887 95.532, 101 82.410, 100.999 80.228 C 100.999 78.119, 97.725 69.287, 94.409 62.448 C 92.106 57.699, 84.515 50.633, 80.872 49.848 C 80.118 49.685, 75.225 50.588, 70 51.854 C 58.957 54.529, 56.704 54.101, 52.447 48.520 C 49.240 44.314, 48.175 36.900, 50.222 33.030 C 52.521 28.686, 57.676 26, 63.714 26 C 66.693 26, 69.955 26.441, 70.962 26.980 C 71.969 27.518, 74.813 31.026, 77.282 34.774 C 81.393 41.013, 87.518 47, 89.791 47 C 91.104 47, 92.104 35.850, 91.103 32.361 C 90.643 30.756, 89.307 27.561, 88.133 25.261 C 84.856 18.837, 85.647 12.113, 90.459 5.500 C 91.659 3.850, 92.974 1.937, 93.380 1.250 C 93.966 0.257, 84.433 -0, 47.059 -0 L 0 0 0 100 M 106.571 3.928 C 111.690 11.663, 110.741 20.071, 103.915 27.476 C 99.359 32.419, 98 35.641, 98 41.500 C 98 50.401, 104.192 73.436, 106.388 72.704 C 106.940 72.520, 108.922 69.582, 110.791 66.176 C 113.891 60.527, 114.084 59.697, 112.994 56.741 C 110.663 50.419, 110.192 46.889, 111.187 43.201 C 113.322 35.291, 121.189 30.778, 128.547 33.240 C 133.158 34.784, 135.990 38.408, 136.632 43.587 C 137.368 49.520, 134.540 53.750, 127.112 57.826 C 120.031 61.711, 116.189 66.684, 108.624 81.750 L 103.980 91 113.040 91 C 123.432 91, 127.104 89.634, 129.580 84.846 C 132.233 79.714, 135.842 77, 140.011 77 C 147.409 77, 151.698 83.620, 148.569 90.212 C 146.443 94.693, 143.779 96.134, 136.588 96.690 C 127.270 97.412, 127.150 97.541, 131.580 102.119 C 137.726 108.470, 141.837 110.171, 149.262 109.434 C 157.252 108.641, 160.658 109.938, 162.565 114.502 C 164.462 119.042, 163.506 122.687, 159.932 124.535 C 153.698 127.759, 149.416 125.894, 137 114.547 C 131.775 109.772, 125.475 104.438, 123 102.695 C 118.848 99.769, 117.874 99.523, 110.404 99.512 C 104.999 99.504, 101.758 99.956, 100.655 100.871 C 98.614 102.565, 90.834 117.922, 91.483 118.973 C 92.180 120.100, 99.674 121.120, 102.340 120.451 C 103.607 120.133, 105.371 118.664, 106.259 117.186 C 107.147 115.709, 109.227 113.038, 110.881 111.250 C 113.444 108.479, 114.574 108, 118.544 108 C 122.537 108, 123.701 108.501, 126.722 111.522 C 130.051 114.851, 130.219 115.340, 129.796 120.450 C 129.103 128.808, 122.535 136, 115.597 136 C 114.221 136, 109.677 134.200, 105.500 132 C 101.323 129.800, 96.554 128, 94.903 128 C 90.781 128, 86.598 130.350, 83.509 134.399 C 80.096 138.874, 67.780 166.185, 68.748 167.133 C 69.771 168.135, 80.536 165.534, 83.557 163.554 C 84.899 162.675, 87.533 158.906, 89.410 155.179 C 93.423 147.210, 96.143 145.423, 101.898 146.973 C 111.660 149.601, 113.180 160.907, 104.821 168.712 C 102.052 171.297, 93.532 173.450, 79.550 175.097 C 67.647 176.499, 63.921 177.909, 60.672 182.238 C 58.435 185.218, 53.587 193.965, 51.796 198.250 C 51.103 199.908, 54.999 200, 125.532 200 L 200 200 200 100 L 200 0 151.986 -0 L 103.972 -0 106.571 3.928 M 94.900 11.681 C 94.294 13.231, 93.559 16.188, 93.267 18.250 C 92.808 21.497, 93.002 22, 94.713 22 C 97.873 22, 100.319 18.456, 100.414 13.740 C 100.488 10.074, 100.195 9.457, 98.252 9.181 C 96.565 8.941, 95.728 9.565, 94.900 11.681 M 60.250 35.220 C 58.526 36.052, 58 37.159, 58 39.953 C 58 46.479, 62.979 48.224, 66.812 43.040 C 71.683 36.452, 67.654 31.650, 60.250 35.220 M 121 42 C 118.560 44.440, 118.264 50.504, 120.543 51.378 C 122.396 52.089, 130.950 48.256, 131.118 46.640 C 131.742 40.637, 125.312 37.688, 121 42 M 71.250 74.731 C 67.902 75.898, 71.276 85, 75.057 85 C 76.638 85, 76.997 84.302, 76.985 81.250 C 76.964 76.093, 74.705 73.526, 71.250 74.731 M 114.513 119.980 C 113.131 122.169, 112 124.596, 112 125.373 C 112 130.026, 121.261 125.506, 121.830 120.576 C 122.153 117.780, 120.797 116.047, 118.263 116.015 C 117.582 116.007, 115.894 117.791, 114.513 119.980" stroke="none" fill="black" fill-rule="evenodd"/>
</svg>