<svg xmlns="http://www.w3.org/2000/svg" width="100%" height="auto" viewBox="0 0 200 200" version="1.1" preserveAspectRatio="xMidYMid meet" style="max-width: 100%; max-height: 70vh;">
	<path d="M 0.079 46.250 C 0.122 71.688, 0.385 91.938, 0.662 91.250 C 1.390 89.446, 11.946 89.662, 16.523 91.574 C 20.402 93.195, 21.944 92.539, 21.985 89.250 C 22.031 85.466, 33.245 90.172, 38.924 96.359 C 41.963 99.670, 43.782 99.715, 44.589 96.500 C 44.934 95.125, 45.825 94, 46.568 94 C 48.178 94, 54.528 100.676, 57.270 105.251 C 58.342 107.038, 59.920 109.294, 60.778 110.266 C 62.264 111.947, 62.443 111.933, 64.537 109.965 L 66.737 107.899 69.416 111.083 C 74.102 116.651, 76.049 121.798, 79.162 136.834 C 82.276 151.871, 84.202 158, 85.814 158 C 87.090 158, 88.095 136.093, 87.533 120.500 L 87.065 107.500 79.531 102 C 71.323 96.007, 63.848 86.400, 57.447 73.616 C 52.988 64.710, 53.029 64, 58 64 C 62.261 64, 62.768 63.159, 61.123 58.815 C 60.641 57.542, 59.919 52.788, 59.519 48.250 C 58.843 40.582, 58.925 40, 60.673 40 C 61.708 40, 63.559 40.703, 64.785 41.562 C 67.412 43.402, 67.056 44.063, 70.364 31.205 C 71.680 26.093, 73.036 21.630, 73.379 21.287 C 73.722 20.944, 75.127 21.265, 76.500 22 C 77.873 22.735, 79.111 23.148, 79.249 22.918 C 80.163 21.406, 90 0.881, 90 0.488 C 90 0.220, 69.750 0, 45 0 L 0 0 0.079 46.250 M 96 0.514 C 96 0.796, 96.442 1.809, 96.982 2.764 C 97.522 3.719, 99.743 8.438, 101.918 13.250 C 104.092 18.063, 106.260 22, 106.735 22 C 107.211 22, 108.172 21.438, 108.871 20.750 C 110.956 18.700, 113.578 23.016, 115.541 31.732 C 116.504 36.004, 117.301 40.063, 117.312 40.750 C 117.338 42.288, 118.249 42.351, 119.685 40.915 C 120.281 40.319, 121.834 39.981, 123.135 40.165 C 125.412 40.487, 125.494 40.799, 125.350 48.500 C 125.268 52.900, 124.881 58.189, 124.491 60.253 C 123.805 63.875, 123.892 64.028, 126.976 64.645 C 128.734 64.997, 130.396 65.867, 130.669 66.580 C 131.357 68.373, 124.007 82.119, 118.046 90.185 C 113.688 96.081, 109.091 100.322, 100.681 106.205 C 98.247 107.907, 98.243 107.938, 97.791 130.205 C 97.543 142.467, 97.536 153.063, 97.777 153.750 C 98.591 156.076, 100.798 155.018, 101.947 151.750 C 102.575 149.963, 104.161 143.458, 105.471 137.297 C 109.218 119.676, 116.099 107.234, 121.366 108.556 C 123.393 109.064, 124.136 108.546, 125.987 105.331 C 128.522 100.929, 139.472 91.556, 140.986 92.491 C 141.544 92.836, 142 93.781, 142 94.590 C 142 97.368, 144.956 97.203, 148.730 94.214 C 158.350 86.596, 165 85.310, 165 91.067 C 165 92.680, 165.113 93.998, 165.250 93.996 C 165.387 93.993, 168.650 92.878, 172.500 91.517 C 179.616 89.001, 186.428 88.266, 187.441 89.904 C 187.748 90.402, 185.975 94.647, 183.500 99.339 C 181.025 104.031, 179 108.124, 179 108.435 C 179 108.746, 179.863 109, 180.918 109 C 187.950 109, 187.496 112.452, 179.500 119.779 C 172.782 125.935, 171.940 127.379, 174.500 128.362 C 176.760 129.229, 176.303 133.487, 173.604 136.694 C 172.286 138.260, 169.097 140.596, 166.517 141.884 C 161.816 144.232, 161.616 144.704, 163.446 149.125 C 164.308 151.208, 149.731 161.652, 143.061 163.730 C 137.097 165.588, 127.503 164.758, 117.149 161.487 C 112.785 160.109, 108.475 159.264, 107.572 159.611 C 106.669 159.957, 104.571 162.216, 102.910 164.630 C 100.030 168.817, 98.698 173.591, 97.441 184.238 C 96.743 190.148, 94.992 192.091, 91.262 191.098 C 88.588 190.386, 88.481 190.095, 87.912 181.931 C 87.301 173.177, 85.957 169.479, 81.428 164.097 C 77.033 158.874, 75.797 158.620, 68.176 161.368 C 58.359 164.909, 53.617 165.375, 45.237 163.622 C 39.483 162.418, 36.603 161.104, 31.382 157.301 C 19.891 148.931, 20.566 149.673, 22.124 147.133 C 23.344 145.144, 23.286 144.768, 21.613 143.818 C 18.669 142.148, 12.010 135.887, 10.829 133.680 C 9.956 132.050, 10.176 131.375, 12.040 129.970 L 14.316 128.253 9.838 123.376 C 4.712 117.795, 1 112.664, 1 111.159 C 1 110.537, 2.393 110.352, 4.500 110.694 C 7.202 111.132, 8 110.918, 8 109.756 C 8 108.006, 1.306 93, 0.525 93 C 0.236 93, -0 117.077, -0 146.505 L -0 200.010 100.250 199.755 L 200.500 199.500 200.836 192 C 201.020 187.875, 200.853 142.988, 200.464 92.250 L 199.757 0 147.878 0 C 119.345 0, 96 0.231, 96 0.514 M 0.466 146.500 C 0.466 176.200, 0.594 188.206, 0.749 173.179 C 0.905 158.153, 0.905 133.853, 0.749 119.179 C 0.593 104.506, 0.466 116.800, 0.466 146.500" stroke="none" fill="black" fill-rule="evenodd"/>
</svg>