<?xml version="1.0" standalone="no"?>
<!DOCTYPE svg PUBLIC "-//W3C//DTD SVG 20010904//EN"
 "http://www.w3.org/TR/2001/REC-SVG-20010904/DTD/svg10.dtd">
<svg version="1.0" xmlns="http://www.w3.org/2000/svg"
 width="200.000000pt" height="200.000000pt" viewBox="0 0 200.000000 200.000000"
 preserveAspectRatio="xMidYMid meet">

<g transform="translate(0.000000,200.000000) scale(0.100000,-0.100000)"
fill="#000000" stroke="none">
<path d="M893 1968 c-48 -93 -93 -188 -93 -197 0 -14 -17 -14 -25 -1 -13 21
-37 9 -51 -25 -8 -19 -21 -65 -28 -101 -8 -36 -17 -68 -20 -72 -4 -3 -20 2
-35 11 -16 9 -32 17 -36 17 -10 0 -3 -142 10 -187 7 -23 10 -44 7 -47 -3 -4
-20 -6 -39 -6 -45 0 -44 -22 7 -118 62 -120 135 -210 215 -265 l70 -48 3 -253
c3 -184 1 -256 -8 -261 -26 -16 -52 57 -91 258 -21 111 -48 174 -92 213 -26
24 -31 25 -39 10 -16 -29 -35 -17 -77 47 -23 35 -51 73 -64 84 -24 22 -57 27
-57 8 0 -7 -7 -18 -16 -25 -13 -11 -19 -8 -43 21 -29 35 -116 87 -138 84 -7
-2 -17 -3 -23 -4 -5 0 -10 -12 -10 -26 0 -25 0 -25 -36 -10 -49 20 -174 30
-174 14 0 -7 15 -45 34 -85 48 -99 48 -108 9 -112 -19 -2 -33 -9 -33 -16 0
-15 79 -116 91 -116 4 0 14 -11 23 -25 16 -24 16 -26 -9 -35 -34 -13 -24 -31
55 -103 35 -32 57 -58 51 -62 -16 -9 -13 -45 3 -45 8 0 16 -3 18 -7 9 -21 123
-96 164 -109 70 -21 174 -18 242 7 99 37 103 36 151 -16 55 -60 71 -100 71
-179 0 -86 5 -96 48 -96 19 0 32 3 29 6 -3 4 -2 14 3 24 5 9 12 46 16 81 7 74
29 130 68 177 32 37 52 39 121 13 28 -10 85 -24 128 -31 94 -14 159 1 228 53
24 18 59 42 77 53 30 17 32 22 27 56 -6 36 -6 37 43 62 49 25 92 70 92 97 0 7
-9 23 -21 35 l-21 22 28 24 c62 50 114 106 114 122 0 9 -3 15 -7 15 -5 -1 -20
-1 -35 0 -38 1 -36 19 12 106 22 40 40 78 40 84 0 20 -101 12 -162 -13 l-57
-23 -3 31 c-2 26 -8 32 -31 34 -31 4 -99 -32 -135 -71 -26 -28 -58 -26 -67 4
-4 10 -9 19 -13 19 -20 0 -111 -82 -140 -125 -19 -28 -35 -50 -36 -50 -2 0
-10 6 -19 13 -13 11 -19 9 -37 -10 -40 -43 -82 -140 -106 -252 -29 -130 -52
-206 -64 -206 -29 0 -30 23 -20 476 0 7 24 27 52 45 64 41 118 96 169 171 38
56 109 186 109 200 0 4 -15 11 -32 16 -32 8 -33 10 -30 53 9 146 4 199 -19
199 -9 0 -22 -7 -29 -15 -20 -24 -25 -18 -38 53 -15 80 -33 132 -45 132 -4 0
-5 5 -2 10 10 16 -16 12 -35 -5 -15 -14 -21 -6 -65 92 -26 60 -52 114 -58 121
-17 22 -46 13 -64 -20z"/>
</g>
</svg>
