<svg xmlns="http://www.w3.org/2000/svg" width="100%" height="auto" viewBox="0 0 200 200" version="1.1" preserveAspectRatio="xMidYMid meet" style="max-width: 100%; max-height: 70vh;">
	<path d="M -0 100.005 L -0 200.010 100.250 199.755 L 200.500 199.500 200.755 99.750 L 201.010 0 100.505 0 L 0 0 -0 100.005 M 0.481 100.500 C 0.481 155.500, 0.602 178.147, 0.750 150.826 C 0.898 123.506, 0.898 78.506, 0.750 50.826 C 0.602 23.147, 0.481 45.500, 0.481 100.500 M 110.648 44.027 C 106.494 45.272, 101.639 48.854, 99.117 52.534 C 92.728 61.858, 97.727 74.945, 108.336 76.667 C 112.212 77.296, 117.076 75.157, 119.439 71.783 C 121.409 68.971, 121.407 67.550, 119.429 65.571 C 117.201 63.344, 115.440 63.613, 112.664 66.607 C 108.404 71.201, 103.162 67.279, 104.442 60.455 C 105.816 53.133, 114.581 49.394, 122.334 52.824 C 127.441 55.083, 131 60.553, 131 66.144 C 131 71.459, 127.321 77.728, 122.566 80.514 L 118.324 83 80.596 83 C 56.502 83, 42.170 83.374, 40.934 84.035 C 38.362 85.412, 38.423 89.621, 41.036 91.019 C 42.433 91.767, 55.073 92.013, 81.286 91.804 C 117.597 91.515, 119.724 91.396, 124 89.410 C 129.077 87.052, 135.497 80.448, 137.597 75.422 C 139.574 70.691, 139.335 61.335, 137.114 56.444 C 132.728 46.788, 120.530 41.065, 110.648 44.027 M 37.088 102.393 C 36.405 103.216, 35.994 104.927, 36.173 106.195 L 36.500 108.500 85.995 109.298 L 135.489 110.097 139.847 112.650 C 145.589 116.015, 149.520 123.961, 148.482 130.104 C 147.157 137.947, 138.984 143.970, 131.557 142.577 C 123.746 141.111, 120.140 132.866, 125.750 129.296 C 129.313 127.029, 129.861 126.183, 129.258 123.878 C 128.056 119.280, 119.408 121.377, 116.517 126.967 C 114.616 130.644, 114.562 137.257, 116.405 140.800 C 122.529 152.571, 140.752 154.478, 150.455 144.365 C 160.078 134.334, 158.886 116.622, 148.010 108.008 C 139.557 101.313, 141.494 101.531, 87.415 101.198 C 44.804 100.937, 38.167 101.094, 37.088 102.393 M 58.742 120.900 C 55.810 121.844, 55.229 125.086, 57.571 127.429 C 58.851 128.708, 61.754 129, 73.203 129 C 88.915 129, 92.585 130.170, 94.976 135.943 C 98.657 144.828, 88.241 152.910, 80.727 147 C 77.595 144.536, 75.358 144.451, 74.153 146.750 C 72.147 150.578, 77.081 156.230, 83.476 157.430 C 87.809 158.242, 93.857 156.687, 97.495 153.825 C 100.918 151.132, 103.956 144.633, 103.956 140 C 103.956 132.300, 96.635 122.753, 89.771 121.503 C 85.948 120.806, 60.565 120.313, 58.742 120.900" stroke="none" fill="black" fill-rule="evenodd"/>
</svg>