<svg xmlns="http://www.w3.org/2000/svg" width="100%" height="auto" viewBox="0 0 200 200" version="1.1" preserveAspectRatio="xMidYMid meet" style="max-width: 100%; max-height: 70vh;">
	<path d="M 0 100 L 0 200 50.115 200 L 100.230 200 99.524 194.343 C 98.628 187.171, 98.239 186.211, 95.935 185.479 C 94.901 185.151, 92.589 182.097, 90.797 178.691 C 87.647 172.703, 80.533 164.952, 66.178 151.869 C 62.155 148.202, 60 145.463, 60 144.018 C 60 142.731, 61.890 139.882, 64.500 137.235 C 66.975 134.724, 69 132.324, 69 131.900 C 69 131.477, 64.139 127.316, 58.198 122.655 C 46.153 113.206, 41.070 108.017, 38.043 102.085 C 33.751 93.671, 36.428 87.934, 47.019 82.850 C 50.858 81.008, 54 79.208, 54 78.850 C 54 78.493, 52.460 75.912, 50.577 73.115 C 46.353 66.838, 42.904 58.016, 42.252 51.825 C 41.830 47.818, 42.113 46.796, 44.232 44.677 C 46.358 42.551, 47.952 42.114, 55.602 41.558 C 60.496 41.202, 65.175 40.548, 66 40.104 C 66.853 39.645, 67.854 36.970, 68.320 33.899 C 69.643 25.192, 69.922 24.221, 71.573 22.570 C 72.455 21.688, 74.827 21, 76.990 21 C 82.058 21, 84 20.173, 84 18.015 C 84 14.545, 87.238 8.435, 91.296 4.250 L 95.416 -0 47.708 -0 L 0 0 0 100 M 110.078 2.274 C 114.467 5.232, 117.876 10.371, 118.647 15.193 C 119.384 19.803, 119.971 20.239, 125.762 20.480 C 132.329 20.754, 133.903 23.136, 135.489 35.200 C 136.207 40.655, 136.053 40.580, 148.348 41.520 C 158.991 42.333, 161 43.730, 161 50.318 C 161 56.641, 158.645 63.529, 153.612 71.932 L 149.160 79.364 157.163 83.258 C 163.870 86.522, 165.408 87.732, 166.664 90.738 C 170.005 98.733, 165.271 105.915, 146.991 120.589 C 140.396 125.883, 135 130.678, 135 131.245 C 135 131.812, 136.800 134.229, 139 136.616 C 141.200 139.003, 143 141.663, 143 142.527 C 143 146.008, 139.609 150.210, 132.246 155.852 C 122.256 163.506, 118.885 167.143, 114.958 174.500 C 110.051 183.693, 109.080 185.019, 106.559 185.978 C 104.720 186.677, 104.134 187.785, 103.805 191.183 C 103.575 193.557, 103.577 196.513, 103.810 197.750 L 104.233 200 152.117 200 L 200 200 200 100 L 200 0 153.352 0 L 106.704 0 110.078 2.274 M 91.971 9.750 C 89.032 12.539, 87.671 14.893, 86.663 18.933 C 85.198 24.800, 83.963 25.799, 78 25.945 C 73.077 26.065, 72.385 26.807, 71.608 32.789 C 70.165 43.898, 68.359 45.483, 55.482 46.946 C 49.358 47.641, 46.131 48.470, 45.341 49.550 C 43.576 51.961, 48.020 64.008, 53.983 72.974 C 57.264 77.909, 58.616 80.784, 57.962 81.438 C 57.417 81.983, 53.518 84.245, 49.298 86.464 C 45.077 88.684, 40.773 91.667, 39.733 93.094 C 38.009 95.459, 37.970 95.988, 39.289 99.094 C 41.280 103.780, 47.771 110.872, 55.781 117.111 C 72.479 130.119, 73.916 133.035, 67.001 139.882 C 64.483 142.375, 63.219 144.407, 63.588 145.369 C 63.911 146.210, 68.173 150.317, 73.059 154.496 C 82.850 162.870, 86.998 167.613, 92.082 176.250 C 96.490 183.738, 98.509 183.919, 97.648 176.750 C 97.301 173.863, 97.013 168.244, 97.009 164.263 L 97 157.027 93.250 155.375 C 91.188 154.467, 85.711 152.323, 81.080 150.612 C 76.449 148.900, 72.451 146.868, 72.195 146.095 C 71.469 143.901, 80.519 145.348, 89.191 148.811 L 96.500 151.731 96.783 140.187 L 97.067 128.644 92.783 124.252 C 82.185 113.386, 68.066 105.166, 54.442 101.930 C 43.728 99.385, 43 99.097, 43 97.393 C 43 94.396, 59.840 97.181, 70.663 101.969 C 76.414 104.513, 86.175 111.082, 91.728 116.145 C 94.053 118.265, 96.470 120, 97.099 120 C 97.927 120, 98.127 115.668, 97.822 104.321 L 97.401 88.642 88.950 80.704 C 75.760 68.315, 67.417 62.955, 50.750 56.163 C 46.013 54.233, 47.384 52.661, 53.138 53.424 C 63.033 54.737, 78.600 63.803, 89.719 74.729 C 91.830 76.803, 94.615 79.400, 95.908 80.500 L 98.260 82.500 97.792 64.223 L 97.323 45.947 94.529 43.031 C 92.993 41.427, 88.420 38.657, 84.368 36.876 C 79.097 34.560, 77 33.121, 77 31.819 C 77 30.819, 77.605 30, 78.343 30 C 80.958 30, 91.548 34.097, 95.227 36.532 C 99.433 39.315, 102.598 39.662, 104.921 37.595 C 107.507 35.294, 118.586 30, 120.815 30 C 123.192 30, 124.173 31.111, 123.184 32.681 C 122.808 33.279, 119.575 35.098, 116 36.724 C 112.425 38.350, 108.037 41.058, 106.250 42.741 L 103 45.802 103 63.401 C 103 73.081, 103.202 81, 103.449 81 C 103.696 81, 108.308 77.161, 113.699 72.469 C 126.917 60.964, 139.576 53.710, 147.938 52.849 C 154.273 52.197, 152.016 54.485, 141.168 59.711 C 129.805 65.186, 122.486 70.485, 110.308 82.053 L 102.951 89.041 103.225 105.010 L 103.500 120.978 111.500 114.430 C 125.061 103.330, 138.221 97.222, 152.348 95.470 C 157.704 94.806, 158.166 94.901, 157.839 96.597 C 157.566 98.015, 155.379 98.980, 148.491 100.724 C 135.758 103.947, 126.638 108.782, 114.540 118.724 C 106.038 125.711, 103.903 127.999, 103.404 130.661 C 102.684 134.497, 103.224 149.557, 104.113 150.447 C 104.446 150.780, 108.045 149.728, 112.109 148.110 C 120.187 144.894, 129 143.148, 129 144.764 C 129 146.443, 126.793 147.663, 119 150.292 C 106.985 154.346, 104.306 155.727, 103.641 158.210 C 103.303 159.470, 103.028 165, 103.029 170.500 C 103.031 185.121, 104.535 186.145, 109.855 175.147 C 113.636 167.331, 118.672 161.076, 125.386 155.855 C 135.764 147.787, 138 145.786, 138 144.567 C 138 143.882, 136.235 141.688, 134.077 139.692 C 131.920 137.696, 129.860 135.134, 129.500 133.999 C 128.446 130.680, 132.054 126.225, 143.671 116.501 C 154.486 107.448, 159.387 101.742, 160.538 96.863 C 161.369 93.340, 159.039 91.276, 148.429 86.137 C 143.793 83.892, 140 81.560, 140 80.956 C 140 80.353, 141.973 77.078, 144.384 73.679 C 149.377 66.642, 152.563 59.443, 153.432 53.231 C 153.981 49.313, 153.817 48.881, 151.450 47.981 C 150.031 47.441, 146.185 47, 142.903 47 C 136.941 47, 130.867 45.212, 129.542 43.068 C 129.155 42.443, 128.416 38.944, 127.899 35.294 C 127.382 31.643, 126.481 28.080, 125.897 27.375 C 125.312 26.671, 122.334 25.961, 119.279 25.797 L 113.725 25.500 111.476 18.546 C 107.357 5.810, 99.742 2.376, 91.971 9.750" stroke="none" fill="black" fill-rule="evenodd"/>
</svg>