<?xml version="1.0" standalone="no"?>
<!DOCTYPE svg PUBLIC "-//W3C//DTD SVG 20010904//EN"
 "http://www.w3.org/TR/2001/REC-SVG-20010904/DTD/svg10.dtd">
<svg version="1.0" xmlns="http://www.w3.org/2000/svg"
 width="200.000000pt" height="200.000000pt" viewBox="0 0 200.000000 200.000000"
 preserveAspectRatio="xMidYMid meet">

<g transform="translate(0.000000,200.000000) scale(0.100000,-0.100000)"
fill="#000000" stroke="none">
<path d="M923 1964 c-29 -24 -48 -52 -62 -90 -25 -65 -25 -64 -6 -64 10 0 15
10 15 27 0 32 64 99 105 109 61 15 122 -41 146 -138 7 -26 17 -48 21 -48 5 0
6 -4 3 -10 -4 -6 14 -10 48 -10 68 0 82 -15 91 -95 10 -89 27 -102 151 -112
l100 -8 -3 -55 c-3 -71 -14 -98 -79 -197 -29 -44 -53 -84 -53 -87 0 -10 81
-47 90 -41 6 3 10 1 10 -4 0 -6 4 -11 9 -11 6 0 30 -12 55 -27 90 -55 57 -115
-173 -312 -70 -60 -101 -103 -94 -131 3 -10 22 -34 44 -53 21 -20 39 -42 39
-49 0 -17 -46 -61 -124 -119 -68 -50 -115 -109 -152 -188 -30 -63 -53 -93 -65
-85 -5 3 -9 66 -9 139 l0 135 38 15 c20 9 76 30 124 47 96 33 128 63 55 52
-46 -7 -147 -41 -161 -55 -6 -5 -20 -9 -33 -9 -23 0 -23 1 -23 120 0 105 2
120 18 129 10 5 58 44 108 85 108 92 199 139 321 169 101 24 131 47 60 47 -45
0 -160 -28 -217 -52 -49 -21 -133 -76 -215 -142 -67 -53 -70 -55 -78 -33 -5
12 -7 84 -5 160 l3 137 85 81 c123 116 172 151 298 213 61 31 112 59 112 62 0
12 -94 -8 -146 -31 -74 -33 -155 -90 -254 -180 -72 -66 -85 -74 -91 -58 -11
27 -10 293 1 333 11 41 76 90 153 116 50 17 64 44 23 44 -31 0 -112 -35 -153
-66 -40 -30 -49 -30 -101 5 -55 38 -182 75 -182 54 0 -9 29 -33 40 -33 19 0
127 -60 147 -82 16 -18 18 -44 21 -212 l3 -191 -63 61 c-139 134 -278 221
-385 239 -50 8 -59 -9 -15 -27 88 -36 157 -71 199 -100 27 -18 49 -32 50 -31
1 1 41 -36 90 -82 48 -47 93 -84 99 -85 21 0 24 -28 24 -196 l0 -164 -36 32
c-106 96 -254 183 -354 206 -85 20 -163 26 -158 11 6 -18 24 -25 108 -45 88
-19 162 -50 225 -94 25 -17 45 -29 45 -26 0 3 30 -24 68 -59 37 -36 72 -65 78
-65 21 0 35 -242 15 -254 -5 -3 -31 4 -57 16 -56 24 -139 48 -171 48 -31 0
-19 -26 15 -35 31 -8 205 -75 212 -82 3 -2 8 -77 12 -166 8 -186 18 -259 36
-265 9 -3 12 14 12 62 0 65 1 66 33 79 24 11 41 31 71 88 54 103 78 131 160
193 92 70 115 92 127 123 11 29 -6 67 -45 100 -14 13 -26 30 -26 38 0 8 35 43
77 77 147 121 176 148 210 194 37 53 44 113 18 151 -17 24 -87 65 -140 83
l-36 12 24 31 c44 60 77 125 92 183 20 79 19 106 -7 136 -21 23 -33 26 -117
31 -52 3 -98 10 -104 16 -6 6 -14 39 -19 73 -8 61 -33 112 -57 114 -6 1 -31 2
-55 3 l-44 1 -6 44 c-7 46 -58 136 -76 136 -7 0 -18 7 -26 15 -10 10 -34 15
-67 15 -45 0 -58 -5 -94 -36z"/>
<path d="M781 1790 c-29 -5 -59 -14 -67 -22 -7 -7 -17 -46 -23 -87 -5 -40 -13
-77 -18 -81 -4 -4 -53 -12 -108 -18 -89 -9 -101 -12 -122 -37 -29 -33 -21 -50
16 -31 15 8 60 18 101 22 41 4 85 10 97 15 28 10 53 68 53 123 0 57 9 66 71
73 57 6 79 17 79 39 0 15 0 15 -79 4z"/>
<path d="M420 1488 c0 -2 9 -31 20 -65 22 -71 48 -123 84 -172 14 -19 23 -38
20 -43 -3 -5 -29 -19 -57 -32 -184 -82 -161 -194 80 -386 63 -50 117 -98 120
-107 4 -11 -7 -28 -34 -52 -37 -33 -60 -76 -44 -83 3 -2 13 -15 21 -29 8 -15
58 -63 111 -107 89 -75 116 -108 196 -240 8 -12 19 -20 24 -16 7 4 1 17 -14
33 -14 14 -33 42 -42 61 -10 19 -22 38 -27 41 -5 3 -19 22 -31 41 -12 20 -68
77 -125 128 l-104 93 46 46 c71 72 65 88 -66 191 -177 139 -241 228 -205 284
9 14 55 44 102 67 47 23 85 48 85 54 0 7 -15 32 -33 56 -45 61 -84 137 -92
182 -4 20 -11 37 -17 37 -5 0 -6 5 -3 10 3 6 1 10 -4 10 -6 0 -11 -1 -11 -2z"/>
</g>
</svg>
