<?xml version="1.0" standalone="no"?>
<!DOCTYPE svg PUBLIC "-//W3C//DTD SVG 20010904//EN"
 "http://www.w3.org/TR/2001/REC-SVG-20010904/DTD/svg10.dtd">
<svg version="1.0" xmlns="http://www.w3.org/2000/svg"
 width="200.000000pt" height="200.000000pt" viewBox="0 0 200.000000 200.000000"
 preserveAspectRatio="xMidYMid meet">

<g transform="translate(0.000000,200.000000) scale(0.100000,-0.100000)"
fill="#000000" stroke="none">
<path d="M1163 1925 c-46 -50 -134 -240 -163 -356 -27 -104 -38 -288 -21 -354
7 -26 10 -49 8 -51 -2 -2 -24 26 -49 63 -148 222 -329 342 -515 343 -50 0 -53
-1 -53 -25 0 -72 97 -234 190 -318 102 -92 189 -125 342 -129 65 -2 88 -6 88
-16 0 -18 -64 -156 -89 -191 -21 -30 -29 -77 -11 -66 6 3 10 1 10 -4 0 -6 8
-11 18 -11 16 0 82 94 82 117 0 5 6 18 14 29 14 19 15 19 23 -1 15 -36 67
-115 80 -119 6 -3 22 4 34 15 23 20 23 21 5 52 -50 86 -60 107 -84 167 -24 61
-26 76 -26 235 0 154 3 179 28 269 15 55 51 149 81 209 30 60 55 117 55 127 0
21 -31 32 -47 15z"/>
<path d="M1230 864 c-102 -44 -140 -111 -148 -255 -4 -80 -1 -109 17 -167 76
-252 306 -360 452 -213 73 72 95 179 69 336 -34 209 -238 365 -390 299z"/>
<path d="M658 814 c-159 -49 -292 -313 -260 -517 13 -87 55 -170 105 -211 36
-28 45 -31 110 -30 57 1 84 7 129 28 140 68 238 241 238 418 0 142 -42 243
-125 300 -47 32 -118 36 -197 12z"/>
</g>
</svg>
