<svg xmlns="http://www.w3.org/2000/svg" width="100%" height="auto" viewBox="0 0 200 200" version="1.1" preserveAspectRatio="xMidYMid meet" style="max-width: 100%; max-height: 70vh;">
	<path d="M -0 100.005 L -0 200.010 100.250 199.755 L 200.500 199.500 200.755 99.750 L 201.010 0 100.505 0 L 0 0 -0 100.005 M 0.481 100.500 C 0.481 155.500, 0.602 178.147, 0.750 150.826 C 0.898 123.506, 0.898 78.506, 0.750 50.826 C 0.602 23.147, 0.481 45.500, 0.481 100.500 M 111.746 13.776 C 100.706 33.409, 96.679 48.588, 97.175 68.701 C 97.354 75.962, 97.232 81.587, 96.905 81.201 C 96.578 80.816, 93.927 77.003, 91.015 72.728 C 78.695 54.646, 60.707 43.533, 42.500 42.756 L 36.500 42.500 36.753 46 C 37.228 52.579, 44.619 65.623, 52.611 73.988 C 64.031 85.942, 75.668 90.940, 92.180 90.983 L 98.860 91 98.058 93.799 C 97.008 97.460, 91.570 108.390, 89.011 111.984 C 86.384 115.673, 86.471 116.607, 89.633 118.679 C 92.221 120.375, 92.306 120.354, 94.653 117.452 C 95.967 115.828, 98.170 112.138, 99.550 109.250 C 100.930 106.362, 102.206 104, 102.387 104 C 102.568 104, 104.352 106.651, 106.352 109.891 C 110.742 117.003, 112.535 117.920, 115.758 114.696 L 118.143 112.312 114.931 107.553 C 106.179 94.585, 102.709 78.012, 104.863 59.478 C 106.617 44.392, 109.344 35.104, 116.255 20.682 C 121.328 10.097, 122.146 7.704, 120.949 6.947 C 117.681 4.880, 116.081 6.067, 111.746 13.776 M 121.557 114.047 C 113.561 118.036, 109.926 123.378, 108.007 133.961 C 104.534 153.115, 116.285 177.161, 131.684 182.408 C 143.512 186.438, 153.583 182.593, 159.589 171.754 C 162.394 166.692, 162.498 166.025, 162.457 153.500 C 162.419 142.243, 162.096 139.696, 160.044 134.500 C 157.227 127.367, 147.570 117.067, 140.829 114.008 C 135.143 111.428, 126.773 111.445, 121.557 114.047 M 65.698 118.444 C 56.884 121.588, 50.637 127.771, 45.050 138.878 C 36.983 154.916, 37.092 173.922, 45.321 186.271 C 55.038 200.852, 77.396 196.637, 89.934 177.861 C 95.608 169.364, 98 160.954, 98 149.500 C 98 136.746, 95.532 128.893, 89.785 123.359 C 87.428 121.090, 84.517 118.731, 83.316 118.117 C 80.346 116.599, 70.351 116.784, 65.698 118.444" stroke="none" fill="black" fill-rule="evenodd"/>
</svg>