<?xml version="1.0" standalone="no"?>
<!DOCTYPE svg PUBLIC "-//W3C//DTD SVG 20010904//EN"
 "http://www.w3.org/TR/2001/REC-SVG-20010904/DTD/svg10.dtd">
<svg version="1.0" xmlns="http://www.w3.org/2000/svg"
 width="200.000000pt" height="200.000000pt" viewBox="0 0 200.000000 200.000000"
 preserveAspectRatio="xMidYMid meet">

<g transform="translate(0.000000,200.000000) scale(0.100000,-0.100000)"
fill="currentColor" stroke="none">
<path d="M944 1846 c-9 -25 12 -249 41 -421 24 -141 33 -230 24 -239 -2 -3
-44 94 -93 214 -48 121 -95 227 -103 237 -49 60 48 -210 144 -401 62 -124 62
-109 16 -304 -15 -62 -30 -109 -34 -105 -4 5 -23 69 -44 143 -40 147 -141 439
-158 455 -25 25 10 -109 98 -374 l94 -286 -31 -87 c-18 -48 -35 -84 -39 -80
-4 4 -53 144 -108 312 -101 304 -115 339 -126 329 -12 -13 58 -247 138 -463
l86 -230 -30 -58 c-45 -89 -106 -186 -160 -254 -52 -66 -61 -94 -29 -94 24 0
79 66 146 173 l51 82 154 90 c184 108 412 261 453 304 66 69 -15 24 -294 -164
-160 -108 -290 -194 -290 -191 0 2 14 33 31 69 27 59 40 73 125 137 126 94
279 227 387 334 90 89 107 120 41 73 -31 -22 -271 -229 -452 -390 -30 -27 -56
-47 -58 -45 -2 3 10 39 26 82 30 78 31 78 284 329 232 230 292 297 268 297
-22 0 -171 -142 -331 -314 -95 -103 -175 -186 -176 -184 -9 8 47 204 63 222
190 216 255 296 340 420 138 199 -3 62 -198 -193 -66 -86 -127 -165 -135 -176
-15 -19 -16 -18 -10 20 3 22 72 171 152 330 80 160 144 297 141 305 -8 24 -88
-108 -184 -304 -48 -96 -89 -174 -92 -172 -4 5 26 147 79 369 22 93 38 174 36
180 -7 20 -45 -67 -72 -160 -14 -48 -36 -146 -49 -218 -13 -71 -26 -123 -29
-115 -7 19 -32 196 -53 370 -17 142 -27 180 -40 146z"/>
</g>
</svg>
