<svg xmlns="http://www.w3.org/2000/svg" width="100%" height="auto" viewBox="0 0 200 200" version="1.1" preserveAspectRatio="xMidYMid meet" style="max-width: 100%; max-height: 70vh;">
	<path d="M -0 100.005 L -0 200.010 100.250 199.755 L 200.500 199.500 200.755 99.750 L 201.010 0 100.505 0 L 0 0 -0 100.005 M 0.481 100.500 C 0.481 155.500, 0.602 178.147, 0.750 150.826 C 0.898 123.506, 0.898 78.506, 0.750 50.826 C 0.602 23.147, 0.481 45.500, 0.481 100.500 M 94.695 13.639 C 92.705 15.628, 94.563 36.993, 98.972 62.838 C 101.230 76.073, 101.572 81.585, 99.964 78.829 C 99.428 77.910, 95.678 68.893, 91.630 58.791 C 82.739 36.602, 81.176 33.424, 79.823 34.777 C 78.279 36.321, 85.083 55.172, 93.524 72.741 L 100.848 87.982 99.009 96.741 C 96.055 110.810, 94.702 116, 93.987 116 C 93.619 116, 92.752 113.412, 92.060 110.250 C 90.762 104.316, 78.373 66.401, 75.560 59.750 C 73.462 54.791, 71.565 54.791, 72.436 59.750 C 73.548 66.087, 77.876 80.235, 85.096 101.137 C 88.893 112.129, 92.002 121.883, 92.005 122.811 C 92.012 125.388, 86.850 139, 85.866 139 C 85.390 139, 85 138.509, 85 137.909 C 85 136.425, 65.115 77.804, 63.999 75.998 C 62.202 73.091, 61.645 76.221, 62.888 82.237 C 64.728 91.147, 68.185 101.784, 76.698 124.734 L 84.204 144.967 81.165 151.461 C 77.529 159.231, 70.415 170.398, 64.386 177.799 C 59.918 183.284, 59.142 185.351, 61.095 186.559 C 64.023 188.368, 71.305 180.544, 79.087 167.228 C 82.384 161.586, 83.743 160.306, 90.661 156.322 C 113.683 143.067, 135.314 128.962, 142.353 122.615 C 146.896 118.518, 146.509 116.179, 141.693 118.638 C 138.932 120.049, 126.789 128.154, 93.750 150.643 C 89.487 153.545, 86 155.699, 86 155.431 C 86 155.162, 87.332 152.304, 88.961 149.078 C 91.479 144.089, 93.529 141.972, 102.695 134.896 C 122.510 119.599, 148 96.037, 148 93.018 C 148 90.463, 144.554 93.221, 107.731 125.250 C 100.301 131.712, 93.992 137, 93.712 137 C 93.432 137, 94.426 133.737, 95.922 129.750 C 98.313 123.377, 99.601 121.599, 106.571 115.046 C 120.091 102.335, 145.462 76.691, 148.442 72.723 C 154.497 64.661, 147.245 68.275, 136.486 78.683 C 133.178 81.882, 123.956 91.475, 115.993 100 C 101.821 115.173, 99.130 117.709, 100.222 114.865 C 100.519 114.090, 101.520 110.048, 102.447 105.882 C 104.099 98.457, 104.359 98.044, 115.632 84.904 C 133.567 63.999, 146.584 46.240, 145.762 43.800 C 145.091 41.807, 135.252 52.527, 121.471 70.266 C 114.734 78.938, 108.521 87.038, 107.664 88.266 L 106.105 90.500 106.052 88.085 C 106.024 86.756, 112.750 72.230, 121 55.803 C 129.250 39.376, 136 25.275, 136 24.468 C 136 23.661, 135.572 23, 135.048 23 C 133.255 23, 127.496 32.508, 117.784 51.500 C 112.441 61.950, 108.053 70.199, 108.034 69.830 C 107.956 68.296, 118.137 23.327, 119.449 19.409 C 119.651 18.809, 119.450 17.729, 119.005 17.008 C 118.430 16.077, 117.621 16.829, 116.214 19.599 C 112.824 26.275, 110.876 32.941, 107.475 49.500 C 104.187 65.515, 103.676 66.402, 102.575 58 C 102.251 55.525, 100.898 45.083, 99.568 34.795 C 97.237 16.766, 96.176 12.158, 94.695 13.639" stroke="none" fill="black" fill-rule="evenodd"/>
</svg>