<?xml version="1.0" standalone="no"?>
<!DOCTYPE svg PUBLIC "-//W3C//DTD SVG 20010904//EN"
 "http://www.w3.org/TR/2001/REC-SVG-20010904/DTD/svg10.dtd">
<svg version="1.0" xmlns="http://www.w3.org/2000/svg"
 width="200.000000pt" height="200.000000pt" viewBox="0 0 200.000000 200.000000"
 preserveAspectRatio="xMidYMid meet">

<g transform="translate(0.000000,200.000000) scale(0.100000,-0.100000)"
fill="#000000" stroke="none">
<path d="M973 1948 c-16 -20 -65 -121 -113 -233 -75 -177 -99 -225 -110 -225
-6 0 -29 9 -51 20 -22 12 -51 25 -66 31 l-26 10 6 -98 c3 -63 18 -149 41 -241
20 -79 36 -150 36 -158 0 -32 -65 -15 -157 41 -89 54 -119 64 -139 46 -5 -5
-63 5 -139 25 -72 18 -141 33 -154 34 -22 0 -23 -2 -16 -47 10 -74 59 -211
110 -312 52 -104 51 -117 -16 -127 -22 -4 -39 -10 -39 -14 0 -19 105 -101 177
-138 150 -79 168 -90 171 -106 2 -10 -29 -48 -78 -96 -48 -46 -80 -85 -77 -93
13 -34 208 -58 311 -38 37 7 87 27 130 53 108 64 147 81 158 70 7 -7 9 -64 6
-151 -4 -137 -4 -141 16 -142 12 -1 28 -2 36 -3 8 0 18 3 22 8 3 6 4 74 1 153
l-6 143 22 0 c13 0 57 -23 99 -50 84 -55 142 -76 236 -86 101 -10 256 21 256
52 0 7 -23 32 -52 55 -69 58 -112 118 -97 135 6 8 61 40 121 71 110 58 208
132 208 158 0 8 -15 17 -35 21 -57 10 -58 21 -14 119 68 152 99 235 113 302
l14 64 -47 -6 c-25 -4 -97 -20 -160 -36 -80 -21 -117 -27 -124 -20 -20 20 -50
11 -102 -28 -87 -65 -168 -90 -182 -55 -3 9 11 72 32 141 45 149 60 243 51
305 l-7 47 -62 -30 c-34 -16 -70 -29 -80 -29 -21 0 -40 39 -108 225 -66 181
-101 251 -116 233z"/>
</g>
</svg>
