<svg xmlns="http://www.w3.org/2000/svg" width="100%" height="auto" viewBox="0 0 200 200" version="1.1" preserveAspectRatio="xMidYMid meet" style="max-width: 100%; max-height: 70vh;">
	<path d="M -0 100.005 L -0 200.010 100.250 199.755 L 200.500 199.500 200.755 99.750 L 201.010 0 100.505 0 L 0 0 -0 100.005 M 0.481 100.500 C 0.481 155.500, 0.602 178.147, 0.750 150.826 C 0.898 123.506, 0.898 78.506, 0.750 50.826 C 0.602 23.147, 0.481 45.500, 0.481 100.500 M 92.191 14.250 C 89.526 19.888, 85.163 29.675, 82.495 36 C 79.828 42.325, 77.220 48.063, 76.700 48.750 C 75.277 50.632, 72.466 50.270, 67 47.500 C 64.287 46.125, 61.535 45, 60.886 45 C 59.207 45, 60.454 59.257, 63.072 70 C 68.288 91.406, 68.912 95.096, 67.413 95.672 C 65.008 96.595, 61.834 95.297, 52.142 89.425 C 43.648 84.280, 42.587 83.883, 40.426 85.040 C 38.393 86.128, 36.200 85.854, 25.274 83.150 C 9.091 79.144, 8 79.128, 8 82.888 C 8 87.992, 12.745 102.352, 17.944 112.984 C 20.725 118.670, 23 124.142, 23 125.142 C 23 126.312, 22.018 127.180, 20.250 127.574 C 14.828 128.781, 14 129.152, 14 130.380 C 14 133.315, 24.326 140.632, 38.556 147.780 C 50.803 153.932, 50.749 153.470, 40.434 164.012 C 35.012 169.552, 31.981 173.371, 32.560 173.932 C 36.003 177.275, 58.887 179.270, 67.225 176.954 C 69.274 176.385, 75.696 173.173, 81.497 169.816 C 87.299 166.458, 92.372 164.041, 92.772 164.444 C 93.173 164.846, 93.455 171.886, 93.401 180.088 L 93.302 195 97.759 195 L 102.216 195 101.971 184.250 C 101.587 167.387, 101.820 164, 103.361 164 C 104.110 164, 108.084 166.216, 112.191 168.924 C 122.820 175.932, 128.179 177.500, 141.500 177.500 C 153.045 177.500, 160.701 175.944, 161.677 173.399 C 162.049 172.430, 159.534 169.109, 154.546 163.984 C 149.770 159.076, 146.967 155.411, 147.172 154.344 C 147.373 153.299, 152.225 150.173, 159.502 146.398 C 171.194 140.332, 180 133.459, 180 130.399 C 180 128.893, 179.445 128.593, 174.750 127.564 C 173.121 127.207, 172 126.297, 172 125.331 C 172 124.435, 174.286 118.720, 177.080 112.633 C 182.400 101.043, 186.326 90.091, 187.435 83.750 C 188.062 80.163, 187.971 80, 185.325 80 C 183.804 80, 176.764 81.402, 169.679 83.115 C 158.785 85.750, 156.439 86.038, 154.465 84.981 C 151.983 83.653, 151.636 83.811, 139 92.023 C 136.525 93.631, 132.925 95.072, 131 95.224 C 127.843 95.473, 127.469 95.230, 127.183 92.743 C 127.008 91.227, 128.517 84.477, 130.534 77.743 C 133.328 68.421, 134.329 63.055, 134.732 55.250 C 135.115 47.838, 134.941 45, 134.103 45 C 133.465 45, 130.269 46.350, 127 48 C 123.731 49.650, 120.440 51, 119.686 51 C 117.854 51, 116.010 47.135, 109.908 30.500 C 103.575 13.234, 99.453 4, 98.081 4 C 97.506 4, 94.855 8.612, 92.191 14.250" stroke="none" fill="black" fill-rule="evenodd"/>
</svg>