<?xml version="1.0" standalone="no"?>
<!DOCTYPE svg PUBLIC "-//W3C//DTD SVG 20010904//EN"
 "http://www.w3.org/TR/2001/REC-SVG-20010904/DTD/svg10.dtd">
<svg version="1.0" xmlns="http://www.w3.org/2000/svg"
 width="200.000000pt" height="200.000000pt" viewBox="0 0 200.000000 200.000000"
 preserveAspectRatio="xMidYMid meet">

<g transform="translate(0.000000,200.000000) scale(0.100000,-0.100000)"
fill="currentColor" stroke="none">
<!-- PM10 variant A: Fewer, larger particles scattered -->
<path d="
M 250 1600 a 130 130 0 1 0 260 0 a 130 130 0 1 0 -260 0 z
M 750 1700 a 110 110 0 1 0 220 0 a 110 110 0 1 0 -220 0 z
M 1300 1600 a 140 140 0 1 0 280 0 a 140 140 0 1 0 -280 0 z
M 1650 1750 a 100 100 0 1 0 200 0 a 100 100 0 1 0 -200 0 z
M 400 1150 a 120 120 0 1 0 240 0 a 120 120 0 1 0 -240 0 z
M 900 1100 a 150 150 0 1 0 300 0 a 150 150 0 1 0 -300 0 z
M 1450 1200 a 110 110 0 1 0 220 0 a 110 110 0 1 0 -220 0 z
M 250 700 a 140 140 0 1 0 280 0 a 140 140 0 1 0 -280 0 z
M 750 650 a 120 120 0 1 0 240 0 a 120 120 0 1 0 -240 0 z
M 1250 750 a 130 130 0 1 0 260 0 a 130 130 0 1 0 -260 0 z
M 1650 680 a 110 110 0 1 0 220 0 a 110 110 0 1 0 -220 0 z
M 500 300 a 100 100 0 1 0 200 0 a 100 100 0 1 0 -200 0 z
M 1000 350 a 130 130 0 1 0 260 0 a 130 130 0 1 0 -260 0 z
M 1500 280 a 110 110 0 1 0 220 0 a 110 110 0 1 0 -220 0 z
"/>
</g>
</svg>
