<?xml version="1.0" standalone="no"?>
<!DOCTYPE svg PUBLIC "-//W3C//DTD SVG 20010904//EN"
 "http://www.w3.org/TR/2001/REC-SVG-20010904/DTD/svg10.dtd">
<svg version="1.0" xmlns="http://www.w3.org/2000/svg"
 width="200.000000pt" height="200.000000pt" viewBox="0 0 200.000000 200.000000"
 preserveAspectRatio="xMidYMid meet">

<g transform="translate(0.000000,200.000000) scale(0.100000,-0.100000)"
fill="currentColor" stroke="none">
<!-- PM2.5 variant A: Dense cloud of fine particles -->
<!-- Many small circles scattered across canvas -->
<path d="
M 345 1650 a 55 55 0 1 0 110 0 a 55 55 0 1 0 -110 0 z
M 655 1720 a 40 40 0 1 0 80 0 a 40 40 0 1 0 -80 0 z
M 1050 1680 a 60 60 0 1 0 120 0 a 60 60 0 1 0 -120 0 z
M 1450 1600 a 45 45 0 1 0 90 0 a 45 45 0 1 0 -90 0 z
M 1700 1700 a 50 50 0 1 0 100 0 a 50 50 0 1 0 -100 0 z
M 240 1300 a 55 55 0 1 0 110 0 a 55 55 0 1 0 -110 0 z
M 560 1350 a 45 45 0 1 0 90 0 a 45 45 0 1 0 -90 0 z
M 880 1280 a 65 65 0 1 0 130 0 a 65 65 0 1 0 -130 0 z
M 1250 1380 a 40 40 0 1 0 80 0 a 40 40 0 1 0 -80 0 z
M 1580 1300 a 55 55 0 1 0 110 0 a 55 55 0 1 0 -110 0 z
M 180 950 a 50 50 0 1 0 100 0 a 50 50 0 1 0 -100 0 z
M 490 980 a 60 60 0 1 0 120 0 a 60 60 0 1 0 -120 0 z
M 800 900 a 45 45 0 1 0 90 0 a 45 45 0 1 0 -90 0 z
M 1100 970 a 55 55 0 1 0 110 0 a 55 55 0 1 0 -110 0 z
M 1400 920 a 50 50 0 1 0 100 0 a 50 50 0 1 0 -100 0 z
M 1700 960 a 40 40 0 1 0 80 0 a 40 40 0 1 0 -80 0 z
M 320 600 a 50 50 0 1 0 100 0 a 50 50 0 1 0 -100 0 z
M 650 560 a 55 55 0 1 0 110 0 a 55 55 0 1 0 -110 0 z
M 980 620 a 45 45 0 1 0 90 0 a 45 45 0 1 0 -90 0 z
M 1320 580 a 60 60 0 1 0 120 0 a 60 60 0 1 0 -120 0 z
M 1620 640 a 50 50 0 1 0 100 0 a 50 50 0 1 0 -100 0 z
M 450 300 a 40 40 0 1 0 80 0 a 40 40 0 1 0 -80 0 z
M 820 280 a 55 55 0 1 0 110 0 a 55 55 0 1 0 -110 0 z
M 1180 320 a 45 45 0 1 0 90 0 a 45 45 0 1 0 -90 0 z
M 1520 290 a 50 50 0 1 0 100 0 a 50 50 0 1 0 -100 0 z
"/>
</g>
</svg>
