<?xml version="1.0" standalone="no"?>
<!DOCTYPE svg PUBLIC "-//W3C//DTD SVG 20010904//EN"
 "http://www.w3.org/TR/2001/REC-SVG-20010904/DTD/svg10.dtd">
<svg version="1.0" xmlns="http://www.w3.org/2000/svg"
 width="200.000000pt" height="200.000000pt" viewBox="0 0 200.000000 200.000000"
 preserveAspectRatio="xMidYMid meet">

<g transform="translate(0.000000,200.000000) scale(0.100000,-0.100000)"
fill="currentColor" stroke="none">
<path d="M811 1900 c-1 -22 26 -54 34 -41 3 6 2 11 -3 11 -5 0 -14 10 -20 23
-6 13 -11 16 -11 7z"/>
<path d="M842 1843 c-6 -2 -9 -10 -5 -16 4 -7 8 -14 8 -17 1 -3 8 -30 17 -60
24 -79 44 -185 78 -398 55 -351 59 -407 91 -1069 l12 -253 28 0 28 0 1 173 c1
94 7 226 13 292 19 187 9 273 -89 803 -7 39 -25 116 -40 170 -14 53 -30 115
-36 137 -5 21 -15 53 -22 70 -8 16 -19 49 -25 73 -7 23 -16 42 -22 42 -6 0 -7
5 -4 10 3 6 1 10 -5 10 -6 0 -8 5 -4 12 5 7 3 8 -6 3 -10 -6 -12 -4 -7 8 3 10
5 17 4 16 -1 0 -8 -3 -15 -6z"/>
<path d="M1381 1497 c-6 -8 -8 -17 -4 -20 3 -4 2 -7 -4 -7 -11 0 -48 -71 -82
-157 -11 -29 -18 -53 -14 -53 4 0 2 -5 -5 -12 -7 -7 -12 -20 -12 -30 0 -10 -4
-18 -10 -18 -5 0 -10 9 -10 20 0 32 -88 225 -98 215 -3 -2 0 -10 6 -17 6 -7
10 -15 11 -18 0 -3 2 -12 5 -20 7 -22 33 -135 47 -207 11 -55 10 -73 -11 -170
-56 -262 -55 -256 -44 -691 l7 -292 36 0 36 0 -13 178 c-7 97 -10 238 -7 312
6 153 35 368 47 346 20 -37 47 -383 48 -628 l1 -208 40 0 39 0 0 128 c-1 171
-43 581 -69 667 -5 17 -17 76 -27 132 -14 87 -15 113 -5 170 7 38 13 73 15 78
2 6 6 24 11 40 9 39 28 93 58 178 14 37 23 67 20 67 -3 0 0 7 7 15 7 8 8 15 2
15 -5 0 -15 -6 -21 -13z"/>
<path d="M351 1394 c0 -6 10 -56 23 -110 93 -373 136 -711 136 -1054 l0 -210
23 -1 c12 0 31 -2 41 -4 18 -4 19 3 13 158 -11 297 -84 796 -143 982 -42 129
-67 200 -75 205 -4 3 -9 14 -12 25 -2 11 -5 15 -6 9z"/>
<path d="M555 1018 c62 -47 133 -126 169 -188 l38 -65 -20 -85 c-46 -190 -82
-443 -82 -577 l0 -73 38 0 37 0 1 158 c1 86 6 191 13 232 26 173 44 261 52
253 25 -26 79 -394 79 -545 l0 -88 65 0 65 0 0 109 c0 182 -53 390 -148 584
-27 54 -45 100 -41 102 4 3 9 17 12 32 3 16 8 39 13 53 l7 25 -22 -24 c-12
-14 -24 -35 -27 -48 -4 -13 -8 -23 -9 -23 -2 0 -30 26 -62 58 -36 36 -86 72
-133 95 -49 25 -64 30 -45 15z"/>
<path d="M1591 958 c-5 -13 -20 -52 -35 -87 -21 -52 -61 -195 -80 -286 -3 -11
-14 -64 -25 -119 -12 -54 -26 -175 -33 -268 -12 -182 -10 -192 37 -186 19 3
20 13 26 198 4 107 10 214 14 238 4 23 8 52 10 65 3 27 22 127 34 187 5 25 19
81 31 125 12 44 23 87 25 95 3 8 7 25 11 38 3 12 3 22 0 22 -4 0 -10 -10 -15
-22z"/>
<path d="M850 959 c0 -5 5 -7 10 -4 6 3 10 8 10 11 0 2 -4 4 -10 4 -5 0 -10
-5 -10 -11z"/>
</g>
</svg>
