<svg xmlns="http://www.w3.org/2000/svg" width="100%" height="auto" viewBox="0 0 200 200" version="1.1" preserveAspectRatio="xMidYMid meet" style="max-width: 100%; max-height: 70vh;">
	<path d="M 0 100 L 0 200 25.413 200 L 50.826 200 50.506 174.750 C 50.061 139.554, 45.499 103.582, 37.856 75 C 33.601 59.087, 33.033 56.633, 33.500 56.167 C 34.683 54.984, 43.272 78.123, 47.545 94 C 47.913 95.371, 51.759 116.684, 54.040 130 C 56.007 141.483, 58.861 172.034, 59.174 184.951 L 59.500 198.403 57 199.102 C 55.625 199.486, 68.338 199.845, 85.250 199.900 L 116 200 115.996 193.750 C 115.994 190.313, 115.529 174.598, 114.964 158.829 C 113.844 127.600, 113.950 126.177, 119.143 102.730 L 122.192 88.960 120.525 81.230 C 119.608 76.979, 117.737 69.741, 116.366 65.147 C 114.995 60.553, 114.112 56.555, 114.404 56.262 C 115.138 55.529, 124 73.922, 124 76.177 C 124 79.460, 125.657 78.089, 126.935 73.750 C 129.834 63.906, 140.138 44.805, 141.705 46.372 C 141.981 46.648, 139.928 53.143, 137.141 60.805 C 134.354 68.466, 131.126 79.446, 129.967 85.204 L 127.860 95.673 130.888 110.586 C 136.100 136.267, 138.370 155.729, 140.090 189.500 C 140.174 191.150, 140.809 185.750, 141.501 177.500 C 143.714 151.132, 153.106 112.577, 160.131 101.024 C 162.470 97.179, 163.517 97.517, 161.950 101.611 C 159.405 108.261, 152.902 136.474, 151.027 149 C 149.916 156.425, 148.709 170.945, 148.345 181.267 L 147.683 200.034 174.091 199.767 L 200.500 199.500 200.755 99.750 L 201.010 0 100.505 0 L 0 0 0 100 M 0.481 100.500 C 0.481 155.500, 0.602 178.147, 0.750 150.826 C 0.898 123.506, 0.898 78.506, 0.750 50.826 C 0.602 23.147, 0.481 45.500, 0.481 100.500 M 77 1.658 C 77 2.154, 78.582 6.312, 80.516 10.897 C 86.972 26.205, 88.383 32.476, 95.503 77.500 C 98.309 95.242, 99.994 113.902, 101.011 138.500 C 102.178 166.695, 103.808 196.142, 104.226 196.559 C 104.379 196.712, 105.741 197.148, 107.252 197.527 L 110 198.217 110 185.308 C 110 178.209, 110.553 166.347, 111.229 158.950 C 113.068 138.838, 112.649 125.772, 109.599 108 C 100.336 54.041, 94.202 30.776, 84.208 11.706 C 79.950 3.582, 77 -0.531, 77 1.658 M 54.466 98.306 C 64.988 106.091, 75 118.765, 75 124.302 C 75 125.699, 74.115 130.590, 73.032 135.171 C 68.402 154.772, 63.834 195.013, 65.978 197.320 C 66.397 197.771, 68.373 197.833, 70.370 197.458 L 74 196.777 74.008 183.639 C 74.012 176.412, 74.445 166.675, 74.970 162 C 76.450 148.825, 79.241 133.834, 80.049 134.710 C 81.139 135.890, 84.837 154.296, 85.933 164 C 86.462 168.675, 87.201 178.012, 87.575 184.750 L 88.257 197 95.128 197 L 102 197 102 187.376 C 102 170.215, 96.247 147.334, 86.837 127.068 C 82.332 117.366, 82.301 115.526, 86.474 105.256 C 91.166 93.710, 88.681 94.904, 82.432 107.198 L 79.027 113.896 73.940 108.942 C 71.142 106.216, 65.624 102.196, 61.677 100.007 C 53.895 95.691, 49.545 94.665, 54.466 98.306 M 123.896 125.250 C 122.513 133.713, 122.040 167.185, 123 188.724 L 123.500 199.947 132.750 199.903 C 138.533 199.875, 142 199.464, 142 198.805 C 142 198.140, 139.974 197.920, 136.500 198.208 L 131 198.665 130.965 182.582 C 130.913 159.101, 127.704 117, 125.965 117 C 125.569 117, 124.638 120.713, 123.896 125.250 M 118.269 199.693 C 119.242 199.947, 120.592 199.930, 121.269 199.656 C 121.946 199.382, 121.150 199.175, 119.500 199.195 C 117.850 199.215, 117.296 199.439, 118.269 199.693" stroke="none" fill="black" fill-rule="evenodd"/>
</svg>