<svg xmlns="http://www.w3.org/2000/svg" width="100%" height="auto" viewBox="0 0 200 200" version="1.1" preserveAspectRatio="xMidYMid meet" style="max-width: 100%; max-height: 70vh;">
	<path d="M -0 100.005 L -0 200.010 100.250 199.755 L 200.500 199.500 200.755 99.750 L 201.010 0 100.505 0 L 0 0 -0 100.005 M 0.481 100.500 C 0.481 155.500, 0.602 178.147, 0.750 150.826 C 0.898 123.506, 0.898 78.506, 0.750 50.826 C 0.602 23.147, 0.481 45.500, 0.481 100.500 M 98.198 19.466 C 96.012 23.121, 90.551 28.825, 81.714 36.684 C 64.225 52.238, 58.531 58.271, 54.418 65.600 C 42.219 87.342, 43.028 108.061, 56.598 121.440 C 62.175 126.938, 67.531 129.444, 79.107 131.970 C 93.132 135.031, 93.345 135.260, 94.474 148.500 C 95.615 161.886, 100.482 176.119, 106.441 183.500 C 108.645 186.229, 109.008 186.359, 110.461 184.935 C 111.922 183.504, 111.594 182.388, 106.642 171.935 C 100.717 159.430, 98.993 153.638, 99.014 146.307 C 99.042 136.162, 100.491 134.940, 115.326 132.553 C 126.752 130.715, 131.850 128.867, 138.271 124.238 C 149.540 116.115, 155.590 100.571, 152.869 86.737 C 149.836 71.324, 144.348 62.267, 128.486 46.500 C 116.653 34.737, 108.337 24.234, 104.931 16.750 C 104.242 15.238, 103.181 14, 102.573 14 C 101.965 14, 99.996 16.460, 98.198 19.466 M 100.641 34 C 100.299 36.475, 99.560 44.317, 98.999 51.427 C 98.438 58.537, 97.804 64.529, 97.590 64.743 C 97.377 64.957, 94.465 60.939, 91.120 55.816 C 87.775 50.692, 85.029 46.908, 85.019 47.407 C 85.008 47.906, 87.739 53.001, 91.087 58.728 L 97.173 69.141 96.837 79.990 C 96.651 85.957, 96.166 91.172, 95.757 91.579 C 94.768 92.565, 82.380 79.319, 75.837 70.278 C 72.962 66.306, 70.424 63.242, 70.197 63.469 C 69.170 64.497, 77.780 76.597, 86.464 86.330 L 96 97.018 96 107.509 C 96 113.279, 95.757 118, 95.459 118 C 94.439 118, 77.597 103.496, 68.171 94.500 C 62.984 89.550, 59.281 86.541, 59.940 87.814 C 61.945 91.683, 72.909 102.627, 84 111.828 C 94.444 120.493, 94.502 120.565, 94.808 125.358 L 95.117 130.176 90.808 127.213 C 85.235 123.378, 60.406 111.579, 62.031 113.537 C 62.712 114.358, 69.225 117.934, 76.504 121.484 C 85.478 125.860, 90.739 129.078, 92.847 131.479 L 95.956 135.020 100.378 131.645 C 102.810 129.789, 108.332 126.817, 112.650 125.040 C 126.432 119.369, 131.943 116.774, 133.060 115.428 C 134.330 113.897, 114.485 122.149, 105 127.096 C 101.425 128.960, 98.162 130.639, 97.750 130.826 C 96.843 131.238, 96.750 125.815, 97.626 123.533 C 97.970 122.637, 103.932 117.539, 110.876 112.206 C 123.985 102.136, 138.347 89.096, 140.237 85.547 C 140.836 84.421, 138.602 86.018, 135.272 89.097 C 129.728 94.222, 110.818 109.640, 101.750 116.430 L 98 119.237 98 110.754 C 98 100.679, 97.530 101.460, 113.496 85 C 124.139 74.027, 130 67.139, 130 65.604 C 130 65.215, 123.302 71.670, 115.116 79.948 C 106.930 88.227, 99.752 95, 99.163 95 C 98.495 95, 98.253 93.219, 98.518 90.250 C 98.751 87.638, 99.164 81.803, 99.437 77.285 L 99.932 69.071 106.399 60.596 C 117.361 46.227, 118.031 43.198, 107.404 56.042 C 103.745 60.465, 100.546 63.880, 100.296 63.630 C 100.046 63.380, 100.384 56.218, 101.047 47.715 C 102.199 32.934, 101.950 24.525, 100.641 34" stroke="none" fill="black" fill-rule="evenodd"/>
</svg>