<?xml version="1.0" standalone="no"?>
<!DOCTYPE svg PUBLIC "-//W3C//DTD SVG 20010904//EN"
 "http://www.w3.org/TR/2001/REC-SVG-20010904/DTD/svg10.dtd">
<svg version="1.0" xmlns="http://www.w3.org/2000/svg"
 width="200.000000pt" height="200.000000pt" viewBox="0 0 200.000000 200.000000"
 preserveAspectRatio="xMidYMid meet">

<g transform="translate(0.000000,200.000000) scale(0.100000,-0.100000)"
fill="#000000" stroke="none">
<path d="M981 1798 c-29 -45 -82 -100 -191 -196 -168 -149 -218 -206 -266
-306 -90 -187 -79 -367 29 -491 55 -62 106 -88 238 -121 139 -34 143 -39 158
-169 15 -129 32 -188 83 -287 28 -54 46 -78 59 -78 30 0 31 16 1 67 -49 84
-84 173 -100 254 -28 143 -2 181 138 204 121 19 138 24 203 58 155 81 233 269
182 442 -40 138 -98 227 -240 365 -117 114 -169 178 -209 257 -14 28 -30 54
-35 58 -6 3 -28 -23 -50 -57z m29 -275 c-6 -85 -10 -157 -7 -159 2 -3 34 31
71 76 106 128 100 98 -10 -46 l-65 -85 -5 -82 c-2 -45 -6 -103 -9 -129 -2 -30
0 -48 7 -48 6 0 77 68 159 151 82 82 149 147 149 143 0 -15 -59 -84 -165 -194
-160 -165 -155 -157 -155 -258 l0 -84 38 28 c90 68 279 222 335 273 33 31 55
47 49 36 -19 -36 -162 -166 -293 -267 -70 -53 -129 -104 -133 -113 -8 -23 -8
-77 2 -73 4 2 36 18 72 37 95 50 293 132 281 117 -12 -14 -67 -40 -205 -96
-43 -18 -98 -48 -122 -66 l-44 -34 -32 35 c-21 24 -73 56 -163 100 -73 36
-138 71 -145 80 -16 19 232 -99 288 -137 l43 -30 -3 48 c-3 48 -4 49 -108 136
-111 92 -221 201 -241 240 -6 13 31 -17 83 -67 94 -90 262 -235 273 -235 3 0
5 47 5 105 l0 105 -95 107 c-87 97 -173 218 -163 228 2 3 28 -28 56 -68 66
-90 190 -223 200 -213 4 4 9 56 10 116 l4 109 -61 104 c-34 57 -61 108 -61
113 0 5 28 -33 61 -84 34 -51 63 -92 65 -89 2 2 8 62 14 133 13 160 21 223 28
205 2 -7 -1 -83 -8 -168z"/>
</g>
</svg>
