<?xml version="1.0" standalone="no"?>
<!DOCTYPE svg PUBLIC "-//W3C//DTD SVG 20010904//EN"
 "http://www.w3.org/TR/2001/REC-SVG-20010904/DTD/svg10.dtd">
<svg version="1.0" xmlns="http://www.w3.org/2000/svg"
 width="200.000000pt" height="200.000000pt" viewBox="0 0 200.000000 200.000000"
 preserveAspectRatio="xMidYMid meet">

<g transform="translate(0.000000,200.000000) scale(0.100000,-0.100000)"
fill="#000000" stroke="none">
<path d="M1043 1876 c-18 -21 -24 -68 -32 -242 -4 -87 -11 -168 -16 -179 -4
-11 -5 -17 0 -13 4 4 13 1 21 -6 10 -10 13 -65 14 -237 1 -123 1 -232 1 -242
-1 -12 -17 4 -43 42 -24 32 -67 88 -96 123 -29 35 -78 94 -110 132 -70 85 -87
101 -113 102 -15 1 -18 -3 -13 -20 8 -26 36 -65 47 -66 12 0 8 -28 -5 -32 -11
-4 -21 -38 -10 -38 3 0 14 7 24 17 12 11 18 12 18 4 0 -7 24 -40 54 -73 30
-33 67 -78 83 -101 15 -23 47 -62 70 -87 23 -25 53 -58 67 -74 l26 -29 0 -256
c0 -212 -2 -253 -13 -241 -7 8 -38 44 -69 80 l-56 65 -7 88 c-9 120 -31 115
-37 -8 l-3 -50 -72 84 c-59 70 -73 92 -76 125 l-3 41 -13 -34 -14 -33 -26 33
c-37 47 -79 89 -90 89 -5 0 -11 6 -14 14 -4 9 -14 12 -25 9 -39 -10 -20 -38
124 -188 59 -60 140 -145 181 -187 41 -43 79 -75 84 -72 5 3 8 2 7 -3 -2 -4
25 -37 60 -73 l62 -65 1 -110 c1 -137 7 -159 41 -163 22 -3 26 1 31 35 4 21 7
51 7 67 0 41 64 150 125 213 44 45 56 53 89 53 41 0 76 15 76 32 0 7 -19 9
-61 4 l-61 -6 24 33 c13 17 35 48 49 67 45 66 71 90 85 79 7 -6 14 -6 18 -1 3
6 -3 12 -14 15 -19 5 -18 10 25 79 53 86 63 118 36 118 -21 0 -62 -49 -88
-106 -10 -22 -22 -42 -28 -46 -12 -9 -31 -10 -22 -2 3 4 -1 21 -10 38 -18 35
-29 21 -17 -22 9 -34 11 -55 4 -62 -3 -3 -28 -40 -55 -82 -28 -42 -53 -77 -57
-78 -7 0 -17 25 -24 67 -6 33 -12 43 -25 43 -6 0 -8 -17 -5 -42 8 -74 12 -83
32 -79 18 3 18 2 1 -16 -9 -11 -14 -23 -10 -26 3 -4 2 -7 -4 -7 -6 0 -16 -15
-24 -33 -12 -30 -41 -67 -54 -67 -3 0 -5 104 -5 231 l0 231 49 49 c47 47 57
52 134 64 44 7 40 22 -8 31 -19 3 -35 10 -35 14 0 7 87 95 139 139 27 23 37
26 46 11 10 -16 35 -12 35 5 0 9 -12 18 -28 21 -16 3 -29 12 -29 20 0 8 2 12
5 10 4 -5 47 43 80 91 23 32 29 63 13 63 -17 0 -71 -51 -102 -96 -16 -24 -35
-44 -41 -44 -6 0 -9 3 -5 6 3 4 -1 21 -11 38 l-17 31 -3 -34 c-2 -20 2 -37 10
-42 10 -7 10 -9 1 -9 -7 0 -13 -5 -13 -12 0 -15 -109 -158 -121 -158 -4 0 -14
12 -21 27 -25 51 -38 40 -31 -27 5 -51 2 -64 -13 -81 -19 -21 -19 -21 -26 17
-4 22 -7 155 -7 297 -1 251 0 259 19 264 20 5 28 37 12 47 -5 3 -10 66 -11
141 -2 155 -14 239 -35 260 -18 18 -37 19 -53 1z"/>
<path d="M798 1294 c-9 -8 3 -44 13 -38 11 7 12 44 1 44 -5 0 -11 -3 -14 -6z"/>
<path d="M956 1119 c-18 -17 -18 -19 -2 -19 9 0 19 7 23 15 8 23 0 25 -21 4z"/>
<path d="M940 1084 c0 -1 6 -7 14 -13 10 -9 15 -8 19 3 4 10 0 14 -14 13 -10
-1 -19 -2 -19 -3z"/>
<path d="M820 1020 c-13 -9 -13 -11 0 -20 25 -16 52 -12 48 7 -4 21 -27 27
-48 13z"/>
<path d="M585 669 c-4 -6 -4 -13 -1 -16 8 -8 36 5 36 17 0 13 -27 13 -35 -1z"/>
<path d="M703 493 c-7 -2 -13 -9 -13 -14 0 -6 4 -8 9 -4 5 3 12 1 15 -3 7 -11
96 -15 96 -4 0 21 -74 39 -107 25z"/>
</g>
</svg>
