<svg xmlns="http://www.w3.org/2000/svg" width="100%" height="auto" viewBox="0 0 200 200" version="1.1" preserveAspectRatio="xMidYMid meet" style="max-width: 100%; max-height: 70vh;">
	<path d="M 0 100 L 0 200 51.779 200 L 103.557 200 103.219 186.250 L 102.881 172.500 93.690 163.441 L 84.500 154.382 77.567 154.208 C 70.737 154.037, 68.198 153.107, 69.372 151.207 C 70.665 149.115, 75.494 149.163, 79 151.302 L 82.500 153.437 78.364 148.468 C 70.356 138.847, 63.815 132.785, 62.673 133.927 C 61.552 135.048, 57 135.435, 57 134.410 C 57 134.086, 57.975 133.031, 59.168 132.065 L 61.335 130.310 55.168 123.680 C 48.551 116.568, 47.296 113, 51.411 113 C 53.111 113, 55.647 114.991, 59.999 119.740 C 65.854 126.130, 66.249 126.380, 67.588 124.549 C 68.364 123.487, 69 122.227, 69 121.750 C 69 121.273, 69.464 121.169, 70.031 121.519 C 70.598 121.869, 70.813 123.583, 70.510 125.328 C 70.025 128.114, 70.776 129.518, 76.678 136.858 C 83.993 145.957, 84.784 146, 84.930 137.309 C 85.003 132.910, 86.614 130.781, 88.096 133.122 C 88.577 133.880, 88.976 137.739, 88.985 141.697 L 89 148.894 95.750 156.452 L 102.500 164.011 102.792 141.755 C 102.952 129.515, 102.838 118.150, 102.538 116.500 C 102.231 114.808, 99.562 110.775, 96.417 107.250 C 91.189 101.391, 90.567 101, 86.479 101 C 81.572 101, 79.785 99.362, 82.515 97.365 C 83.878 96.369, 84.677 96.317, 85.692 97.159 C 86.438 97.779, 87.283 98.051, 87.569 97.764 C 88.328 97.005, 76.423 82.297, 74 81 C 72.788 80.351, 72.240 79.407, 72.664 78.700 C 73.104 77.967, 72.730 78.030, 71.705 78.862 C 70.781 79.611, 69.283 79.939, 68.377 79.591 C 66.865 79.011, 66.876 78.794, 68.508 76.991 C 70.224 75.095, 70.193 74.886, 67.644 71.208 C 64.280 66.354, 64.208 64, 67.422 64 C 69.028 64, 71.050 65.409, 73.422 68.180 C 75.390 70.479, 77 72.729, 77 73.180 C 77 75.077, 78.834 73.799, 79.411 71.500 C 79.756 70.125, 80.494 69, 81.050 69 C 82.721 69, 83.232 71.698, 81.998 74.003 C 80.620 76.579, 82.409 79.643, 91.511 90.300 C 95.847 95.376, 97.557 96.771, 98.254 95.800 C 98.921 94.873, 99.017 95.028, 98.591 96.340 C 97.981 98.220, 100.755 104, 102.268 104 C 102.728 104, 102.969 93.669, 102.802 81.042 C 102.523 59.824, 102.356 57.978, 100.597 56.693 C 99.551 55.929, 98.998 54.813, 99.368 54.213 C 99.739 53.614, 100.262 48.033, 100.532 41.812 C 101.750 13.676, 102.306 11, 106.940 11 C 108.925 11, 110.296 11.685, 111.021 13.039 C 112.223 15.284, 113.958 33.607, 113.984 44.316 C 113.993 48.064, 114.503 52.072, 115.119 53.222 C 116.039 54.942, 115.884 55.595, 114.243 56.906 C 111.265 59.285, 110.836 64.862, 111.609 91.204 C 112.164 110.139, 112.582 115, 113.653 115 C 115.174 115, 115.222 114.704, 115.011 106.750 C 114.837 100.176, 116.843 98.793, 119 104 C 119.683 105.650, 120.526 106.982, 120.871 106.961 C 121.457 106.925, 125.594 101.834, 130.678 94.891 C 132.246 92.751, 132.752 90.868, 132.484 88.177 C 132.280 86.119, 132.519 83.778, 133.017 82.973 C 133.780 81.738, 134.156 81.821, 135.429 83.505 C 136.258 84.602, 136.951 86.154, 136.968 86.954 C 136.986 87.753, 139.836 85.309, 143.303 81.521 C 147.990 76.401, 150.051 74.805, 151.338 75.300 C 152.960 75.922, 152.966 76.171, 151.423 79.232 C 150.517 81.029, 148.022 84.611, 145.878 87.191 L 141.981 91.882 144.740 93.204 C 147.956 94.746, 147.586 96.450, 144 96.615 C 142.625 96.679, 140.954 96.791, 140.287 96.865 C 138.435 97.071, 126 109.038, 126 110.615 C 126 111.380, 127.007 112.007, 128.250 112.015 C 129.488 112.024, 131.120 112.423, 131.878 112.904 C 134.280 114.425, 132.041 116, 127.474 116 C 123.647 116, 122.372 116.615, 117.783 120.673 C 114.878 123.244, 112.216 126.506, 111.868 127.923 C 110.879 131.959, 110.895 170.817, 111.887 171.430 C 113.041 172.143, 114.505 170.316, 117.462 164.476 C 119.551 160.350, 119.679 159.536, 118.434 158.291 C 116.465 156.323, 116.439 146, 118.402 146 C 119.801 146, 122.436 151.447, 122.116 153.675 C 122.023 154.321, 122.367 155.109, 122.881 155.426 C 123.930 156.075, 132.949 142.517, 133.093 140.073 C 133.144 139.208, 133.104 136.500, 133.005 134.055 C 132.840 129.977, 132.965 129.726, 134.524 131.020 C 135.459 131.796, 136.550 133.313, 136.949 134.392 C 137.559 136.041, 138.406 135.222, 142.272 129.247 C 150.871 115.953, 155.069 117.659, 147.627 131.424 C 143.351 139.332, 143.182 139.923, 145.027 140.508 C 148.045 141.466, 147.373 143.060, 144.058 142.808 C 140.911 142.568, 140.236 143.218, 132.638 153.787 L 128.775 159.160 134.133 158.876 C 138.421 158.648, 139.552 158.915, 139.802 160.210 C 140.136 161.947, 138.921 162.477, 132.215 163.521 C 126.722 164.376, 123.280 167.332, 117.421 176.225 C 112.746 183.321, 111.782 186.024, 110.629 195.260 L 110.035 200.020 155.268 199.760 L 200.500 199.500 200.755 99.750 L 201.010 0 100.505 0 L 0 0 0 100 M 0.481 100.500 C 0.481 155.500, 0.602 178.147, 0.750 150.826 C 0.898 123.506, 0.898 78.506, 0.750 50.826 C 0.602 23.147, 0.481 45.500, 0.481 100.500 M 93.669 88.159 C 93.327 89.465, 93.828 91.237, 94.938 92.649 L 96.772 94.980 97.372 92.740 C 97.703 91.508, 97.979 89.487, 97.986 88.250 C 98.005 85.253, 94.448 85.178, 93.669 88.159" stroke="none" fill="black" fill-rule="evenodd"/>
</svg>