<?xml version="1.0" standalone="no"?>
<!DOCTYPE svg PUBLIC "-//W3C//DTD SVG 20010904//EN"
 "http://www.w3.org/TR/2001/REC-SVG-20010904/DTD/svg10.dtd">
<svg version="1.0" xmlns="http://www.w3.org/2000/svg"
 width="200.000000pt" height="200.000000pt" viewBox="0 0 200.000000 200.000000"
 preserveAspectRatio="xMidYMid meet">

<g transform="translate(0.000000,200.000000) scale(0.100000,-0.100000)"
fill="currentColor" stroke="none">
<path d="M925 1860 c-85 -111 -145 -268 -145 -380 0 -115 51 -250 125 -329 61
-65 77 -68 122 -24 92 92 133 202 133 355 0 142 -40 256 -134 385 -17 23 -37
44 -43 47 -7 3 -33 -21 -58 -54z"/>
<path d="M444 1218 c11 -164 43 -263 114 -356 76 -101 185 -163 311 -178 l61
-7 0 74 c-1 197 -84 379 -216 470 -61 42 -185 89 -235 89 l-42 0 7 -92z"/>
<path d="M1420 1300 c-94 -23 -223 -100 -282 -169 -77 -90 -127 -229 -130
-364 -2 -91 12 -100 132 -77 79 15 138 48 205 115 106 105 155 237 155 412 0
104 2 102 -80 83z"/>
<path d="M449 723 c-3 -70 4 -168 16 -221 38 -166 163 -315 310 -371 62 -24
151 -38 141 -23 -3 6 0 12 6 14 21 7 16 172 -6 238 -63 186 -200 317 -382 365
-74 19 -84 19 -85 -2z"/>
<path d="M1400 721 c-236 -76 -391 -291 -390 -540 0 -79 6 -85 76 -78 78 8
172 56 249 128 107 100 175 273 175 444 0 64 0 65 -27 64 -16 0 -53 -8 -83
-18z"/>
</g>
</svg>
