<svg xmlns="http://www.w3.org/2000/svg" width="100%" height="auto" viewBox="0 0 200 200" version="1.1" preserveAspectRatio="xMidYMid meet" style="max-width: 100%; max-height: 70vh;">
	<path d="M -0 100.005 L -0 200.010 100.250 199.755 L 200.500 199.500 200.755 99.750 L 201.010 0 100.505 0 L 0 0 -0 100.005 M 0.481 100.500 C 0.481 155.500, 0.602 178.147, 0.750 150.826 C 0.898 123.506, 0.898 78.506, 0.750 50.826 C 0.602 23.147, 0.481 45.500, 0.481 100.500 M 91.257 15.250 C 84.858 24.541, 82.717 28.828, 79.985 37.825 C 74.303 56.529, 82.154 82.179, 95.853 89.667 L 99.205 91.500 103.950 86.230 C 111.837 77.470, 116.934 64.163, 116.983 52.208 C 117.012 44.946, 114.020 32.993, 110.315 25.571 C 106.127 17.182, 99.479 8, 97.593 8 C 96.854 8, 94.003 11.262, 91.257 15.250 M 43.495 69.009 C 42.660 70.360, 43.624 80.407, 45.605 91 C 48.540 106.690, 58.842 121.351, 71.174 127.384 C 77.649 130.552, 90.874 133.526, 92.271 132.129 C 93.937 130.463, 92.500 111.156, 90.176 103.985 C 85.592 89.840, 77.840 80.632, 65 74.081 C 55.874 69.425, 44.845 66.823, 43.495 69.009 M 140.708 70.094 C 131.882 72.171, 118.127 80.708, 112.753 87.443 C 106.038 95.859, 100.053 113.535, 100.037 125 C 100.027 131.917, 100.624 132.351, 109.364 131.790 C 123.344 130.893, 136.072 122.022, 143.380 108.081 C 147.857 99.540, 149.949 91.204, 150.697 78.927 L 151.302 69 147.901 69.100 C 146.030 69.156, 142.793 69.603, 140.708 70.094 M 44.322 135.250 C 44.665 140.338, 45.642 147.200, 46.494 150.500 C 51.280 169.039, 64.685 183.691, 81.238 188.476 C 92.170 191.636, 93.722 190.351, 93.888 178 C 94.197 155.197, 77.213 133.458, 54.458 127.531 C 51.225 126.689, 47.481 126, 46.139 126 L 43.698 126 44.322 135.250 M 138.196 128.030 C 124.594 132.863, 112.869 143.359, 106.468 156.435 C 101.965 165.632, 99.271 180.578, 100.975 186.909 L 102.123 191.171 107.291 190.460 C 130.596 187.255, 147.902 167.060, 150.805 139.682 C 151.261 135.382, 151.440 130.544, 151.203 128.932 C 150.815 126.289, 150.415 126.007, 147.137 126.073 C 145.136 126.113, 141.113 126.994, 138.196 128.030" stroke="none" fill="black" fill-rule="evenodd"/>
</svg>