<?xml version="1.0" standalone="no"?>
<!DOCTYPE svg PUBLIC "-//W3C//DTD SVG 20010904//EN"
 "http://www.w3.org/TR/2001/REC-SVG-20010904/DTD/svg10.dtd">
<svg version="1.0" xmlns="http://www.w3.org/2000/svg"
 width="200.000000pt" height="200.000000pt" viewBox="0 0 200.000000 200.000000"
 preserveAspectRatio="xMidYMid meet">

<g transform="translate(0.000000,200.000000) scale(0.100000,-0.100000)"
fill="currentColor" stroke="none">
<path d="M922 1847 c-110 -185 -143 -260 -188 -431 -30 -112 -36 -153 -41
-286 -14 -355 50 -556 272 -859 23 -32 25 -42 25 -151 0 -104 2 -117 18 -117
28 0 32 16 32 136 0 107 1 114 23 132 13 10 49 55 79 101 93 140 133 229 175
392 23 90 26 121 27 281 1 203 -12 286 -69 461 -56 169 -220 494 -250 494 -6
0 -53 -69 -103 -153z m68 -157 c0 -129 -3 -158 -13 -154 -8 3 -14 10 -15 17
-1 7 -12 43 -26 81 -22 64 -23 72 -10 109 14 39 52 107 60 107 2 0 4 -72 4
-160z m102 99 c18 -35 27 -64 24 -84 -6 -45 -44 -148 -61 -165 -13 -13 -15 5
-15 149 0 182 5 192 52 100z m-208 -194 c8 -19 32 -60 52 -90 20 -31 40 -72
45 -93 12 -51 11 -272 -1 -272 -29 0 -120 136 -149 222 -25 73 -26 111 -6 167
8 23 15 45 16 49 4 19 19 52 24 52 2 0 11 -16 19 -35z m327 -78 c13 -42 19
-80 15 -98 -13 -66 -83 -196 -132 -245 l-49 -49 -3 148 -3 148 35 41 c19 22
47 69 63 104 26 61 28 63 40 41 7 -12 22 -53 34 -90z m74 -283 c8 -94 -7 -162
-56 -254 -35 -65 -58 -92 -120 -142 -69 -57 -73 -54 -77 57 -5 120 4 172 28
180 27 9 133 137 170 207 39 72 46 66 55 -48z m-500 76 c13 -42 104 -167 151
-209 l49 -43 3 -129 c4 -144 2 -147 -57 -102 -62 47 -100 95 -144 182 -38 76
-42 92 -42 155 1 126 22 203 40 146z m67 -482 c32 -31 73 -62 92 -69 42 -15
46 -28 46 -141 0 -67 -3 -88 -13 -88 -8 0 -41 25 -74 54 -72 65 -123 158 -147
263 -23 102 -21 116 11 73 15 -19 53 -61 85 -92z m433 60 c-13 -108 -57 -211
-119 -276 -32 -35 -115 -97 -121 -90 -4 4 -8 104 -7 164 2 48 4 52 30 57 35 8
111 71 169 142 25 30 48 55 50 55 3 0 2 -24 -2 -52z m-313 -408 c12 0 17 -15
20 -67 3 -38 4 -70 2 -72 -4 -5 -54 54 -86 103 -15 22 -31 46 -36 51 -5 6 -7
16 -4 23 2 8 17 4 46 -13 24 -14 50 -25 58 -25z m188 25 c0 -2 -19 -35 -41
-72 -63 -103 -81 -109 -77 -26 3 58 3 58 48 80 44 21 70 28 70 18z"/>
</g>
</svg>
