<svg xmlns="http://www.w3.org/2000/svg" width="100%" height="auto" viewBox="0 0 200 200" version="1.1" preserveAspectRatio="xMidYMid meet" style="max-width: 100%; max-height: 70vh;">
	<path d="M 0 100 L 0 200 49.625 200 L 99.250 200 98.625 196.875 C 98.281 195.156, 98 189.308, 98 183.878 C 98 174.110, 97.965 173.966, 94.671 170.253 C 83.852 158.058, 74.133 137.373, 70.355 118.500 C 67.730 105.391, 67.992 79.922, 70.883 67 C 76.215 43.169, 78.845 37.141, 97.824 5.250 L 100.948 0 50.474 0 L 0 0 0 100 M 105.019 2.035 C 105.618 3.155, 107.255 5.742, 108.656 7.785 C 113.142 14.324, 123.747 37.158, 127.361 48.057 C 133.535 66.680, 134.505 73.167, 134.455 95.500 C 134.413 114.080, 134.217 116.200, 131.698 125.366 C 126.868 142.938, 118.450 159.528, 108.807 170.481 L 104.500 175.373 104.147 187.687 L 103.794 200 151.897 200 L 200 200 200 100 L 200 0 151.965 0 C 103.963 0, 103.930 0.001, 105.019 2.035 M 104.701 16.336 C 104.419 17.071, 104.131 23.863, 104.061 31.430 C 103.915 47.202, 104.908 48.551, 108.840 37.923 C 111.774 29.992, 111.736 27.286, 108.589 20.413 C 105.962 14.675, 105.517 14.209, 104.701 16.336 M 95.182 20.349 C 92.051 26.620, 91.611 30.088, 93.312 35.092 C 95.490 41.498, 97.204 45, 98.161 45 C 98.622 45, 99 38.475, 99 30.500 C 99 22.525, 98.630 16, 98.177 16 C 97.725 16, 96.377 17.957, 95.182 20.349 M 83.476 45.405 C 80.329 55.384, 80.556 57.905, 85.597 68.968 C 88.323 74.950, 95.492 85, 97.032 85 C 97.610 85, 98 79.335, 98 70.947 L 98 56.894 93.566 50.100 C 91.127 46.364, 88.491 41.776, 87.708 39.904 L 86.285 36.500 83.476 45.405 M 115.009 41.471 C 114.346 43.482, 111.597 48.425, 108.901 52.455 L 104 59.784 104 72.892 C 104 88.496, 104.565 89.014, 111.509 79.776 C 122.113 65.670, 124.217 57.108, 119.942 45.463 C 117.062 37.619, 116.446 37.120, 115.009 41.471 M 122.512 73.210 C 120.613 77.087, 116.692 82.206, 111.762 87.244 L 104 95.174 104 107.651 L 104 120.128 108.134 117.814 C 116.799 112.964, 126.058 98.832, 127.784 87.821 C 128.638 82.377, 127.411 66.945, 126.133 67.054 C 125.785 67.083, 124.155 69.854, 122.512 73.210 M 75.451 74.613 C 73.593 91.967, 79.233 105.814, 92.399 116.221 C 97.461 120.222, 97.475 120.226, 98.133 117.866 C 98.496 116.565, 98.627 110.775, 98.423 105 L 98.053 94.500 94.069 91 C 89.650 87.119, 81.794 76.733, 79.265 71.430 C 78.366 69.543, 77.299 68, 76.894 68 C 76.490 68, 75.840 70.976, 75.451 74.613 M 124.819 110.832 C 120.267 116.930, 110.989 124.909, 107.310 125.890 L 104.500 126.640 104.215 136.820 C 103.992 144.784, 104.221 147, 105.265 147 C 105.999 147, 109.239 144.863, 112.465 142.250 C 121.073 135.280, 126.550 124.495, 128.462 110.750 C 128.825 108.138, 128.966 106, 128.775 106 C 128.583 106, 126.803 108.175, 124.819 110.832 M 75.282 111.586 C 76.673 123.683, 83.309 136.036, 92.186 143.053 C 97.337 147.124, 97.402 147.144, 98.234 144.897 C 98.696 143.648, 98.777 138.968, 98.414 134.497 L 97.755 126.368 92.961 123.674 C 90.325 122.191, 85.137 117.721, 81.433 113.739 L 74.698 106.500 75.282 111.586 M 88.091 150.830 C 88.610 152.321, 91.165 156.232, 93.768 159.521 L 98.500 165.500 98.816 161.080 C 99.242 155.121, 98.344 152, 96.203 152 C 95.236 152, 93.557 151.400, 92.473 150.666 C 91.388 149.933, 89.745 149.059, 88.823 148.725 C 87.384 148.205, 87.280 148.505, 88.091 150.830 M 109.250 151.641 L 104 153.961 104 159.054 C 104 163.270, 104.287 164.091, 105.666 163.823 C 107.348 163.497, 115.356 151.430, 114.800 150.060 C 114.635 149.653, 112.138 150.365, 109.250 151.641" stroke="none" fill="black" fill-rule="evenodd"/>
</svg>